<?xml version="1.0" encoding="UTF-8"?>
<svg version="1.1" xmlns="http://www.w3.org/2000/svg" width="612" height="408">
<path d="M0 0 C1.59908203 0.66322266 1.59908203 0.66322266 3.23046875 1.33984375 C14.3944884 6.42780515 23.39144959 14.90192734 31.6875 23.8125 C32.95218271 25.22363777 32.95218271 25.22363777 35 25 C35.495 24.34 35.99 23.68 36.5 23 C36.995 22.34 37.49 21.68 38 21 C38.66 21 39.32 21 40 21 C40.23847656 20.41992188 40.47695313 19.83984375 40.72265625 19.2421875 C45.12956626 11.5065106 55.25787983 6.75870742 63 3 C64.05960937 2.484375 65.11921875 1.96875 66.2109375 1.4375 C72.68363275 -1.52483192 79.02654176 -3.72149483 85.9375 -5.375 C86.98381592 -5.62660889 86.98381592 -5.62660889 88.05126953 -5.88330078 C92.43242963 -6.85607573 96.51936368 -7.31886737 101 -7 C104 -5 104 -5 105 -2 C105.11112354 0.48795751 105.16760751 2.94867902 105.17700195 5.43725586 C105.18357315 6.19204727 105.19014435 6.94683868 105.19691467 7.72450256 C105.21662002 10.22128398 105.22830203 12.71800542 105.23828125 15.21484375 C105.24235678 16.06763979 105.2464323 16.92043583 105.25063133 17.79907417 C105.27147697 22.30997602 105.28578706 26.82084754 105.29516602 31.33178711 C105.30624734 35.99377239 105.34067106 40.65528258 105.38033772 45.31709957 C105.40645539 48.90044555 105.41485335 52.48367726 105.41844749 56.06711006 C105.42332344 57.78593733 105.43496606 59.50475916 105.45348549 61.22349358 C105.47778214 63.62716535 105.47693023 66.02959316 105.4699707 68.43334961 C105.48918579 69.49874466 105.48918579 69.49874466 105.50878906 70.58566284 C105.47343235 73.93337213 105.21071687 75.71759903 103.18522644 78.43214417 C100.13983526 80.61715083 97.18750453 80.70980736 93.5625 80.9375 C84.54086018 81.77237836 76.82743517 84.52812055 68.7578125 88.66015625 C66 90 66 90 64 90 C64 90.66 64 91.32 64 92 C62.35743484 93.0391138 60.68511425 94.0314094 59 95 C52.08933581 100.06997326 46.21166971 105.57358826 40.79248047 112.18920898 C38.87760525 114.42832476 37.4277205 115.86159938 34.59765625 116.77734375 C30.35039456 115.50635867 28.13823515 112.29100439 25.3125 109 C11.32945747 93.44550212 -6.45990379 82.16518727 -27.8125 80.625 C-28.52019531 80.59664063 -29.22789062 80.56828125 -29.95703125 80.5390625 C-32.9875744 79.73941631 -34.08013982 78.47282807 -36 76 C-36.3845838 73.27944285 -36.52772798 70.96662926 -36.48583984 68.24975586 C-36.48963654 67.47370499 -36.49343323 66.69765411 -36.49734497 65.89808655 C-36.50474585 63.3365926 -36.48337735 60.77623662 -36.4609375 58.21484375 C-36.45855291 56.43412916 -36.45764779 54.65341203 -36.4581604 52.87269592 C-36.45503331 49.14275336 -36.43847386 45.41319543 -36.41162109 41.68334961 C-36.37761669 36.8992145 -36.36999326 32.11550153 -36.37151146 27.33125973 C-36.370968 23.65527813 -36.36000511 19.97938904 -36.34550858 16.30343819 C-36.33913914 14.5391669 -36.33520134 12.77488512 -36.33372116 11.01060295 C-36.32939106 8.54716959 -36.31189738 6.08418643 -36.29052734 3.62084961 C-36.29143372 2.88986053 -36.29234009 2.15887146 -36.29327393 1.4057312 C-36.24645893 -2.27952635 -36.10093103 -3.84860345 -34 -7 C-22.469229 -9.98766476 -10.5025191 -4.40796186 0 0 Z M-25 5 C-25 25.79 -25 46.58 -25 68 C-21.7 68.66 -18.4 69.32 -15 70 C-6.45728374 72.09351119 0.84543848 75.2508207 8.41796875 79.609375 C10.80469295 81.15805975 10.80469295 81.15805975 13 81 C13 81.66 13 82.32 13 83 C14.36705095 83.92275939 15.73977194 84.83800124 17.13671875 85.71484375 C20.09967535 87.75847629 22.70028077 90.19492123 25.36328125 92.609375 C26.76905957 94.107915 26.76905957 94.107915 28 94 C28.15283937 86.35052252 28.25750447 78.70144254 28.32958984 71.05078125 C28.35965792 68.45134771 28.40052392 65.85201474 28.45263672 63.25292969 C28.52588572 59.50430409 28.55955861 55.75702623 28.5859375 52.0078125 C28.61690521 50.85636749 28.64787292 49.70492249 28.67977905 48.51858521 C28.68350192 39.4790434 26.20688457 33.34361549 19.89486694 26.82644653 C16.57066411 23.72458627 13.451318 21.25193319 9 20 C9 19.34 9 18.68 9 18 C6.00262913 16.55697227 3.00164264 15.12161815 0 13.6875 C-0.83917969 13.28337891 -1.67835938 12.87925781 -2.54296875 12.46289062 C-10.16590282 8.82870112 -16.57576245 6.20346251 -25 5 Z M79.875 8.625 C79.22845459 8.89135254 78.58190918 9.15770508 77.91577148 9.43212891 C71.79585463 11.99542128 65.8741042 14.91527489 60 18 C60 18.66 60 19.32 60 20 C59.29875 20.226875 58.5975 20.45375 57.875 20.6875 C51.00112079 23.82557529 45.24441833 29.85510731 42.21786499 36.79289246 C39.8394565 43.20787875 39.60658779 49.02299891 39.70703125 55.81640625 C39.71127609 56.91347397 39.71552094 58.01054169 39.71989441 59.14085388 C39.73657073 62.61499478 39.77420283 66.08853699 39.8125 69.5625 C39.82756109 71.93033011 39.84124699 74.2981694 39.85351562 76.66601562 C39.88643798 82.44421169 39.93652622 88.22206305 40 94 C43.87976814 91.45447333 47.36232427 88.84902699 50.8125 85.75 C61.78845163 76.73192082 74.84828351 72.33605166 88.46484375 68.91015625 C91.816733 68.17916877 91.816733 68.17916877 94 67 C93.67 46.87 93.34 26.74 93 6 C87.36041914 6 84.90878183 6.5409502 79.875 8.625 Z " fill="#FABF1F" transform="translate(246,120)"/>
<path d="M0 0 C4.83213335 4.3679629 6.92117355 9.5593257 7.39453125 16.01953125 C7.77464789 25.8673067 6.51321403 33.42731567 1.1875 41.875 C-5.45321653 48.32598177 -11.94654274 49.08032218 -21 49 C-28.35982775 47.91412377 -33.77625096 43.75042644 -38.375 38.0625 C-42.6308035 30.04194725 -43.33570701 21.23939852 -41.4296875 12.3359375 C-39.35456178 5.80475233 -36.77549672 0.93783867 -31 -3 C-19.83223646 -8.48235665 -9.87066365 -7.68224862 0 0 Z M-27 11 C-29.75793081 16.51586162 -29.79213838 22.83144648 -28.3125 28.75 C-26.48381807 31.88488331 -24.9365054 33.81324066 -22 36 C-17.5101988 36.94522131 -14.12263442 36.6345325 -10.125 34.375 C-5.65136718 29.37505744 -4.43597435 25.06312048 -4.64453125 18.46875 C-5.32790189 13.72270333 -7.54821675 10.60733146 -10.75 7.0625 C-17.44354062 3.90166137 -22.23612125 5.78241851 -27 11 Z " fill="#FAC01F" transform="translate(405,258)"/>
<path d="M0 0 C27.26101279 -0.93792025 27.26101279 -0.93792025 34.875 5.61328125 C40.64213364 11.86563046 42.56161033 17.95485377 42.5 26.3125 C42.49718018 27.15538574 42.49436035 27.99827148 42.49145508 28.86669922 C42.33122285 35.01508982 41.51822278 40.44359505 37 45 C36.01 45.33 35.02 45.66 34 46 C33.67 46.99 33.34 47.98 33 49 C23.70770107 55.27177738 10.63226877 53.3658052 0 53 C-1.59575716 35.2756973 -0.97999075 17.74483242 0 0 Z M12 13 C12 21.25 12 29.5 12 38 C14.64 38.99 17.28 39.98 20 41 C23.38837017 39.51894239 23.38837017 39.51894239 26 37 C26.598125 36.505 27.19625 36.01 27.8125 35.5 C30.68739136 31.86855828 30.22955193 27.43800395 30 23 C29.02436373 19.09745494 28.16839556 16.51238414 25 14 C22.34556617 13.17015395 22.34556617 13.17015395 19.4375 12.75 C18.46683594 12.57984375 17.49617188 12.4096875 16.49609375 12.234375 C14.00268649 11.77829381 14.00268649 11.77829381 12 13 Z " fill="#F7C641" transform="translate(143,253)"/>
<path d="M0 0 C3.64555558 -0.11755481 7.29061474 -0.18769812 10.9375 -0.25 C12.46987305 -0.30027344 12.46987305 -0.30027344 14.03320312 -0.3515625 C20.75194447 -0.43742501 26.27287776 0.26920234 32 4 C36.4932355 9.50421349 37.38561731 14.13819946 37.3671875 21.05859375 C36.78609446 25.71351993 34.63270289 29.19198332 32 33 C31.34 33 30.68 33 30 33 C30.24758057 33.49927002 30.49516113 33.99854004 30.75024414 34.51293945 C31.86462193 36.77455589 32.96366796 39.04329261 34.0625 41.3125 C34.45244141 42.09818359 34.84238281 42.88386719 35.24414062 43.69335938 C35.60830078 44.45068359 35.97246094 45.20800781 36.34765625 45.98828125 C36.85824585 47.03302612 36.85824585 47.03302612 37.37915039 48.09887695 C38 50 38 50 37 53 C33.04 53 29.08 53 25 53 C22.13965435 47.66068812 20.26869235 42.92056432 19 37 C16.69 37 14.38 37 12 37 C12.17273438 37.54269531 12.34546875 38.08539063 12.5234375 38.64453125 C13.09374085 41.46332566 12.90742837 43.82886687 12.625 46.6875 C12.53476562 47.66074219 12.44453125 48.63398438 12.3515625 49.63671875 C12 52 12 52 11 53 C9.14712498 53.07226502 7.29166122 53.0838122 5.4375 53.0625 C4.42558594 53.05347656 3.41367187 53.04445313 2.37109375 53.03515625 C1.19740234 53.01775391 1.19740234 53.01775391 0 53 C-0.16871999 46.41652191 -0.32851611 39.83287009 -0.48217773 33.24902344 C-0.53547136 31.01036705 -0.59079033 28.77175791 -0.64819336 26.53320312 C-0.73045772 23.31130152 -0.80538208 20.08929897 -0.87890625 16.8671875 C-0.90594131 15.87008759 -0.93297638 14.87298767 -0.96083069 13.84567261 C-1.06239146 9.09254704 -1.0226112 4.67577781 0 0 Z M11 13 C11.33 16.63 11.66 20.26 12 24 C16.22987022 25.01516885 18.39665827 25.26327639 22.4375 23.5 C25.39022441 21.15507643 25.39022441 21.15507643 25.375 17.25 C25.25125 16.1775 25.1275 15.105 25 14 C23.9275 13.505 22.855 13.01 21.75 12.5 C21.14671875 12.2215625 20.5434375 11.943125 19.921875 11.65625 C16.11335956 10.35578131 14.28083294 10.81277804 11 13 Z " fill="#FBBF19" transform="translate(418,253)"/>
<path d="M0 0 C4.29 0 8.58 0 13 0 C13.71625834 1.67126946 14.43190867 3.34280204 15.14453125 5.015625 C15.90950603 6.79008705 16.70289899 8.55223526 17.5 10.3125 C18.62757031 13.08444369 19.54063674 15.69646552 20.37109375 18.5546875 C21.98728975 24.01371643 23.75527343 29.41413934 25.5625 34.8125 C25.86607422 35.72708984 26.16964844 36.64167969 26.48242188 37.58398438 C27.64966366 41.08062372 28.81041083 44.53974333 30.21484375 47.94921875 C31 50 31 50 31 53 C26.71 53 22.42 53 18 53 C16.68 50.03 15.36 47.06 14 44 C8.72 44 3.44 44 -2 44 C-2.99 46.97 -3.98 49.94 -5 53 C-8.96 53 -12.92 53 -17 53 C-16.39390525 47.45024434 -15.00660229 42.54381254 -13.1640625 37.28515625 C-12.88404388 36.47058456 -12.60402527 35.65601288 -12.31552124 34.8167572 C-11.4245361 32.22993973 -10.52479236 29.64626533 -9.625 27.0625 C-9.02809418 25.33157035 -8.43173493 23.60045211 -7.8359375 21.86914062 C-5.30849061 14.54504881 -2.74554007 7.24565987 0 0 Z M5.375 21.0625 C3.60959982 23.10843755 3.60959982 23.10843755 4.3125 26.6875 C4.539375 27.780625 4.76625 28.87375 5 30 C6.65 29.67 8.3 29.34 10 29 C9.34 26.03 8.68 23.06 8 20 C6.81590692 19.90879177 6.81590692 19.90879177 5.375 21.0625 Z " fill="#FABF1D" transform="translate(299,253)"/>
<path d="M0 0 C0.02505615 1.11036621 0.0501123 2.22073242 0.07592773 3.36474609 C0.16994915 7.47603319 0.27018257 11.58714923 0.37231445 15.69824219 C0.4156833 17.47912603 0.45735694 19.26005198 0.49731445 21.04101562 C0.5549699 23.59778548 0.6186777 26.15434298 0.68359375 28.7109375 C0.70030624 29.50994476 0.71701874 30.30895203 0.73423767 31.13217163 C0.75392991 35.19806368 0.75392991 35.19806368 2 39 C3.97796508 39.65918283 3.97796508 39.65918283 6.3125 39.9375 C7.48232422 40.13666016 7.48232422 40.13666016 8.67578125 40.33984375 C11.19812401 40.19895878 11.19812401 40.19895878 13.12084961 37.98779297 C15.49188676 34.21791474 15.51082733 31.16266993 15.390625 26.85546875 C15.38496521 26.08568192 15.37930542 25.31589508 15.37347412 24.52278137 C15.35117872 22.07704057 15.30099875 19.6327939 15.25 17.1875 C15.229926 15.52410978 15.2116768 13.86069647 15.1953125 12.19726562 C15.15133684 8.13093942 15.08235979 4.06572256 15 0 C16.7699868 -0.19532961 18.54104279 -0.38098882 20.3125 -0.5625 C21.29863281 -0.66691406 22.28476563 -0.77132812 23.30078125 -0.87890625 C26 -1 26 -1 29 0 C28.9804443 5.22942501 28.92831976 10.45719879 28.84741211 15.68603516 C28.82437101 17.46068296 28.80986934 19.23546482 28.80444336 21.01025391 C28.72788935 41.93894289 28.72788935 41.93894289 21.3840332 49.70996094 C15.80456646 54.71080963 8.35411775 54 1.3125 54 C-3.48754198 52.55093072 -6.97226423 50.00187684 -10 46 C-13.37647054 39.08896022 -13.39658062 32.24098261 -13.25 24.6875 C-13.24484375 23.63626953 -13.2396875 22.58503906 -13.234375 21.50195312 C-13.1635351 14.29842116 -12.69081442 7.16920781 -12 0 C-7.62835032 -0.77146759 -4.31096276 -1.00514676 0 0 Z " fill="#FBBD18" transform="translate(203,253)"/>
<path d="M0 0 C5.35269897 3.01990623 8.70990246 5.72905801 10.5625 11.75 C10.5625 12.74 10.5625 13.73 10.5625 14.75 C9.12906 15.28190541 7.69054633 15.80015258 6.25 16.3125 C5.04923828 16.74755859 5.04923828 16.74755859 3.82421875 17.19140625 C1.5625 17.75 1.5625 17.75 -1.4375 16.75 C-2.18 15.925 -2.9225 15.1 -3.6875 14.25 C-7.0592675 11.18475682 -8.91793305 10.75 -13.4375 10.75 C-16.7550727 12.03178945 -18.13497699 13.3431587 -20.25 16.1875 C-22.10605289 21.75565867 -22.84341959 28.24510188 -20.60546875 33.82421875 C-19.15571747 36.06671792 -17.83808493 37.54970753 -15.4375 38.75 C-11.39536065 39.15182622 -11.39536065 39.15182622 -7.4375 38.75 C-4.56109384 36.37499209 -4.56109384 36.37499209 -2.4375 33.75 C-1.7775 33.75 -1.1175 33.75 -0.4375 33.75 C-0.4375 33.09 -0.4375 32.43 -0.4375 31.75 C3.69856764 32.35824524 7.02308648 33.49764594 10.5625 35.75 C11.75 38.125 11.75 38.125 11.5625 40.75 C9.5625 43.25 9.5625 43.25 6.5625 45.75 C6.04171875 46.19730469 5.5209375 46.64460938 4.984375 47.10546875 C-1.09522884 51.94926526 -7.33715777 53.02556556 -15 52.75 C-20.76804407 52.08663448 -24.29293898 49.67951304 -28.4375 45.75 C-28.95957031 45.28980469 -29.48164063 44.82960938 -30.01953125 44.35546875 C-35.42891363 38.23079614 -36.19305126 29.05541591 -35.953125 21.2578125 C-34.92360927 14.2539858 -31.81012945 7.49667384 -26.5 2.6875 C-17.79870789 -2.81739909 -9.5319126 -4.55507328 0 0 Z " fill="#FABF1C" transform="translate(270.4375,254.25)"/>
<path d="M0 0 C0 3.96 0 7.92 0 12 C-6.27 11.67 -12.54 11.34 -19 11 C-18.67 13.97 -18.34 16.94 -18 20 C-16.39318359 19.98259766 -16.39318359 19.98259766 -14.75390625 19.96484375 C-13.35677257 19.95546701 -11.95963701 19.94636669 -10.5625 19.9375 C-9.85544922 19.92912109 -9.14839844 19.92074219 -8.41992188 19.91210938 C-6.61306441 19.90346412 -4.80612397 19.94779989 -3 20 C-1.2661021 21.7338979 -1.58815159 24.13706236 -1.375 26.5 C-1.27960938 27.5003125 -1.18421875 28.500625 -1.0859375 29.53125 C-1.05757812 30.3459375 -1.02921875 31.160625 -1 32 C-2 33 -2 33 -5.59765625 33.09765625 C-7.08596867 33.0909822 -8.57426432 33.07902183 -10.0625 33.0625 C-11.20041992 33.05573242 -11.20041992 33.05573242 -12.36132812 33.04882812 C-14.24091871 33.0370068 -16.12046899 33.01907078 -18 33 C-18 35.31 -18 37.62 -18 40 C-16.22882813 39.80470703 -16.22882813 39.80470703 -14.421875 39.60546875 C-12.86470786 39.46476088 -11.30740819 39.32551422 -9.75 39.1875 C-8.97269531 39.09791016 -8.19539063 39.00832031 -7.39453125 38.91601562 C-3.40091105 38.59174732 -1.62721891 38.55825868 1.734375 40.92578125 C3 44 3 44 0 53 C-10.23 53 -20.46 53 -31 53 C-31.81305838 49.74776646 -32.1262254 47.52967371 -32.12939453 44.26318359 C-32.13254669 43.32896576 -32.13569885 42.39474792 -32.13894653 41.43222046 C-32.1369223 40.43107208 -32.13489807 39.42992371 -32.1328125 38.3984375 C-32.13424759 36.84922104 -32.13424759 36.84922104 -32.13571167 35.26870728 C-32.13639157 33.08831725 -32.13455054 30.90792519 -32.13037109 28.72753906 C-32.12500931 25.38081349 -32.13032812 22.03422146 -32.13671875 18.6875 C-32.13605815 16.5703122 -32.13477736 14.45312449 -32.1328125 12.3359375 C-32.13483673 11.33074066 -32.13686096 10.32554382 -32.13894653 9.28988647 C-32.13579437 8.36197296 -32.13264221 7.43405945 -32.12939453 6.47802734 C-32.12859894 5.65958344 -32.12780334 4.84113953 -32.12698364 3.99789429 C-32 2 -32 2 -31 0 C-26.58369908 -0.19688523 -22.16695334 -0.38088923 -17.75 -0.5625 C-16.49574219 -0.61857422 -15.24148437 -0.67464844 -13.94921875 -0.73242188 C-12.74394531 -0.78076172 -11.53867188 -0.82910156 -10.296875 -0.87890625 C-8.63156738 -0.94960327 -8.63156738 -0.94960327 -6.93261719 -1.02172852 C-4 -1 -4 -1 0 0 Z " fill="#FBBD17" transform="translate(136,253)"/>
<path d="M0 0 C7.10637881 4.09566107 12.43090032 10.23060525 14.796875 18.1171875 C15.91274297 26.16383539 14.49001211 32.46763419 9.796875 39.1171875 C5.8672861 43.47443186 1.72689506 47.16838429 -4.203125 48.1171875 C-9.86994716 48.0897231 -14.60155017 47.6669738 -19.203125 44.1171875 C-20.028125 43.6015625 -20.853125 43.0859375 -21.703125 42.5546875 C-27.16753901 37.22688384 -29.51440463 31.20922048 -29.828125 23.6171875 C-29.58537402 17.40864723 -27.98891263 12.10802866 -24.203125 7.1171875 C-23.213125 6.7871875 -22.223125 6.4571875 -21.203125 6.1171875 C-20.873125 5.1271875 -20.543125 4.1371875 -20.203125 3.1171875 C-14.43314704 -1.38731227 -6.82725794 -2.7357452 0 0 Z M-15.203125 16.1171875 C-17.28570582 20.00660673 -18.44935612 23.53427314 -17.765625 27.9296875 C-15.61117394 30.94591899 -13.48848143 32.41132936 -10.203125 34.1171875 C-6.09697887 34.80154519 -4.54339907 34.30979546 -0.890625 32.2421875 C1.89991598 30.03571324 2.58337253 29.34097484 3.17578125 25.9453125 C3.59590916 20.64312969 3.59590916 20.64312969 1.15234375 16.125 C-4.90436013 11.42796434 -9.09459883 10.78847318 -15.203125 16.1171875 Z " fill="#FBBF1E" transform="translate(287.203125,75.8828125)"/>
<path d="M0 0 C0 0.66 0 1.32 0 2 C0.66 2 1.32 2 2 2 C2 28.4 2 54.8 2 82 C1.34 82 0.68 82 0 82 C0 82.99 0 83.98 0 85 C-1.00417969 85.08636719 -2.00835937 85.17273438 -3.04296875 85.26171875 C-13.6363644 86.30179286 -22.68895743 88.76844206 -32.2421875 93.66015625 C-35 95 -35 95 -37 95 C-37 95.66 -37 96.32 -37 97 C-38.26607607 97.53229326 -39.53810412 98.05044544 -40.8125 98.5625 C-41.52019531 98.85253906 -42.22789062 99.14257812 -42.95703125 99.44140625 C-45 100 -45 100 -48 99 C-47.34 99 -46.68 99 -46 99 C-45.67 97.68 -45.34 96.36 -45 95 C-45.66 94.67 -46.32 94.34 -47 94 C-46.505 93.01 -46.505 93.01 -46 92 C-45.34 92 -44.68 92 -44 92 C-43.34 90.35 -42.68 88.7 -42 87 C-41.01 87.33 -40.02 87.66 -39 88 C-38.773125 87.39671875 -38.54625 86.7934375 -38.3125 86.171875 C-36.61605486 83.3646622 -34.9452884 82.63702535 -32 81.25 C-31.113125 80.82203125 -30.22625 80.3940625 -29.3125 79.953125 C-27 79 -27 79 -25 79 C-25 78.34 -25 77.68 -25 77 C-22.37605694 76.16320723 -19.75095616 75.33043058 -17.125 74.5 C-16.00544922 74.14228516 -16.00544922 74.14228516 -14.86328125 73.77734375 C-9.2265625 72 -9.2265625 72 -7 72 C-7.0707373 71.35272949 -7.14147461 70.70545898 -7.21435547 70.03857422 C-8.07081488 61.22562194 -8.15289394 52.47296514 -8.13037109 43.62841797 C-8.12502431 41.13633093 -8.13034012 38.64442525 -8.13671875 36.15234375 C-8.14022644 26.71877374 -7.84320126 17.40198221 -7 8 C-8.65 8 -10.3 8 -12 8 C-12.33 8.66 -12.66 9.32 -13 10 C-13 9.34 -13 8.68 -13 8 C-13.66 8 -14.32 8 -15 8 C-15.625 6.125 -15.625 6.125 -16 4 C-11.51179636 -0.48820364 -5.94325078 -0.20493968 0 0 Z " fill="#FCC017" transform="translate(347,115)"/>
<path d="M0 0 C12.54 0 25.08 0 38 0 C38.495 4.455 38.495 4.455 39 9 C39.495 10.485 39.495 10.485 40 12 C36.58860997 13.09651823 33.79344419 12.94215473 30.25 12.5625 C29.26515625 12.46066406 28.2803125 12.35882813 27.265625 12.25390625 C26.51796875 12.17011719 25.7703125 12.08632813 25 12 C25.00785522 13.8097229 25.00785522 13.8097229 25.01586914 15.65600586 C25.03391611 20.11563378 25.04543089 24.57525846 25.05493164 29.03491211 C25.05997256 30.96818585 25.06680519 32.90145576 25.07543945 34.8347168 C25.08751565 37.60726872 25.09323057 40.37977041 25.09765625 43.15234375 C25.10281754 44.02213364 25.10797882 44.89192352 25.11329651 45.78807068 C25.11349185 47.85905814 25.06208168 49.92994324 25 52 C24.67 52.33 24.34 52.66 24 53 C20.04 53 16.08 53 12 53 C12 39.14 12 25.28 12 11 C11.01 11.33 10.02 11.66 9 12 C6.3071504 12.17812624 3.70558632 12.08727698 1 12 C0.67 11.67 0.34 11.34 0 11 C0 7.37 0 3.74 0 0 Z " fill="#FBBE19" transform="translate(325,253)"/>
<path d="M0 0 C0.66 1.32 1.32 2.64 2 4 C3.98 4 5.96 4 8 4 C8.33 4.66 8.66 5.32 9 6 C9.66 5.67 10.32 5.34 11 5 C11 5.66 11 6.32 11 7 C11.66 7.33 12.32 7.66 13 8 C13 8.66 13 9.32 13 10 C10 12 10 12 6 12 C6 11.34 6 10.68 6 10 C4.68 10 3.36 10 2 10 C2.00222061 10.87474472 2.00444122 11.74948944 2.00672913 12.65074158 C2.02672978 20.87675346 2.04197298 29.10275723 2.05181217 37.3287878 C2.05704056 41.55831371 2.0641374 45.7878196 2.07543945 50.01733398 C2.08626991 54.09568543 2.09227717 58.17401757 2.09487724 62.25238228 C2.09673121 63.81177639 2.10035127 65.3711694 2.10573006 66.93055534 C2.11294262 69.10729162 2.11399085 71.28394714 2.11352539 73.46069336 C2.115746 74.70201523 2.11796661 75.9433371 2.12025452 77.22227478 C2 80 2 80 1 81 C2.32 81 3.64 81 5 81 C4.34 82.32 3.68 83.64 3 85 C-2.625 85.25 -2.625 85.25 -6 83 C-7.09411135 79.71766595 -7.1269361 77.3032809 -7.12939453 73.84790039 C-7.13254669 72.57970963 -7.13569885 71.31151886 -7.13894653 70.00489807 C-7.13715645 68.61915045 -7.13510542 67.23340314 -7.1328125 65.84765625 C-7.1334862 64.42663049 -7.13445677 63.00560484 -7.13571167 61.58457947 C-7.13718602 58.60626122 -7.13504284 55.62797297 -7.13037109 52.6496582 C-7.12467915 48.83534127 -7.12795108 45.02109478 -7.13394356 41.20678043 C-7.13756068 38.27196219 -7.13640519 35.33716059 -7.13381577 32.40234184 C-7.13314942 30.99614898 -7.13396472 29.5899546 -7.13629532 28.1837635 C-7.13884009 26.21634068 -7.13427254 24.24891256 -7.12939453 22.28149414 C-7.12859894 21.16247208 -7.12780334 20.04345001 -7.12698364 18.89051819 C-7.01806266 16.41115875 -6.72257141 14.36112166 -6 12 C-5.34 12 -4.68 12 -4 12 C-4.66 11.01 -5.32 10.02 -6 9 C-5.625 5.8125 -5.625 5.8125 -5 3 C-4.01 3 -3.02 3 -2 3 C-2 2.34 -2 1.68 -2 1 C-1.34 0.67 -0.68 0.34 0 0 Z " fill="#FBBE16" transform="translate(218,112)"/>
<path d="M0 0 C7.26 0 14.52 0 22 0 C22 0.66 22 1.32 22 2 C22.99 1.67 23.98 1.34 25 1 C27.6875 2.4375 27.6875 2.4375 30 4 C29.67 4.99 29.34 5.98 29 7 C28.34 7 27.68 7 27 7 C26.34 8.65 25.68 10.3 25 12 C22.48916886 10.74458443 22.12874554 9.49936512 21 7 C20.505 7.33 20.01 7.66 19.5 8 C17 9 17 9 9 9 C9.33 18.57 9.66 28.14 10 38 C13.3 38.66 16.6 39.32 20 40 C19.01 42.31 18.02 44.62 17 47 C17.66 47.33 18.32 47.66 19 48 C16 50 16 50 0 50 C0 33.5 0 17 0 0 Z " fill="#FCBD16" transform="translate(145,255)"/>
<path d="M0 0 C2.12438339 -0.08078641 4.2496323 -0.13909141 6.375 -0.1875 C7.55835938 -0.22230469 8.74171875 -0.25710937 9.9609375 -0.29296875 C11.46527344 -0.14794922 11.46527344 -0.14794922 13 0 C15.48534239 3.72801358 15.65747809 6.68052183 15 11 C13.90026553 13.81627654 12.54606949 16.40481193 11 19 C10.34 19 9.68 19 9 19 C9 17.35 9 15.7 9 14 C8.01 14 7.02 14 6 14 C6 15.98 6 17.96 6 20 C5.34 20.33 4.68 20.66 4 21 C3.08719862 23.57437581 3.08719862 23.57437581 2.375 26.5625 C2.11460937 27.57441406 1.85421875 28.58632813 1.5859375 29.62890625 C1.39257812 30.41136719 1.19921875 31.19382812 1 32 C2.32 31.01 3.64 30.02 5 29 C5.79953138 32.28696233 6.09658936 33.71023192 5 37 C3.02 37 1.04 37 -1 37 C-1 36.34 -1 35.68 -1 35 C-1.66 35 -2.32 35 -3 35 C-3 35.99 -3 36.98 -3 38 C-2.34 38 -1.68 38 -1 38 C-1 42 -1 42 -2.375 43.4375 C-2.91125 43.953125 -3.4475 44.46875 -4 45 C-5.19027984 47.59915538 -5.19027984 47.59915538 -6 50 C-7.65 50 -9.3 50 -11 50 C-13.75376574 46.11233071 -12.72415092 42.41262096 -12 38 C-9.4113179 24.86646029 -4.74269152 12.48149384 0 0 Z " fill="#FBBD16" transform="translate(299,253)"/>
<path d="M0 0 C4.79232787 2.85193146 9.90657016 6.2183066 11.57421875 11.734375 C11.82566692 16.17662598 11.8408296 20.59908697 11.76171875 25.046875 C8.01171875 27.046875 8.01171875 27.046875 5.76171875 27.046875 C5.76171875 24.736875 5.76171875 22.426875 5.76171875 20.046875 C5.10171875 20.046875 4.44171875 20.046875 3.76171875 20.046875 C3.76171875 19.056875 3.76171875 18.066875 3.76171875 17.046875 C2.11350631 16.01674223 0.44668173 15.01572872 -1.23828125 14.046875 C-1.23828125 13.386875 -1.23828125 12.726875 -1.23828125 12.046875 C-5.52828125 11.716875 -9.81828125 11.386875 -14.23828125 11.046875 C-14.56828125 12.036875 -14.89828125 13.026875 -15.23828125 14.046875 C-16.23828125 15.046875 -16.23828125 15.046875 -19.23828125 16.046875 C-18.90828125 17.366875 -18.57828125 18.686875 -18.23828125 20.046875 C-18.89828125 20.046875 -19.55828125 20.046875 -20.23828125 20.046875 C-19.80515625 21.243125 -19.37203125 22.439375 -18.92578125 23.671875 C-18.23810608 26.30094607 -17.93918175 27.47727516 -19.21875 29.9140625 C-20.61328125 31.546875 -20.61328125 31.546875 -23.23828125 34.046875 C-26.23828125 33.046875 -26.23828125 33.046875 -27.42578125 30.984375 C-28.4747018 27.19212378 -28.37148057 23.97625498 -28.23828125 20.046875 C-27.57828125 20.046875 -26.91828125 20.046875 -26.23828125 20.046875 C-26.18929688 19.45519531 -26.1403125 18.86351563 -26.08984375 18.25390625 C-25.67371258 13.85583028 -25.1886253 10.07758603 -23.23828125 6.046875 C-22.57828125 6.046875 -21.91828125 6.046875 -21.23828125 6.046875 C-20.90828125 5.056875 -20.57828125 4.066875 -20.23828125 3.046875 C-14.48419128 -1.44522134 -6.776456 -2.88561128 0 0 Z " fill="#FBBE17" transform="translate(287.23828125,75.953125)"/>
<path d="M0 0 C1.18266172 3.54798516 1.1476074 6.7612774 1.14526367 10.453125 C1.14862228 11.20952271 1.1519809 11.96592041 1.15544128 12.74523926 C1.16494441 15.24684285 1.16689392 17.74837948 1.16796875 20.25 C1.17118123 21.98730497 1.1745453 23.72460967 1.17805481 25.46191406 C1.18404409 29.10352201 1.18589486 32.74510622 1.18530273 36.38671875 C1.185201 41.05761869 1.19886587 45.728367 1.21607494 50.39923096 C1.22718044 53.98682355 1.22922241 57.57437928 1.22869301 61.1619873 C1.22987483 62.88440474 1.23430788 64.60682308 1.24202538 66.32922363 C1.25179822 68.73521637 1.2489583 71.14087717 1.24291992 73.546875 C1.24853943 74.26073364 1.25415894 74.97459229 1.25994873 75.71008301 C1.23654107 79.37145639 1.09066541 80.86400189 -1 84 C-1.66 84 -2.32 84 -3 84 C-3 83.34 -3 82.68 -3 82 C-2.34 82 -1.68 82 -1 82 C-1 55.6 -1 29.2 -1 2 C-1.66 2 -2.32 2 -3 2 C-3 1.34 -3 0.68 -3 0 C-10.68636026 1.35225523 -10.68636026 1.35225523 -18 4 C-18 5.32 -18 6.64 -18 8 C-15.36 8 -12.72 8 -10 8 C-10 12.62 -10 17.24 -10 22 C-10.33 22 -10.66 22 -11 22 C-11 18.37 -11 14.74 -11 11 C-18.01340441 12.12715428 -23.99781364 14.58911243 -30.4140625 17.52368164 C-33.58988854 18.97245956 -36.59711835 20.22889215 -40 21 C-40.66 19.02 -41.32 17.04 -42 15 C-43.41750563 15.11509661 -44.83401169 15.24253658 -46.25 15.375 C-47.03890625 15.44460937 -47.8278125 15.51421875 -48.640625 15.5859375 C-51.085877 16.01507113 -52.84836903 16.78600638 -55 18 C-47.96095092 7.31531963 -30.06737505 2.49726781 -18.0625 -0.375 C-17.36495605 -0.54273926 -16.66741211 -0.71047852 -15.94873047 -0.88330078 C-4.97859687 -3.31906458 -4.97859687 -3.31906458 0 0 Z " fill="#F9C332" transform="translate(350,115)"/>
<path d="M0 0 C2.97 0 5.94 0 9 0 C9 12.21 9 24.42 9 37 C8.34 37 7.68 37 7 37 C7.185625 37.61875 7.37125 38.2375 7.5625 38.875 C8 41 8 41 7 43 C4.9375 43.625 4.9375 43.625 3 44 C3.33 45.32 3.66 46.64 4 48 C3.67 47.34 3.34 46.68 3 46 C1.00239695 45.65259077 -0.99787771 45.32033957 -3 45 C-3.99 44.34 -4.98 43.68 -6 43 C-5.57367279 42.59398056 -5.14734558 42.18796112 -4.70809937 41.76963806 C-0.92574978 37.84416676 0.6832259 35.19599734 0.67977905 29.71815491 C0.64881134 28.96682785 0.61784363 28.21550079 0.5859375 27.44140625 C0.57744781 26.65225327 0.56895813 25.86310028 0.56021118 25.05003357 C0.52687457 22.55274384 0.451646 20.05879751 0.375 17.5625 C0.34487428 15.860073 0.31750305 14.15759489 0.29296875 12.45507812 C0.22714991 8.30211574 0.12377745 4.15162274 0 0 Z " fill="#FBBD15" transform="translate(220,254)"/>
<path d="M0 0 C0 11.88 0 23.76 0 36 C-1.65 36 -3.3 36 -5 36 C-4.505 36.61875 -4.01 37.2375 -3.5 37.875 C-2 40 -2 40 -2 42 C-3.66611905 42.042721 -5.33382885 42.04063832 -7 42 C-8 41 -8 41 -8.11352539 37.21459961 C-8.11336622 35.52717271 -8.10766917 33.83974095 -8.09765625 32.15234375 C-8.0962413 31.2659169 -8.09482635 30.37949005 -8.09336853 29.46620178 C-8.08775215 26.62326746 -8.07519691 23.78041069 -8.0625 20.9375 C-8.05748711 19.01497509 -8.05292384 17.09244896 -8.04882812 15.16992188 C-8.03777741 10.44658451 -8.02050183 5.72330542 -8 1 C-5 0 -5 0 0 0 Z " fill="#FDBE14" transform="translate(201,254)"/>
<path d="M0 0 C0 3.96 0 7.92 0 12 C-5.94 11.67 -11.88 11.34 -18 11 C-18 10.67 -18 10.34 -18 10 C-13.05 10 -8.1 10 -3 10 C-3 8.35 -3 6.7 -3 5 C-3.66 5 -4.32 5 -5 5 C-5 4.34 -5 3.68 -5 3 C-12.92 2.67 -20.84 2.34 -29 2 C-28.67 18.17 -28.34 34.34 -28 51 C-19.42 51 -10.84 51 -2 51 C-1.67 49.02 -1.34 47.04 -1 45 C-1.66 45 -2.32 45 -3 45 C-3.495 42.525 -3.495 42.525 -4 40 C0 40 0 40 1.9375 41.4375 C3 44 3 44 0 53 C-10.23 53 -20.46 53 -31 53 C-31.81305838 49.74776646 -32.1262254 47.52967371 -32.12939453 44.26318359 C-32.13254669 43.32896576 -32.13569885 42.39474792 -32.13894653 41.43222046 C-32.1369223 40.43107208 -32.13489807 39.42992371 -32.1328125 38.3984375 C-32.13424759 36.84922104 -32.13424759 36.84922104 -32.13571167 35.26870728 C-32.13639157 33.08831725 -32.13455054 30.90792519 -32.13037109 28.72753906 C-32.12500931 25.38081349 -32.13032812 22.03422146 -32.13671875 18.6875 C-32.13605815 16.5703122 -32.13477736 14.45312449 -32.1328125 12.3359375 C-32.13483673 11.33074066 -32.13686096 10.32554382 -32.13894653 9.28988647 C-32.13579437 8.36197296 -32.13264221 7.43405945 -32.12939453 6.47802734 C-32.12859894 5.65958344 -32.12780334 4.84113953 -32.12698364 3.99789429 C-32 2 -32 2 -31 0 C-26.58369908 -0.19688523 -22.16695334 -0.38088923 -17.75 -0.5625 C-16.49574219 -0.61857422 -15.24148437 -0.67464844 -13.94921875 -0.73242188 C-12.74394531 -0.78076172 -11.53867188 -0.82910156 -10.296875 -0.87890625 C-8.63156738 -0.94960327 -8.63156738 -0.94960327 -6.93261719 -1.02172852 C-4 -1 -4 -1 0 0 Z " fill="#F7BD23" transform="translate(136,253)"/>
<path d="M0 0 C2.31 0.33 4.62 0.66 7 1 C7 1.66 7 2.32 7 3 C7.66 3 8.32 3 9 3 C9.78688445 5.77723925 10.11949924 8.22610077 10.09765625 11.109375 C10.09443359 11.86347656 10.09121094 12.61757813 10.08789062 13.39453125 C10.07951172 14.17183594 10.07113281 14.94914062 10.0625 15.75 C10.05798828 16.54277344 10.05347656 17.33554687 10.04882812 18.15234375 C10.03708565 20.10159508 10.01915146 22.05080738 10 24 C9.01 23.67 8.02 23.34 7 23 C7.33 23.66 7.66 24.32 8 25 C8.25860135 29.05142119 8.30441554 30.54337669 6 34 C5.01 34 4.02 34 3 34 C2.525625 34.474375 2.05125 34.94875 1.5625 35.4375 C-0.25103592 37.25103592 -1.51141113 37.57093295 -4 38 C-4.495 36.515 -4.495 36.515 -5 35 C-3.02 34.505 -3.02 34.505 -1 34 C-2.98 34 -4.96 34 -7 34 C-6.67 32.68 -6.34 31.36 -6 30 C-5.01 30 -4.02 30 -3 30 C-3 29.34 -3 28.68 -3 28 C-2.34 28 -1.68 28 -1 28 C-0.07363451 22.79025648 0.58838999 17.56778039 1.1875 12.3125 C1.29513672 11.45849609 1.40277344 10.60449219 1.51367188 9.72460938 C1.60583984 8.90412109 1.69800781 8.08363281 1.79296875 7.23828125 C1.8808667 6.49618408 1.96876465 5.75408691 2.05932617 4.98950195 C2.16609988 2.6753587 2.16609988 2.6753587 0 0 Z " fill="#FCBD16" transform="translate(173,263)"/>
<path d="M0 0 C0.33 0 0.66 0 1 0 C1.33 1.98 1.66 3.96 2 6 C2.66 6 3.32 6 4 6 C3.67 4.02 3.34 2.04 3 0 C5 0 5 0 6.60668945 1.55175781 C8.50304449 4.88391978 8.33994508 7.35113386 8.29296875 11.171875 C8.28872391 11.8542926 8.28447906 12.53671021 8.28010559 13.23980713 C8.26336972 15.41028004 8.22572959 17.57980979 8.1875 19.75 C8.17244646 21.22524697 8.15875922 22.70050855 8.14648438 24.17578125 C8.11348377 27.78415844 8.06173767 31.3919871 8 35 C6.68 35 5.36 35 4 35 C4 35.66 4 36.32 4 37 C2.68 37 1.36 37 0 37 C0 24.79 0 12.58 0 0 Z " fill="#FCBD13" transform="translate(339,268)"/>
<path d="M0 0 C3.70826651 -0.05837668 7.4164137 -0.09372277 11.125 -0.125 C12.69507813 -0.15013672 12.69507813 -0.15013672 14.296875 -0.17578125 C19.59269336 -0.20929909 24.0571059 -0.17213685 29 2 C29 2.33 29 2.66 29 3 C20.09 2.67 11.18 2.34 2 2 C2 18.5 2 35 2 52 C4.64 52 7.28 52 10 52 C9.67 48.04 9.34 44.08 9 40 C8.34 41.32 7.68 42.64 7 44 C6.01 44 5.02 44 4 44 C4 43.01 4 42.02 4 41 C4.66 41 5.32 41 6 41 C6.66 39.02 7.32 37.04 8 35 C12.29 35 16.58 35 21 35 C23 41 23 41 23 45 C23.66 45 24.32 45 25 45 C25 47.31 25 49.62 25 52 C23.19969878 49.29954818 22.06622934 46.93322119 20.875 43.9375 C20.52179688 43.05964844 20.16859375 42.18179688 19.8046875 41.27734375 C19 39 19 39 19 37 C16.69 37 14.38 37 12 37 C12.17273438 37.54269531 12.34546875 38.08539063 12.5234375 38.64453125 C13.09374085 41.46332566 12.90742837 43.82886687 12.625 46.6875 C12.53476562 47.66074219 12.44453125 48.63398438 12.3515625 49.63671875 C12 52 12 52 11 53 C9.14712498 53.07226502 7.29166122 53.0838122 5.4375 53.0625 C4.42558594 53.05347656 3.41367187 53.04445313 2.37109375 53.03515625 C1.19740234 53.01775391 1.19740234 53.01775391 0 53 C-0.16871999 46.41652191 -0.32851611 39.83287009 -0.48217773 33.24902344 C-0.53547136 31.01036705 -0.59079033 28.77175791 -0.64819336 26.53320312 C-0.73045772 23.31130152 -0.80538208 20.08929897 -0.87890625 16.8671875 C-0.90594131 15.87008759 -0.93297638 14.87298767 -0.96083069 13.84567261 C-1.06239146 9.09254704 -1.0226112 4.67577781 0 0 Z " fill="#F6BF2F" transform="translate(418,253)"/>
<path d="M0 0 C0.33 1.32 0.66 2.64 1 4 C2.65 3.01 4.3 2.02 6 1 C5.67 4.3 5.34 7.6 5 11 C6.32 10.01 7.64 9.02 9 8 C9.79953138 11.28696233 10.09658936 12.71023192 9 16 C7.02 16 5.04 16 3 16 C3 15.34 3 14.68 3 14 C2.34 14 1.68 14 1 14 C1 14.99 1 15.98 1 17 C1.66 17 2.32 17 3 17 C3 21 3 21 1.625 22.4375 C1.08875 22.953125 0.5525 23.46875 0 24 C-1.19027984 26.59915538 -1.19027984 26.59915538 -2 29 C-3.65 29 -5.3 29 -7 29 C-9.32323323 25.72014133 -9.09370561 22.97851193 -8.484375 19.09765625 C-7.50988993 14.87750722 -6.106059 11.106059 -3 8 C-2.30643577 5.67451993 -1.63850788 3.34119555 -1 1 C-0.67 0.67 -0.34 0.34 0 0 Z " fill="#FCBC14" transform="translate(295,274)"/>
<path d="M0 0 C0.33 12.87 0.66 25.74 1 39 C0.01 38.34 -0.98 37.68 -2 37 C-2.2667616 34.23371085 -2.34804189 31.69380369 -2.29296875 28.9296875 C-2.28872391 28.13345978 -2.28447906 27.33723206 -2.28010559 26.51687622 C-2.26328834 23.96924271 -2.22563179 21.42239511 -2.1875 18.875 C-2.17245705 17.14975099 -2.15876796 15.42448961 -2.14648438 13.69921875 C-2.11337501 9.46584218 -2.06157285 5.23305441 -2 1 C-4.64 1.33 -7.28 1.66 -10 2 C-9.93128514 7.66043437 -9.84339936 13.3201185 -9.73754883 18.97998047 C-9.70424631 20.90632831 -9.67623111 22.83277499 -9.65356445 24.75927734 C-9.62011576 27.5248435 -9.56780664 30.28949953 -9.51171875 33.0546875 C-9.50532883 33.9193161 -9.4989389 34.7839447 -9.49235535 35.67477417 C-9.46079947 38.35263663 -9.46079947 38.35263663 -9 42 C-8.01 42.66 -7.02 43.32 -6 44 C-6.66 45.32 -7.32 46.64 -8 48 C-13.88878067 41.30820379 -13.28286067 33.21929578 -13.1875 24.8125 C-13.18685547 23.75224609 -13.18621094 22.69199219 -13.18554688 21.59960938 C-13.14583388 14.358607 -12.70301981 7.20575083 -12 0 C-7.41466617 -0.80917656 -4.66958927 -0.93391785 0 0 Z " fill="#F7CD47" transform="translate(203,253)"/>
<path d="M0 0 C-0.0195557 5.22942501 -0.07168024 10.45719879 -0.15258789 15.68603516 C-0.17562899 17.46068296 -0.19013066 19.23546482 -0.19555664 21.01025391 C-0.26774552 40.74558382 -0.26774552 40.74558382 -6 48 C-6.99 48.495 -6.99 48.495 -8 49 C-8.66 47.35 -9.32 45.7 -10 44 C-8.35 44 -6.7 44 -5 44 C-5 42.02 -5 40.04 -5 38 C-4.34 38 -3.68 38 -3 38 C-3 25.79 -3 13.58 -3 1 C-5.97 1 -8.94 1 -12 1 C-11.95399658 2.06959961 -11.90799316 3.13919922 -11.8605957 4.24121094 C-11.69388072 8.21399588 -11.54782327 12.18731942 -11.40795898 16.16113281 C-11.34457573 17.88009953 -11.27561016 19.59886993 -11.20092773 21.31738281 C-11.09447348 23.78940773 -11.00819442 26.2614462 -10.92578125 28.734375 C-10.88842361 29.50118591 -10.85106598 30.26799683 -10.81257629 31.05804443 C-10.72004557 34.35049056 -10.77864831 36.59623195 -12.37963867 39.51660156 C-14 41 -14 41 -16 41 C-16.66 42.32 -17.32 43.64 -18 45 C-18.99 45 -19.98 45 -21 45 C-21 44.34 -21 43.68 -21 43 C-22.65 42.67 -24.3 42.34 -26 42 C-26 41.34 -26 40.68 -26 40 C-24.046875 40.16276042 -22.09375 40.32552083 -20.140625 40.48828125 C-16.74374185 39.71344476 -15.83468731 37.89039064 -14 35 C-13.65712789 32.1454975 -13.53010507 29.6959425 -13.609375 26.85546875 C-13.61503479 26.08568192 -13.62069458 25.31589508 -13.62652588 24.52278137 C-13.64882128 22.07704057 -13.69900125 19.6327939 -13.75 17.1875 C-13.770074 15.52410978 -13.7883232 13.86069647 -13.8046875 12.19726562 C-13.84866316 8.13093942 -13.91764021 4.06572256 -14 0 C-9.02936879 -0.91297308 -4.97063121 -0.91297308 0 0 Z " fill="#F8D05D" transform="translate(232,253)"/>
<path d="M0 0 C7.97600467 1.09506621 14.59476524 3.06269731 20 9.3125 C20.33 9.869375 20.66 10.42625 21 11 C18.03 10.67 15.06 10.34 12 10 C12.185625 10.928125 12.37125 11.85625 12.5625 12.8125 C13 16 13 16 12 19 C12.66 19 13.32 19 14 19 C14 24.94 14 30.88 14 37 C12.68 37.66 11.36 38.32 10 39 C10.33 38.21625 10.66 37.4325 11 36.625 C12.66044358 30.60589202 13.26166043 24.64184998 10.1875 19 C8.04903954 16.06725423 6.59535801 14.32334216 2.95703125 13.5859375 C2.24933594 13.51632812 1.54164063 13.44671875 0.8125 13.375 C-0.445625 13.25125 -1.70375 13.1275 -3 13 C-2.38125 12.938125 -1.7625 12.87625 -1.125 12.8125 C1.23148258 12.18256473 1.23148258 12.18256473 2.1875 9.6875 C2.85904466 7.46623689 3.49667412 5.26496646 4 3 C2.35 2.67 0.7 2.34 -1 2 C-0.67 1.34 -0.34 0.68 0 0 Z " fill="#F9C12D" transform="translate(387,251)"/>
<path d="M0 0 C0.33 0.66 0.66 1.32 1 2 C-3.71570796 6.94026549 -3.71570796 6.94026549 -7.6875 7.125 C-8.450625 7.08375 -9.21375 7.0425 -10 7 C-10 7.99 -10 8.98 -10 10 C-8.68 10.33 -7.36 10.66 -6 11 C-7.32 12.32 -8.64 13.64 -10 15 C-9.32453125 14.84402344 -8.6490625 14.68804687 -7.953125 14.52734375 C-7.06109375 14.33269531 -6.1690625 14.13804687 -5.25 13.9375 C-4.36828125 13.74027344 -3.4865625 13.54304688 -2.578125 13.33984375 C-0.01320972 13.00174128 1.57091639 13.18841365 4 14 C-1.65875419 17.7725028 -9.38891415 17.45590388 -15.9375 16.3125 C-19.33580707 14.85608268 -22.02159771 13.17931875 -25 11 C-20.25 7.125 -20.25 7.125 -18 6 C-18 6.66 -18 7.32 -18 8 C-16.35 8 -14.7 8 -13 8 C-13 7.01 -13 6.02 -13 5 C-13.66 5 -14.32 5 -15 5 C-15 4.34 -15 3.68 -15 3 C-14.25234375 3.03480469 -13.5046875 3.06960938 -12.734375 3.10546875 C-11.74953125 3.13253906 -10.7646875 3.15960938 -9.75 3.1875 C-8.77546875 3.22230469 -7.8009375 3.25710938 -6.796875 3.29296875 C-3.62531258 2.96075202 -2.32959693 2.11327721 0 0 Z " fill="#FAC125" transform="translate(396,290)"/>
<path d="M0 0 C0.99 0.495 0.99 0.495 2 1 C2 14.2 2 27.4 2 41 C6.455 40.505 6.455 40.505 11 40 C10.99476318 38.99622314 10.98952637 37.99244629 10.98413086 36.95825195 C10.9659826 33.22160743 10.95453213 29.48496679 10.94506836 25.74829102 C10.94005058 24.13337549 10.93323489 22.51846448 10.92456055 20.90356445 C10.91238286 18.57762535 10.90674605 16.2517465 10.90234375 13.92578125 C10.89718246 13.20787918 10.89202118 12.48997711 10.88670349 11.75032043 C10.88629124 8.03709768 11.11055784 4.61008878 12 1 C12.33 1 12.66 1 13 1 C13.02464705 6.67830078 13.04283462 12.35657069 13.05493164 18.03491211 C13.05997256 19.96818585 13.06680519 21.90145576 13.07543945 23.8347168 C13.08751565 26.60726872 13.09323057 29.37977041 13.09765625 32.15234375 C13.10281754 33.02213364 13.10797882 33.89192352 13.11329651 34.78807068 C13.11349185 36.85905814 13.06208168 38.92994324 13 41 C12.505 41.495 12.505 41.495 12 42 C8.04 42 4.08 42 0 42 C0 28.14 0 14.28 0 0 Z " fill="#F5CD5F" transform="translate(337,264)"/>
<path d="M0 0 C1.32 0 2.64 0 4 0 C4 0.66 4 1.32 4 2 C3.01 2 2.02 2 1 2 C0.92572162 5.34252724 0.93453047 7.8035914 2 11 C1.34 11 0.68 11 0 11 C-0.02315665 19.81428243 -0.04093208 28.62855441 -0.05181217 37.4428606 C-0.05703371 41.53556708 -0.06411817 45.62825276 -0.07543945 49.72094727 C-0.08629418 53.66963086 -0.09228234 57.61829444 -0.09487724 61.56699181 C-0.09672682 63.07449344 -0.1003385 64.58199395 -0.10573006 66.08948708 C-0.11297477 68.19876103 -0.11398949 70.30795196 -0.11352539 72.41723633 C-0.115746 73.61858719 -0.11796661 74.81993805 -0.12025452 76.05769348 C-0.13367978 79.06099873 -0.13367978 79.06099873 1 82 C2.80438416 82.80406503 2.80438416 82.80406503 4.9375 83.1875 C6.00291016 83.42533203 6.00291016 83.42533203 7.08984375 83.66796875 C9.00527568 84.05708538 9.00527568 84.05708538 11 84 C11 84.66 11 85.32 11 86 C12.9490625 86.185625 12.9490625 86.185625 14.9375 86.375 C17.15234375 86.5859375 17.15234375 86.5859375 19 87 C19.495 87.99 19.495 87.99 20 89 C17.08014262 88.77169839 14.16621546 88.51836339 11.25 88.25 C10.425 88.188125 9.6 88.12625 8.75 88.0625 C7.95078125 87.98515625 7.1515625 87.9078125 6.328125 87.828125 C5.5949707 87.7652832 4.86181641 87.70244141 4.10644531 87.63769531 C1.08368509 86.72259915 -0.05935374 85.49852319 -2 83 C-2.3845838 80.27944285 -2.52772798 77.96662926 -2.48583984 75.24975586 C-2.48963654 74.47370499 -2.49343323 73.69765411 -2.49734497 72.89808655 C-2.50474585 70.3365926 -2.48337735 67.77623662 -2.4609375 65.21484375 C-2.45855291 63.43412916 -2.45764779 61.65341203 -2.4581604 59.87269592 C-2.45503331 56.14275336 -2.43847386 52.41319543 -2.41162109 48.68334961 C-2.37761669 43.8992145 -2.36999326 39.11550153 -2.37151146 34.33125973 C-2.370968 30.65527813 -2.36000511 26.97938904 -2.34550858 23.30343819 C-2.33913914 21.5391669 -2.33520134 19.77488512 -2.33372116 18.01060295 C-2.32939106 15.54716959 -2.31189738 13.08418643 -2.29052734 10.62084961 C-2.29143372 9.88986053 -2.29234009 9.15887146 -2.29327393 8.4057312 C-2.24645893 4.72047365 -2.10093103 3.15139655 0 0 Z " fill="#FCD25E" transform="translate(212,113)"/>
<path d="M0 0 C0.66 0.33 1.32 0.66 2 1 C2 21.46 2 41.92 2 63 C4.97 63.66 7.94 64.32 11 65 C11 65.33 11 65.66 11 66 C8.03 66 5.06 66 2 66 C2 67.32 2 68.64 2 70 C0.35 70 -1.3 70 -3 70 C-2.01 69.01 -2.01 69.01 -1 68 C-0.7131849 65.09188621 -0.7131849 65.09188621 -0.78881836 61.63842773 C-0.7901326 60.98625275 -0.79144684 60.33407776 -0.7928009 59.66213989 C-0.79930194 57.50247801 -0.81973651 55.34316809 -0.83984375 53.18359375 C-0.84611177 51.68669519 -0.85135265 50.189792 -0.85560608 48.69288635 C-0.86892368 44.74928213 -0.89336634 40.80583208 -0.92095947 36.86230469 C-0.96404554 30.54598254 -0.9937341 24.22961774 -1.0170002 17.91319466 C-1.02726234 15.7011413 -1.04430777 13.48921131 -1.06199646 11.27720642 C-1.06882125 9.92886466 -1.07543005 8.58052178 -1.08178711 7.23217773 C-1.09004013 6.05018295 -1.09829315 4.86818817 -1.10679626 3.65037537 C-1 1 -1 1 0 0 Z " fill="#F4C54C" transform="translate(220,124)"/>
<path d="M0 0 C0 0.99 0 1.98 0 3 C0.99 3 1.98 3 3 3 C3.33 3.99 3.66 4.98 4 6 C4.845625 6.433125 5.69125 6.86625 6.5625 7.3125 C7.366875 7.869375 8.17125 8.42625 9 9 C9.3125 12.1875 9.3125 12.1875 9 15 C11.49064888 15.68707555 13.37886292 16 16 16 C15.67 17.32 15.34 18.64 15 20 C13.02 20 11.04 20 9 20 C8.34 21.32 7.68 22.64 7 24 C7 22.02 7 20.04 7 18 C6.34 18 5.68 18 5 18 C4.67 16.68 4.34 15.36 4 14 C2.68 13.67 1.36 13.34 0 13 C0 11.68 0 10.36 0 9 C-0.639375 8.731875 -1.27875 8.46375 -1.9375 8.1875 C-4 7 -4 7 -5 4 C-4.34 4 -3.68 4 -3 4 C-3 3.34 -3 2.68 -3 2 C-3.99 2 -4.98 2 -6 2 C-6 1.34 -6 0.68 -6 0 C-3.50907189 -1.24546405 -2.58919267 -0.7767578 0 0 Z " fill="#FBBE12" transform="translate(268,136)"/>
<path d="M0 0 C1.86790938 2.54714915 2 3.80869 2 7 C0.8553125 7.1546875 0.8553125 7.1546875 -0.3125 7.3125 C-3.02954673 7.75593985 -3.02954673 7.75593985 -4.5 9.5625 C-6 11 -6 11 -8.5 11.125 C-9.325 11.08375 -10.15 11.0425 -11 11 C-11.99 11.33 -12.98 11.66 -14 12 C-14 11.34 -14 10.68 -14 10 C-14.66 10 -15.32 10 -16 10 C-15.77581061 6.07668566 -15.04047908 5.03871912 -12.125 2.25 C-7.70452956 -0.93273872 -5.22893669 -1.44630164 0 0 Z " fill="#FBBD17" transform="translate(308,130)"/>
<path d="M0 0 C1.32 0.33 2.64 0.66 4 1 C4.33 2.32 4.66 3.64 5 5 C5.66 5 6.32 5 7 5 C8.28094194 10.91724901 8.16184205 16.79768799 8.16796875 22.8203125 C8.17129715 23.95653046 8.17462555 25.09274841 8.17805481 26.26339722 C8.18310595 28.65882971 8.1854637 31.05426921 8.18530273 33.44970703 C8.18749637 37.11893184 8.20569105 40.7878593 8.22460938 44.45703125 C8.2275422 46.78645731 8.22952774 49.11588479 8.23046875 51.4453125 C8.23765427 52.54328156 8.24483978 53.64125061 8.25224304 54.77249146 C8.24916641 55.79390228 8.24608978 56.81531311 8.24291992 57.86767578 C8.24434494 58.76447052 8.24576996 59.66126526 8.24723816 60.5852356 C7.98431906 63.15315505 7.29704999 64.78837713 6 67 C5.01 66.34 4.02 65.68 3 65 C3.33 64.34 3.66 63.68 4 63 C4.33 63.33 4.66 63.66 5 64 C5.12738946 56.49286132 5.21459823 48.98600418 5.2746582 41.47802734 C5.29971127 38.92714013 5.33376328 36.37632405 5.37719727 33.82568359 C5.43825144 30.14663073 5.46630348 26.46853179 5.48828125 22.7890625 C5.51408768 21.65949127 5.5398941 20.52992004 5.56648254 19.36611938 C5.56914554 11.74803304 4.01550314 6.4820596 0 0 Z " fill="#F6DA72" transform="translate(268,149)"/>
<path d="M0 0 C12.54 0 25.08 0 38 0 C38.495 4.455 38.495 4.455 39 9 C39.495 10.485 39.495 10.485 40 12 C38.68 12.33 37.36 12.66 36 13 C36.33 12.01 36.66 11.02 37 10 C36.505 9.505 36.505 9.505 36 9 C36 6.69 36 4.38 36 2 C24.78 2 13.56 2 2 2 C2 4.64 2 7.28 2 10 C5.3 10 8.6 10 12 10 C7.95807022 12.69461986 5.7948504 12.23200889 1 12 C0.67 11.67 0.34 11.34 0 11 C0 7.37 0 3.74 0 0 Z " fill="#F5C655" transform="translate(325,253)"/>
<path d="M0 0 C0.33 0 0.66 0 1 0 C1 11.22 1 22.44 1 34 C10.24 33.67 19.48 33.34 29 33 C29.33 31.02 29.66 29.04 30 27 C29.34 27 28.68 27 28 27 C27.505 24.525 27.505 24.525 27 22 C31 22 31 22 32.9375 23.4375 C34 26 34 26 31 35 C20.77 35 10.54 35 0 35 C-2.74759106 24.00963578 -0.90303533 11.22343907 0 0 Z " fill="#F5CF4B" transform="translate(105,271)"/>
<path d="M0 0 C3.70826651 -0.05837668 7.4164137 -0.09372277 11.125 -0.125 C12.69507813 -0.15013672 12.69507813 -0.15013672 14.296875 -0.17578125 C19.59269336 -0.20929909 24.0571059 -0.17213685 29 2 C29 2.33 29 2.66 29 3 C20.09 2.67 11.18 2.34 2 2 C1.67 18.83 1.34 35.66 1 53 C0.67 53 0.34 53 0 53 C-0.16871999 46.41652191 -0.32851611 39.83287009 -0.48217773 33.24902344 C-0.53547136 31.01036705 -0.59079033 28.77175791 -0.64819336 26.53320312 C-0.73045772 23.31130152 -0.80538208 20.08929897 -0.87890625 16.8671875 C-0.90594131 15.87008759 -0.93297638 14.87298767 -0.96083069 13.84567261 C-1.06239146 9.09254704 -1.0226112 4.67577781 0 0 Z " fill="#F7CD5E" transform="translate(418,253)"/>
<path d="M0 0 C0.66 0 1.32 0 2 0 C1.67 17.16 1.34 34.32 1 52 C0.34 52 -0.32 52 -1 52 C-1.19368635 45.23764519 -1.37107291 38.4750039 -1.53710938 31.71191406 C-1.59552381 29.41103428 -1.65767531 27.11024622 -1.72363281 24.80957031 C-1.8177681 21.50342508 -1.89847833 18.19718342 -1.9765625 14.890625 C-2.00875885 13.86132874 -2.0409552 12.83203247 -2.0741272 11.77154541 C-2.10438492 10.33050446 -2.10438492 10.33050446 -2.13525391 8.86035156 C-2.15746002 8.01651917 -2.17966614 7.17268677 -2.20254517 6.30328369 C-1.98011476 3.77387096 -1.27250575 2.17686173 0 0 Z " fill="#F6D263" transform="translate(285,160)"/>
<path d="M0 0 C4.29 0 8.58 0 13 0 C13.66 1.65 14.32 3.3 15 5 C14.34 5 13.68 5 13 5 C13 4.34 13 3.68 13 3 C7.555 2.505 7.555 2.505 2 2 C1.731875 2.804375 1.46375 3.60875 1.1875 4.4375 C0.795625 5.613125 0.40375 6.78875 0 8 C-0.24105469 8.74636719 -0.48210937 9.49273437 -0.73046875 10.26171875 C-0.98441406 11.04160156 -1.23835938 11.82148438 -1.5 12.625 C-1.7371875 13.35976563 -1.974375 14.09453125 -2.21875 14.8515625 C-3 17 -3 17 -4.07421875 19.02734375 C-5.25094903 21.23390465 -5.25094903 21.23390465 -5.3125 24.9375 C-5.66043681 28.51723452 -6.0310059 29.03629959 -8.5625 32 C-9.366875 32.66 -10.17125 33.32 -11 34 C-8.62141038 22.25571375 -4.19108118 11.1894899 0 0 Z " fill="#F5C84F" transform="translate(299,253)"/>
<path d="M0 0 C0.433125 0.66 0.86625 1.32 1.3125 2 C2.1478125 2.99 2.1478125 2.99 3 4 C3.99 4 4.98 4 6 4 C6.144375 5.11375 6.28875 6.2275 6.4375 7.375 C6.78372035 10.82142047 6.78372035 10.82142047 8 13 C6.35 14.98 4.7 16.96 3 19 C0 18 0 18 -1.1875 15.9375 C-2.23642055 12.14524878 -2.13319932 8.92937998 -2 5 C-1.34 5 -0.68 5 0 5 C0 3.35 0 1.7 0 0 Z " fill="#FBBE14" transform="translate(261,91)"/>
<path d="M0 0 C0 0.66 0 1.32 0 2 C-2.97 2 -5.94 2 -9 2 C-8.95399658 3.06959961 -8.90799316 4.13919922 -8.8605957 5.24121094 C-8.69388072 9.21399588 -8.54782327 13.18731942 -8.40795898 17.16113281 C-8.34457573 18.88009953 -8.27561016 20.59886993 -8.20092773 22.31738281 C-8.09447348 24.78940773 -8.00819442 27.2614462 -7.92578125 29.734375 C-7.88842361 30.50118591 -7.85106598 31.26799683 -7.81257629 32.05804443 C-7.72004557 35.35049056 -7.77864831 37.59623195 -9.37963867 40.51660156 C-11 42 -11 42 -13 42 C-13.66 43.32 -14.32 44.64 -15 46 C-15.99 46 -16.98 46 -18 46 C-18 45.34 -18 44.68 -18 44 C-19.65 43.67 -21.3 43.34 -23 43 C-23 42.34 -23 41.68 -23 41 C-21.046875 41.16276042 -19.09375 41.32552083 -17.140625 41.48828125 C-13.74374185 40.71344476 -12.83468731 38.89039064 -11 36 C-10.65712789 33.1454975 -10.53010507 30.6959425 -10.609375 27.85546875 C-10.61503479 27.08568192 -10.62069458 26.31589508 -10.62652588 25.52278137 C-10.64882128 23.07704057 -10.69900125 20.6327939 -10.75 18.1875 C-10.770074 16.52410978 -10.7883232 14.86069647 -10.8046875 13.19726562 C-10.84866316 9.13093942 -10.91764021 5.06572256 -11 1 C-7.26513121 0.4254048 -3.78706732 0 0 0 Z " fill="#F1C95A" transform="translate(229,252)"/>
<path d="M0 0 C0.90608819 2.95636073 0.99209244 5.03267392 0.4375 8.0625 C-0.43262325 12.04785655 -0.43262325 12.04785655 2 15 C4.05925139 15.72382467 4.05925139 15.72382467 6 16 C6.2165625 14.824375 6.2165625 14.824375 6.4375 13.625 C7 11 7 11 8 9 C9.65 9 11.3 9 13 9 C12.01 9.33 11.02 9.66 10 10 C8.97718482 12.09719872 8.97718482 12.09719872 8.3125 14.5625 C7.879375 16.026875 7.44625 17.49125 7 19 C3.04 19 -0.92 19 -5 19 C-4.39297368 12.3227105 -2.22368606 6.29872004 0 0 Z " fill="#F4C740" transform="translate(287,287)"/>
<path d="M0 0 C1.22589844 0.01353516 1.22589844 0.01353516 2.4765625 0.02734375 C3.41628906 0.04474609 3.41628906 0.04474609 4.375 0.0625 C2.20604995 1.16309249 0.06104192 2.19267774 -2.1875 3.125 C-5.84493973 6.03219569 -6.73271585 9.56949395 -7.625 14.0625 C-7.75710475 16.93170862 -7.75710475 16.93170862 -6.625 19.0625 C-3.3144436 21.57852287 1.39567785 22.1339915 5.375 23.0625 C5.375 23.7225 5.375 24.3825 5.375 25.0625 C3.065 25.0625 0.755 25.0625 -1.625 25.0625 C-1.625 24.4025 -1.625 23.7425 -1.625 23.0625 C-2.3675 23.041875 -3.11 23.02125 -3.875 23 C-7.29069628 21.83555809 -8.28766365 20.13813572 -9.91015625 16.984375 C-10.91416227 14.28508012 -10.90219085 11.9037062 -10.625 9.0625 C-9.965 9.0625 -9.305 9.0625 -8.625 9.0625 C-8.955 7.7425 -9.285 6.4225 -9.625 5.0625 C-8.965 4.7325 -8.305 4.4025 -7.625 4.0625 C-7.295 3.0725 -6.965 2.0825 -6.625 1.0625 C-4.21954362 -0.14022819 -2.67503047 -0.03821472 0 0 Z " fill="#F8C94C" transform="translate(277.625,86.9375)"/>
<path d="M0 0 C3.65297187 4.87062916 3.54218791 7.34756857 3.5 13.1875 C3.49718018 14.03940918 3.49436035 14.89131836 3.49145508 15.76904297 C3.33198617 21.95453975 2.54822999 27.41333426 -2 32 C-3.485 32.495 -3.485 32.495 -5 33 C-5.33 33.99 -5.66 34.98 -6 36 C-6.66 36 -7.32 36 -8 36 C-8.495 34.515 -8.495 34.515 -9 33 C-8.34 33 -7.68 33 -7 33 C-6.67 32.01 -6.34 31.02 -6 30 C-5.01 30 -4.02 30 -3 30 C-1.85647084 27.71294169 -1.89665561 26.40735238 -1.9375 23.875 C-1.958125 22.59625 -1.97875 21.3175 -2 20 C-1.34 20 -0.68 20 0 20 C0 13.4 0 6.8 0 0 Z " fill="#F4C850" transform="translate(182,266)"/>
<path d="M0 0 C0.33 0 0.66 0 1 0 C1.02464705 5.67830078 1.04283462 11.35657069 1.05493164 17.03491211 C1.05997256 18.96818585 1.06680519 20.90145576 1.07543945 22.8347168 C1.08751565 25.60726872 1.09323057 28.37977041 1.09765625 31.15234375 C1.10281754 32.02213364 1.10797882 32.89192352 1.11329651 33.78807068 C1.11349185 35.85905814 1.06208168 37.92994324 1 40 C0 41 0 41 -3.0625 41.0625 C-4.031875 41.041875 -5.00125 41.02125 -6 41 C-5.67 40.34 -5.34 39.68 -5 39 C-3.68 39 -2.36 39 -1 39 C-1.00523682 37.99622314 -1.01047363 36.99244629 -1.01586914 35.95825195 C-1.0340174 32.22160743 -1.04546787 28.48496679 -1.05493164 24.74829102 C-1.05994942 23.13337549 -1.06676511 21.51846448 -1.07543945 19.90356445 C-1.08761714 17.57762535 -1.09325395 15.2517465 -1.09765625 12.92578125 C-1.10281754 12.20787918 -1.10797882 11.48997711 -1.11329651 10.75032043 C-1.11370876 7.03709768 -0.88944216 3.61008878 0 0 Z " fill="#F5DD7F" transform="translate(349,265)"/>
<path d="M0 0 C0 3.96 0 7.92 0 12 C-5.94 11.67 -11.88 11.34 -18 11 C-18 10.67 -18 10.34 -18 10 C-9.585 9.505 -9.585 9.505 -1 9 C-1.33 6.36 -1.66 3.72 -2 1 C-11.24 1 -20.48 1 -30 1 C-30 4.3 -30 7.6 -30 11 C-32.30441554 7.54337669 -32.25860135 6.05142119 -32 2 C-31.67 1.34 -31.34 0.68 -31 0 C-26.58369908 -0.19688523 -22.16695334 -0.38088923 -17.75 -0.5625 C-16.49574219 -0.61857422 -15.24148437 -0.67464844 -13.94921875 -0.73242188 C-12.74394531 -0.78076172 -11.53867188 -0.82910156 -10.296875 -0.87890625 C-8.63156738 -0.94960327 -8.63156738 -0.94960327 -6.93261719 -1.02172852 C-4 -1 -4 -1 0 0 Z " fill="#F5CD47" transform="translate(136,253)"/>
<path d="M0 0 C0.99 0 1.98 0 3 0 C3.8125 2.1875 3.8125 2.1875 4 5 C0.05424886 9.93218893 -5.24166803 14.34803063 -11.4375 15.8125 C-12.283125 15.874375 -13.12875 15.93625 -14 16 C-13.67 15.01 -13.34 14.02 -13 13 C-11.35 13 -9.7 13 -8 13 C-8 11.35 -8 9.7 -8 8 C-7.34 7.67 -6.68 7.34 -6 7 C-6.33 6.01 -6.66 5.02 -7 4 C-6.01 4 -5.02 4 -4 4 C-4 5.65 -4 7.3 -4 9 C-3.01 8.34 -2.02 7.68 -1 7 C-0.26393501 3.43230448 -0.26393501 3.43230448 0 0 Z " fill="#FBBB1C" transform="translate(278,290)"/>
<path d="M0 0 C2.47923801 -0.02685095 4.9581884 -0.04676547 7.4375 -0.0625 C8.14455078 -0.07087891 8.85160156 -0.07925781 9.58007812 -0.08789062 C11.38693559 -0.09653588 13.19387603 -0.05220011 15 0 C16.7338979 1.7338979 16.41184841 4.13706236 16.625 6.5 C16.72039062 7.5003125 16.81578125 8.500625 16.9140625 9.53125 C16.94242188 10.3459375 16.97078125 11.160625 17 12 C16 13 16 13 12.40234375 13.09765625 C10.91403133 13.0909822 9.42573568 13.07902183 7.9375 13.0625 C6.79958008 13.05573242 6.79958008 13.05573242 5.63867188 13.04882812 C3.75908129 13.0370068 1.87953101 13.01907078 0 13 C0 12.67 0 12.34 0 12 C1.98 12 3.96 12 6 12 C6 11.34 6 10.68 6 10 C6.66 10 7.32 10 8 10 C8 8.68 8 7.36 8 6 C9.32 6.33 10.64 6.66 12 7 C11.67 8.32 11.34 9.64 11 11 C12.32 11.33 13.64 11.66 15 12 C15 8.7 15 5.4 15 2 C10.05 2 5.1 2 0 2 C0 1.34 0 0.68 0 0 Z " fill="#F9C93A" transform="translate(118,273)"/>
<path d="M0 0 C1.125 3.75 1.125 3.75 0 6 C-0.2322646 8.71262116 -0.41936235 11.40773126 -0.5625 14.125 C-0.60568359 14.87910156 -0.64886719 15.63320313 -0.69335938 16.41015625 C-0.7994832 18.27321888 -0.90025001 20.13658524 -1 22 C-0.34 22 0.32 22 1 22 C1 23.98 1 25.96 1 28 C1.66 28 2.32 28 3 28 C3 28.99 3 29.98 3 31 C3.66 31 4.32 31 5 31 C5.33 32.65 5.66 34.3 6 36 C1.04007805 33.1067122 -0.54500952 29.45243048 -2.2734375 24.2109375 C-4.14515479 15.93915464 -4.27008619 7.47265083 0 0 Z " fill="#F3C348" transform="translate(238,265)"/>
<path d="M0 0 C0.33 0 0.66 0 1 0 C1 4.29 1 8.58 1 13 C-1.64 13 -4.28 13 -7 13 C-7.3125 10.1875 -7.3125 10.1875 -7 7 C-4.625 5.375 -4.625 5.375 -2 4 C-0.67206394 1.93299345 -0.67206394 1.93299345 0 0 Z " fill="#FBBD14" transform="translate(427,292)"/>
<path d="M0 0 C1.31625194 2.63250388 0.74813658 3.80179056 0.0625 6.625 C-0.13214844 7.44226563 -0.32679688 8.25953125 -0.52734375 9.1015625 C-0.68332031 9.72804688 -0.83929688 10.35453125 -1 11 C-1.66 11 -2.32 11 -3 11 C-2.48041715 15.37934119 -1.94324258 19.68803391 -1 24 C-0.34 24 0.32 24 1 24 C1.268125 24.969375 1.53625 25.93875 1.8125 26.9375 C2.204375 27.948125 2.59625 28.95875 3 30 C3.99 30.33 4.98 30.66 6 31 C7.39712274 32.95597184 8.73779907 34.95436401 10 37 C3.5180968 34.11915413 -0.07088802 30.29373831 -3.046875 23.91796875 C-5.29829655 17.02529705 -5.23073942 9.73003681 -2 3.1875 C-1.34 2.135625 -0.68 1.08375 0 0 Z " fill="#F5CD58" transform="translate(262,85)"/>
<path d="M0 0 C1.65 0 3.3 0 5 0 C5 4.62 5 9.24 5 14 C4.67 14 4.34 14 4 14 C4 10.37 4 6.74 4 3 C-3.22495155 4.2456813 -9.43716881 6.80547042 -16.05859375 9.85546875 C-17.02925781 10.23316406 -17.99992187 10.61085937 -19 11 C-19.66 10.67 -20.32 10.34 -21 10 C-20.67 9.01 -20.34 8.02 -20 7 C-15.68964518 5.65743047 -12.52218352 5 -8 5 C-7.67 4.01 -7.34 3.02 -7 2 C-4.69 2 -2.38 2 0 2 C0 1.34 0 0.68 0 0 Z " fill="#F9D650" transform="translate(335,123)"/>
<path d="M0 0 C2.1519437 3.22791555 2.20086443 4.28400809 2 8 C4.97 8.495 4.97 8.495 8 9 C7.79375 8.38125 7.5875 7.7625 7.375 7.125 C7.25125 6.42375 7.1275 5.7225 7 5 C9 3 9 3 11.625 2.875 C12.40875 2.91625 13.1925 2.9575 14 3 C10.25 8.75 10.25 8.75 8 11 C5.64453125 11.40625 5.64453125 11.40625 3 11 C0.76171875 9.03125 0.76171875 9.03125 -1.3125 6.5 C-2.00988281 5.6646875 -2.70726562 4.829375 -3.42578125 3.96875 C-3.94527344 3.3190625 -4.46476562 2.669375 -5 2 C-4.360625 1.855625 -3.72125 1.71125 -3.0625 1.5625 C-1.02454854 1.18992819 -1.02454854 1.18992819 0 0 Z " fill="#F7CA47" transform="translate(275,225)"/>
<path d="M0 0 C3.68754757 0.49831724 5.60490662 1.10067643 8 4 C7.67 4.99 7.34 5.98 7 7 C6.34 6.67 5.68 6.34 5 6 C5 6.66 5 7.32 5 8 C2.69 8.33 0.38 8.66 -2 9 C-2.66 7.68 -3.32 6.36 -4 5 C-2.68 3.35 -1.36 1.7 0 0 Z " fill="#FBBE15" transform="translate(249,124)"/>
<path d="M0 0 C1.7109375 1.515625 1.7109375 1.515625 3 3 C2.37996094 2.95359375 1.75992187 2.9071875 1.12109375 2.859375 C-6.24351668 2.55921621 -12.53603971 4.00566853 -19.51953125 6.125 C-22.84510313 6.96105847 -25.59098047 7.16705762 -29 7 C-25.70436235 4.80290823 -22.93267223 3.99608118 -19.125 2.9375 C-17.91070312 2.59589844 -16.69640625 2.25429687 -15.4453125 1.90234375 C-10.17286993 0.52146593 -5.48236674 -0.40610124 0 0 Z " fill="#F7CF59" transform="translate(347,113)"/>
<path d="M0 0 C1.32 0 2.64 0 4 0 C4.66 0.99 5.32 1.98 6 3 C8.05003955 4.19232613 8.05003955 4.19232613 10 5 C9.67 5.99 9.34 6.98 9 8 C9.66 8 10.32 8 11 8 C11.33094807 12.13685092 11.19262449 14.59993375 9.375 18.375 C7 21 7 21 3.75 21.875 C2.8425 21.91625 1.935 21.9575 1 22 C2.28965176 20.62437146 3.62689293 19.29233607 5 18 C5.66 18 6.32 18 7 18 C7.33 14.04 7.66 10.08 8 6 C6.68 5.34 5.36 4.68 4 4 C2.62913085 2.70529025 1.28659163 1.37849103 0 0 Z " fill="#F6CE56" transform="translate(282,88)"/>
<path d="M0 0 C3.37462715 0.54723683 5.08235 1.0549 8 3 C8.40843923 5.71203652 8.13336867 8.2437142 8 11 C7.01 11.495 7.01 11.495 6 12 C5.34 10.35 4.68 8.7 4 7 C2.68 7 1.36 7 0 7 C0 6.34 0 5.68 0 5 C-0.99 4.67 -1.98 4.34 -3 4 C-2.67 3.34 -2.34 2.68 -2 2 C-1.34 2 -0.68 2 0 2 C0 1.34 0 0.68 0 0 Z " fill="#F9BE1A" transform="translate(270,286)"/>
<path d="M0 0 C0.33 0.66 0.66 1.32 1 2 C4.465 1.505 4.465 1.505 8 1 C9.09658936 4.28976808 8.79953138 5.71303767 8 9 C5.36 9 2.72 9 0 9 C-0.87890625 2.84765625 -0.87890625 2.84765625 -1 1 C-0.67 0.67 -0.34 0.34 0 0 Z " fill="#FCBC17" transform="translate(443,296)"/>
<path d="M0 0 C4.11065292 1.73580092 5.40996422 3.61465556 7.23828125 7.58203125 C9.07872499 13.42426034 8.78899507 19.06038712 6.5 24.6875 C6.005 25.450625 5.51 26.21375 5 27 C4.67 27 4.34 27 4 27 C4 25.02 4 23.04 4 21 C4.66 21 5.32 21 6 21 C5.88544319 19.08268082 5.75793742 17.1661325 5.625 15.25 C5.55539062 14.18265625 5.48578125 13.1153125 5.4140625 12.015625 C5.02185226 9.15915046 4.62370003 7.36375378 3 5 C2.01 4.67 1.02 4.34 0 4 C0 2.68 0 1.36 0 0 Z " fill="#F6CF5F" transform="translate(447,256)"/>
<path d="M0 0 C0.495 0.639375 0.99 1.27875 1.5 1.9375 C4.98806387 4.81515269 7.53461041 4.70230736 12 5 C12 5.66 12 6.32 12 7 C13.299375 7.12375 14.59875 7.2475 15.9375 7.375 C18.15234375 7.5859375 18.15234375 7.5859375 20 8 C20.33 8.66 20.66 9.32 21 10 C18.06121273 9.71840367 15.12439587 9.42518615 12.1875 9.125 C11.35412109 9.04636719 10.52074219 8.96773437 9.66210938 8.88671875 C8.85966797 8.80292969 8.05722656 8.71914062 7.23046875 8.6328125 C6.49207764 8.55949707 5.75368652 8.48618164 4.99291992 8.41064453 C3 8 3 8 0 6 C-0.1875 2.875 -0.1875 2.875 0 0 Z " fill="#F6C746" transform="translate(211,192)"/>
<path d="M0 0 C0.99 0 1.98 0 3 0 C3.98248524 4.0527516 4.08159574 7.83861737 4 12 C2 9 2 9 1 7 C0.34 7 -0.32 7 -1 7 C-0.95875 8.258125 -0.9175 9.51625 -0.875 10.8125 C-0.7609626 14.29064073 -0.94074319 14.91111478 -3 18 C-3.66 18 -4.32 18 -5 18 C-3.8 7.8 -3.8 7.8 0 4 C-0.33 3.34 -0.66 2.68 -1 2 C-0.67 1.34 -0.34 0.68 0 0 Z " fill="#F8C532" transform="translate(305,267)"/>
<path d="M0 0 C5.22552717 3.15027309 5.22552717 3.15027309 6.62109375 5.94140625 C4.64109375 5.28140625 2.66109375 4.62140625 0.62109375 3.94140625 C0.62109375 3.28140625 0.62109375 2.62140625 0.62109375 1.94140625 C-1.60698784 1.83286642 -3.83660557 1.75557318 -6.06640625 1.69140625 C-7.30777344 1.645 -8.54914063 1.59859375 -9.828125 1.55078125 C-13.9577764 2.00508833 -15.33807059 3.23607435 -18.37890625 5.94140625 C-19.36890625 5.94140625 -20.35890625 5.94140625 -21.37890625 5.94140625 C-20.25713713 2.57609888 -19.92402552 2.32023146 -16.94140625 0.75390625 C-11.37818167 -1.81373586 -5.70640083 -2.53930152 0 0 Z " fill="#F8D46E" transform="translate(287.37890625,76.05859375)"/>
<path d="M0 0 C1.32 0 2.64 0 4 0 C4 0.66 4 1.32 4 2 C6.31 1.34 8.62 0.68 11 0 C11.433125 0.639375 11.86625 1.27875 12.3125 1.9375 C13.91239177 4.26746003 13.91239177 4.26746003 17 5 C17.33 5.99 17.66 6.98 18 8 C12.72 6.68 7.44 5.36 2 4 C2 3.34 2 2.68 2 2 C1.34 2 0.68 2 0 2 C0 1.34 0 0.68 0 0 Z " fill="#FAC63E" transform="translate(220,122)"/>
<path d="M0 0 C3.00720266 4.510804 2.68834469 8.71351279 2 14 C0.22517535 19.02411902 -1.51136392 23.00757594 -6 26 C-5.01 23.03 -4.02 20.06 -3 17 C-2.34 17 -1.68 17 -1 17 C-0.67 11.39 -0.34 5.78 0 0 Z " fill="#F6D369" transform="translate(300,91)"/>
<path d="M0 0 C0.99 0 1.98 0 3 0 C3.33 0.99 3.66 1.98 4 3 C-1.55731462 7.40752539 -9.1742822 7.44709458 -16 6.75 C-19 6 -19 6 -22 3 C-16.72 3.66 -11.44 4.32 -6 5 C-6 4.34 -6 3.68 -6 3 C-3.69 3 -1.38 3 1 3 C0.67 2.01 0.34 1.02 0 0 Z " fill="#F6CD4C" transform="translate(220,300)"/>
<path d="M0 0 C1.31626692 3.61973402 2 6.09567131 2 10 C2.66 10 3.32 10 4 10 C4 12.31 4 14.62 4 17 C2.19969878 14.29954818 1.06622934 11.93322119 -0.125 8.9375 C-0.47820312 8.05964844 -0.83140625 7.18179687 -1.1953125 6.27734375 C-2 4 -2 4 -2 2 C-4.31 2 -6.62 2 -9 2 C-8.67 3.32 -8.34 4.64 -8 6 C-8.66 5.67 -9.32 5.34 -10 5 C-10 3.68 -10 2.36 -10 1 C-3.375 0 -3.375 0 0 0 Z " fill="#F5CA4E" transform="translate(439,288)"/>
<path d="M0 0 C0.433125 0.495 0.86625 0.99 1.3125 1.5 C2.99740483 3.33218192 2.99740483 3.33218192 6 3 C6.33 4.32 6.66 5.64 7 7 C3.62902617 8.49821059 1.79557881 9 -2 9 C-1.835 8.236875 -1.67 7.47375 -1.5 6.6875 C-0.90854604 3.96403764 -0.90854604 3.96403764 -1 1 C-0.67 0.67 -0.34 0.34 0 0 Z " fill="#F8BE14" transform="translate(272,261)"/>
<path d="M0 0 C1.43655854 -0.08131463 2.8744483 -0.13933559 4.3125 -0.1875 C5.51326172 -0.23970703 5.51326172 -0.23970703 6.73828125 -0.29296875 C9.47851584 0.06198392 10.29171079 0.89366282 12 3 C11.40832031 2.89300781 10.81664062 2.78601563 10.20703125 2.67578125 C6.41939424 2.1011479 3.76772232 1.71627654 0.125 3.0625 C-4.45444654 7.23787773 -5.40065938 12.00659384 -6 18 C-6.33 18 -6.66 18 -7 18 C-7 14.37 -7 10.74 -7 7 C-6.34 7 -5.68 7 -5 7 C-5 5.35 -5 3.7 -5 2 C-3.68 2 -2.36 2 -1 2 C-0.67 1.34 -0.34 0.68 0 0 Z " fill="#F7CE59" transform="translate(254,263)"/>
<path d="M0 0 C1.51553092 3.97450493 0.49888623 7.20481149 -0.4375 11.25 C-0.72496094 12.51328125 -1.01242187 13.7765625 -1.30859375 15.078125 C-1.53675781 16.04234375 -1.76492188 17.0065625 -2 18 C0.97 18 3.94 18 7 18 C7 18.33 7 18.66 7 19 C3.04 19 -0.92 19 -5 19 C-4.39297368 12.3227105 -2.22368606 6.29872004 0 0 Z " fill="#F6CA5A" transform="translate(287,287)"/>
<path d="M0 0 C2.88329583 3.255334 4.63331529 5.59978344 5 10 C4 11 4 11 1.27734375 11.09765625 C-0.37587891 11.08025391 -0.37587891 11.08025391 -2.0625 11.0625 C-3.16722656 11.05347656 -4.27195312 11.04445313 -5.41015625 11.03515625 C-6.69212891 11.01775391 -6.69212891 11.01775391 -8 11 C-8 10.67 -8 10.34 -8 10 C-5.36 10 -2.72 10 0 10 C-0.185625 9.38125 -0.37125 8.7625 -0.5625 8.125 C-1 6 -1 6 0 4 C0 2.68 0 1.36 0 0 Z " fill="#F6C84E" transform="translate(451,295)"/>
<path d="M0 0 C3.35914922 2.23943282 3.81681636 3.26842083 5 7 C5 7.99 5 8.98 5 10 C3.56656 10.53190541 2.12804633 11.05015258 0.6875 11.5625 C-0.11300781 11.85253906 -0.91351563 12.14257812 -1.73828125 12.44140625 C-4 13 -4 13 -7 12 C-8.6875 9.4375 -8.6875 9.4375 -10 7 C-8.02 7.99 -8.02 7.99 -6 9 C-6 9.66 -6 10.32 -6 11 C-3.03 10.34 -0.06 9.68 3 9 C2.01 6.03 1.02 3.06 0 0 Z " fill="#F6D36E" transform="translate(276,259)"/>
<path d="M0 0 C1.65 0 3.3 0 5 0 C5 0.66 5 1.32 5 2 C4.01 2 3.02 2 2 2 C2 7.61 2 13.22 2 19 C-0.52736265 13.9452747 -1.09850972 11.35126709 -0.5625 5.8125 C-0.46066406 4.72582031 -0.35882813 3.63914062 -0.25390625 2.51953125 C-0.17011719 1.68808594 -0.08632812 0.85664063 0 0 Z " fill="#F6C540" transform="translate(191,253)"/>
<path d="M0 0 C1.46366342 0.39753821 2.9208935 0.81881384 4.375 1.25 C5.18710937 1.48203125 5.99921875 1.7140625 6.8359375 1.953125 C9.49811935 3.24096748 9.79661613 4.38394811 11 7 C11.99 7.33 12.98 7.66 14 8 C14.33 9.65 14.66 11.3 15 13 C4.46431765 5.28295475 4.46431765 5.28295475 0 1 C0 0.67 0 0.34 0 0 Z " fill="#FACB57" transform="translate(255,213)"/>
<path d="M0 0 C0.33 0.66 0.66 1.32 1 2 C-3.64948355 6.87088753 -3.64948355 6.87088753 -7.04296875 7.1953125 C-7.75066406 7.17210937 -8.45835937 7.14890625 -9.1875 7.125 C-11.0746875 7.063125 -11.0746875 7.063125 -13 7 C-13 6.34 -13 5.68 -13 5 C-13.66 5 -14.32 5 -15 5 C-15 4.34 -15 3.68 -15 3 C-14.25234375 3.03480469 -13.5046875 3.06960938 -12.734375 3.10546875 C-11.74953125 3.13253906 -10.7646875 3.15960938 -9.75 3.1875 C-8.77546875 3.22230469 -7.8009375 3.25710938 -6.796875 3.29296875 C-3.62531258 2.96075202 -2.32959693 2.11327721 0 0 Z " fill="#F5C84D" transform="translate(396,290)"/>
<path d="M0 0 C0.79921875 0.00902344 1.5984375 0.01804688 2.421875 0.02734375 C3.02515625 0.03894531 3.6284375 0.05054688 4.25 0.0625 C4.25 0.3925 4.25 0.7225 4.25 1.0625 C3.29738281 1.31644531 2.34476562 1.57039062 1.36328125 1.83203125 C-0.51810547 2.34830078 -0.51810547 2.34830078 -2.4375 2.875 C-4.29955078 3.37966797 -4.29955078 3.37966797 -6.19921875 3.89453125 C-9.73867736 4.91396897 -9.73867736 4.91396897 -12.58203125 6.76171875 C-13.29746094 7.19097656 -14.01289063 7.62023437 -14.75 8.0625 C-15.41 7.7325 -16.07 7.4025 -16.75 7.0625 C-16.42 6.0725 -16.09 5.0825 -15.75 4.0625 C-12.285 3.5675 -12.285 3.5675 -8.75 3.0625 C-8.75 2.4025 -8.75 1.7425 -8.75 1.0625 C-5.75519083 0.1901588 -3.11424089 -0.04579766 0 0 Z " fill="#F9D26B" transform="translate(331.75,199.9375)"/>
<path d="M0 0 C0.66 0.33 1.32 0.66 2 1 C2.625 4.0625 2.625 4.0625 3 7 C-2.1468192 10.16727335 -6.158256 10.35050464 -12 10 C-9.57869669 7.57869669 -8.19888623 7.47159496 -4.875 6.875 C-3.50988281 6.62363281 -3.50988281 6.62363281 -2.1171875 6.3671875 C-1.06917969 6.18542969 -1.06917969 6.18542969 0 6 C0 4.02 0 2.04 0 0 Z " fill="#F7C743" transform="translate(340,181)"/>
<path d="M0 0 C0.66 0 1.32 0 2 0 C2 1.32 2 2.64 2 4 C1.34 4 0.68 4 0 4 C0 4.99 0 5.98 0 7 C-3.3 7 -6.6 7 -10 7 C-9.67 6.01 -9.34 5.02 -9 4 C-6.36 4 -3.72 4 -1 4 C-0.67 2.68 -0.34 1.36 0 0 Z " fill="#F5C942" transform="translate(347,193)"/>
<path d="M0 0 C2.475 0.99 2.475 0.99 5 2 C5 7.94 5 13.88 5 20 C3.02 20.99 3.02 20.99 1 22 C1.33 21.21625 1.66 20.4325 2 19.625 C3.66335339 13.59534396 3.9097262 8.19850499 1.5 2.375 C1.005 1.59125 0.51 0.8075 0 0 Z " fill="#F3C94E" transform="translate(396,268)"/>
<path d="M0 0 C0 3.3 0 6.6 0 10 C-0.99 10.33 -1.98 10.66 -3 11 C-3.99 8.36 -4.98 5.72 -6 3 C-1.125 0 -1.125 0 0 0 Z " fill="#F9C229" transform="translate(451,275)"/>
<path d="M0 0 C1.91385532 2.87078299 2.96432952 5.33411656 4.125 8.5625 C4.47820312 9.53316406 4.83140625 10.50382812 5.1953125 11.50390625 C6 14 6 14 6 16 C4.078125 15.3046875 4.078125 15.3046875 2 14 C1.171875 11.7578125 1.171875 11.7578125 0.75 9.125 C0.60046875 8.26132812 0.4509375 7.39765625 0.296875 6.5078125 C0 4 0 4 0 0 Z " fill="#F7CE55" transform="translate(314,260)"/>
<path d="M0 0 C2 2 2 2 2 5 C5.79541663 7.21399303 9.75629421 8.00980198 14 9 C14 9.66 14 10.32 14 11 C11.69 11 9.38 11 7 11 C7 10.34 7 9.68 7 9 C5.824375 8.8453125 5.824375 8.8453125 4.625 8.6875 C2 8 2 8 0 5 C-0.125 2.3125 -0.125 2.3125 0 0 Z " fill="#F8D262" transform="translate(269,101)"/>
<path d="M0 0 C2.29013653 3.4352048 2.17842973 4.985331 2 9 C5.3 9 8.6 9 12 9 C7.95807022 11.69461986 5.7948504 11.23200889 1 11 C0 10 0 10 -0.09765625 7.71484375 C-0.08605469 6.79832031 -0.07445312 5.88179688 -0.0625 4.9375 C-0.05347656 4.01839844 -0.04445313 3.09929687 -0.03515625 2.15234375 C-0.02355469 1.44207031 -0.01195312 0.73179687 0 0 Z " fill="#F3C74D" transform="translate(325,254)"/>
<path d="M0 0 C0.99 0 1.98 0 3 0 C3.8125 2.1875 3.8125 2.1875 4 5 C1.39154889 8.2046685 -1.16309363 10.43681592 -5 12 C-4.360625 11.319375 -3.72125 10.63875 -3.0625 9.9375 C-0.6741507 6.53591161 -0.32122847 4.09566299 0 0 Z " fill="#FCC852" transform="translate(278,290)"/>
<path d="M0 0 C0.99 0.33 1.98 0.66 3 1 C3 2.98 3 4.96 3 7 C3.66 7 4.32 7 5 7 C5 7.99 5 8.98 5 10 C5.66 10 6.32 10 7 10 C7.33 11.65 7.66 13.3 8 15 C3.48802094 11.9513655 1.74369711 9.13931779 0 4 C0 2.68 0 1.36 0 0 Z " fill="#F7CC58" transform="translate(236,286)"/>
<path d="M0 0 C3.47227325 0.65573506 6.85512876 1.45664648 10.25 2.4375 C11.55710938 2.80681641 11.55710938 2.80681641 12.890625 3.18359375 C15 4 15 4 16 6 C9.51521334 5.74368432 5.04459475 5.24807979 0 1 C0 0.67 0 0.34 0 0 Z " fill="#F7CA57" transform="translate(244,301)"/>
<path d="M0 0 C2.44839588 3.67259383 4 6.54648201 4 11 C-0.29 11 -4.58 11 -9 11 C-9 10.67 -9 10.34 -9 10 C-5.7 10 -2.4 10 1 10 C0.67 6.7 0.34 3.4 0 0 Z " fill="#F6D771" transform="translate(326,295)"/>
<path d="M0 0 C0.99 0.33 1.98 0.66 3 1 C3 2.98 3 4.96 3 7 C1.35 7.66 -0.3 8.32 -2 9 C-2.125 5.625 -2.125 5.625 -2 2 C-1.34 1.34 -0.68 0.68 0 0 Z " fill="#FDBD15" transform="translate(239,271)"/>
<path d="M0 0 C1.43836751 0.11458693 2.87570966 0.24209116 4.3125 0.375 C5.51326172 0.47941406 5.51326172 0.47941406 6.73828125 0.5859375 C9 1 9 1 12 3 C9.03 3 6.06 3 3 3 C3 4.32 3 5.64 3 7 C1.35 7 -0.3 7 -2 7 C-1.34 6.34 -0.68 5.68 0 5 C0.16687448 2.41645782 0.16687448 2.41645782 0 0 Z " fill="#F9C43B" transform="translate(219,187)"/>
<path d="M0 0 C0.99 0.33 1.98 0.66 3 1 C0.54074507 3.45925493 -1.79646927 4.34371127 -5 5.6875 C-6.0725 6.14511719 -7.145 6.60273438 -8.25 7.07421875 C-9.1575 7.37972656 -10.065 7.68523437 -11 8 C-11.66 7.67 -12.32 7.34 -13 7 C-12.67 6.01 -12.34 5.02 -12 4 C-7.68964518 2.65743047 -4.52218352 2 0 2 C0 1.34 0 0.68 0 0 Z " fill="#F7CC56" transform="translate(327,126)"/>
<path d="M0 0 C1.31625194 2.63250388 0.74813658 3.80179056 0.0625 6.625 C-0.13214844 7.44226563 -0.32679688 8.25953125 -0.52734375 9.1015625 C-0.68332031 9.72804688 -0.83929688 10.35453125 -1 11 C-1.66 11 -2.32 11 -3 11 C-3 14.3 -3 17.6 -3 21 C-3.33 21 -3.66 21 -4 21 C-4.4485551 12.82632933 -4.40744316 7.02436254 0 0 Z " fill="#F7D267" transform="translate(262,85)"/>
<path d="M0 0 C0.33 0 0.66 0 1 0 C1 3.96 1 7.92 1 12 C-4.94 11.67 -10.88 11.34 -17 11 C-17 10.67 -17 10.34 -17 10 C-8.585 9.505 -8.585 9.505 0 9 C0 6.03 0 3.06 0 0 Z " fill="#FAD35D" transform="translate(135,253)"/>
<path d="M0 0 C0 0.66 0 1.32 0 2 C-3.72554052 4.59658885 -7.74007769 6.45093734 -12 8 C-14.21484375 7.578125 -14.21484375 7.578125 -16 7 C-13.71070947 5.82845707 -11.41881638 4.66261926 -9.125 3.5 C-8.47402344 3.16613281 -7.82304687 2.83226562 -7.15234375 2.48828125 C-2.2265625 0 -2.2265625 0 0 0 Z " fill="#F6CD55" transform="translate(322,192)"/>
<path d="M0 0 C4.96646236 3.24730231 8.01872456 5.87220625 11 11 C5.25 9.25 5.25 9.25 3 7 C3.33 6.34 3.66 5.68 4 5 C3.01 5 2.02 5 1 5 C0.67 3.35 0.34 1.7 0 0 Z " fill="#F7CB51" transform="translate(267,134)"/>
<path d="M0 0 C4.11742854 -0.47877076 5.58006317 -0.32165374 8.9375 2.25 C9.618125 3.1575 10.29875 4.065 11 5 C10.62890625 7.171875 10.62890625 7.171875 10 9 C8.33043913 7.69118353 6.66441696 6.37785174 5 5.0625 C4.071875 4.33160156 3.14375 3.60070312 2.1875 2.84765625 C1.465625 2.23792969 0.74375 1.62820312 0 1 C0 0.67 0 0.34 0 0 Z " fill="#F6CF52" transform="translate(257,140)"/>
<path d="M0 0 C0.66 0.33 1.32 0.66 2 1 C-2.72733361 5.26613033 -7.33266018 9 -14 9 C-11.50175511 6.18841591 -8.721524 4.55162169 -5.4375 2.75 C-4.46683594 2.20859375 -3.49617188 1.6671875 -2.49609375 1.109375 C-1.67238281 0.74328125 -0.84867187 0.3771875 0 0 Z " fill="#F9D263" transform="translate(309,123)"/>
<path d="M0 0 C1.3303125 0.37125 1.3303125 0.37125 2.6875 0.75 C2.6875 1.74 2.6875 2.73 2.6875 3.75 C1.6975 4.08 0.7075 4.41 -0.3125 4.75 C-1.3025 4.09 -2.2925 3.43 -3.3125 2.75 C-4.6325 3.74 -5.9525 4.73 -7.3125 5.75 C-7.6425 5.09 -7.9725 4.43 -8.3125 3.75 C-4.12788462 -0.31153846 -4.12788462 -0.31153846 0 0 Z " fill="#FCBD15" transform="translate(380.3125,294.25)"/>
<path d="M0 0 C1.134375 0.020625 2.26875 0.04125 3.4375 0.0625 C2.4475 0.3925 1.4575 0.7225 0.4375 1.0625 C-0.67086423 2.94566159 -0.67086423 2.94566159 -1.5625 5.0625 C-2.5525 6.5475 -2.5525 6.5475 -3.5625 8.0625 C-4.2225 8.0625 -4.8825 8.0625 -5.5625 8.0625 C-4.54651535 0.07976343 -4.54651535 0.07976343 0 0 Z " fill="#FDCA21" transform="translate(131.5625,291.9375)"/>
<path d="M0 0 C0 3.10551666 -0.5393715 4.35261084 -2 7 C-2.66 7 -3.32 7 -4 7 C-4 7.99 -4 8.98 -4 10 C-4.66 10 -5.32 10 -6 10 C-6 10.66 -6 11.32 -6 12 C-6.66 12 -7.32 12 -8 12 C-4.5 3 -4.5 3 0 0 Z " fill="#F4C948" transform="translate(373,256)"/>
<path d="M0 0 C1.32 0 2.64 0 4 0 C4 0.66 4 1.32 4 2 C3.01 2 2.02 2 1 2 C0.92572162 5.34252724 0.93453047 7.8035914 2 11 C1.34 11 0.68 11 0 11 C-0.33 12.32 -0.66 13.64 -1 15 C-1.02685412 12.68756208 -1.04632841 10.3750373 -1.0625 8.0625 C-1.07410156 6.77472656 -1.08570313 5.48695312 -1.09765625 4.16015625 C-1 1 -1 1 0 0 Z " fill="#F4C43F" transform="translate(212,113)"/>
<path d="M0 0 C0.33 0.66 0.66 1.32 1 2 C-1.36975637 5.72390287 -3.64962537 9.09634199 -7 12 C-7.66 12 -8.32 12 -9 12 C-9 11.34 -9 10.68 -9 10 C-8.01 10 -7.02 10 -6 10 C-6 8.68 -6 7.36 -6 6 C-5.01 6 -4.02 6 -3 6 C-2.814375 4.7934375 -2.814375 4.7934375 -2.625 3.5625 C-2.41875 2.716875 -2.2125 1.87125 -2 1 C-1.34 0.67 -0.68 0.34 0 0 Z " fill="#F6CF59" transform="translate(409,291)"/>
<path d="M0 0 C1.32 0 2.64 0 4 0 C4 2.97 4 5.94 4 9 C3.01 9.33 2.02 9.66 1 10 C0.67 10.66 0.34 11.32 0 12 C-0.66 11.34 -1.32 10.68 -2 10 C-1.01 9.34 -0.02 8.68 1 8 C1.73606499 4.43230448 1.73606499 4.43230448 2 1 C1.34 0.67 0.68 0.34 0 0 Z " fill="#F3CF4F" transform="translate(441,266)"/>
<path d="M0 0 C0.99 0.33 1.98 0.66 3 1 C1.79157144 5.43090471 0.48331435 7.98112756 -3 11 C-3.66 9.35 -4.32 7.7 -5 6 C-3.35 6 -1.7 6 0 6 C0 4.02 0 2.04 0 0 Z " fill="#F9C74B" transform="translate(227,291)"/>
<path d="M0 0 C0.66 0.33 1.32 0.66 2 1 C1.44894091 4.9492568 0.61064629 8.34920174 -1 12 C-1.66 12 -2.32 12 -3 12 C-2.49202991 7.6822542 -1.80317221 3.96697886 0 0 Z " fill="#F8C844" transform="translate(303,273)"/>
<path d="M0 0 C2 1 2 1 2 1 Z M-2 1 C-1.34 1.33 -0.68 1.66 0 2 C-2.625 7.75 -2.625 7.75 -6 10 C-6.33 9.01 -6.66 8.02 -7 7 C-6.34 6.01 -5.68 5.02 -5 4 C-4.34 4 -3.68 4 -3 4 C-2.67 3.01 -2.34 2.02 -2 1 Z " fill="#FCBE0F" transform="translate(298,207)"/>
<path d="M0 0 C1.32 0.66 2.64 1.32 4 2 C4 2.99 4 3.98 4 5 C1.50935112 5.68707555 -0.37886292 6 -3 6 C-2 3 -2 3 0 0 Z " fill="#FBC436" transform="translate(261,204)"/>
<path d="M0 0 C1.32 0.33 2.64 0.66 4 1 C4.33 2.32 4.66 3.64 5 5 C5.66 5 6.32 5 7 5 C7 6.65 7 8.3 7 10 C6.34 10 5.68 10 5 10 C3.35 6.7 1.7 3.4 0 0 Z " fill="#F7CF58" transform="translate(268,149)"/>
<path d="M0 0 C-3.40431947 2.26954631 -5.16524202 2.36549949 -9.1875 2.625 C-10.27417969 2.69976562 -11.36085938 2.77453125 -12.48046875 2.8515625 C-13.31191406 2.90054687 -14.14335937 2.94953125 -15 3 C-14.67 2.34 -14.34 1.68 -14 1 C-11.85546875 0.33203125 -11.85546875 0.33203125 -9.1875 -0.1875 C-8.31480469 -0.36667969 -7.44210937 -0.54585938 -6.54296875 -0.73046875 C-4.02642222 -0.99719949 -2.38332645 -0.78333107 0 0 Z " fill="#F4C94F" transform="translate(400,304)"/>
<path d="M0 0 C0.66 0.33 1.32 0.66 2 1 C2.73075648 3.3140622 3.40138258 5.64828869 4 8 C1.525 7.01 1.525 7.01 -1 6 C-1 5.34 -1 4.68 -1 4 C-1.99 4 -2.98 4 -4 4 C-4 3.34 -4 2.68 -4 2 C-2.125 0.9375 -2.125 0.9375 0 0 Z " fill="#F7C233" transform="translate(166,261)"/>
<path d="M0 0 C4.95696581 1.23924145 7.11658466 2.78577758 10 7 C8.35 7 6.7 7 5 7 C4.67 6.01 4.34 5.02 4 4 C1.99983534 2.79117904 1.99983534 2.79117904 0 2 C0 1.34 0 0.68 0 0 Z " fill="#F7CE5B" transform="translate(170,255)"/>
<path d="M0 0 C4.03321763 1.21934486 7.54269479 2.55954927 11 5 C11 5.66 11 6.32 11 7 C9.68 7 8.36 7 7 7 C7 6.34 7 5.68 7 5 C6.01 5 5.02 5 4 5 C4 4.34 4 3.68 4 3 C3.01 3 2.02 3 1 3 C0.67 2.01 0.34 1.02 0 0 Z " fill="#F8C94F" transform="translate(248,196)"/>
<path d="M0 0 C4.75 0.75 4.75 0.75 7 3 C3.7 3.66 0.4 4.32 -3 5 C-2.67 4.01 -2.34 3.02 -2 2 C-1.34 2 -0.68 2 0 2 C0 1.34 0 0.68 0 0 Z " fill="#F7CE49" transform="translate(270,286)"/>
<path d="M0 0 C5.15876713 0.6613804 10.2294812 1.90097173 15 4 C15.33 4.66 15.66 5.32 16 6 C13.69 5.67 11.38 5.34 9 5 C9 4.34 9 3.68 9 3 C8.071875 2.87625 7.14375 2.7525 6.1875 2.625 C3 2 3 2 0 0 Z " fill="#F6D169" transform="translate(231,190)"/>
<path d="M0 0 C1.98 0 3.96 0 6 0 C5.01 0.33 4.02 0.66 3 1 C3 1.66 3 2.32 3 3 C1.25 4.2890625 1.25 4.2890625 -1 5.625 C-1.7425 6.07101563 -2.485 6.51703125 -3.25 6.9765625 C-3.8275 7.31429687 -4.405 7.65203125 -5 8 C-5 6.68 -5 5.36 -5 4 C-2.5 2.3125 -2.5 2.3125 0 1 C0 0.67 0 0.34 0 0 Z " fill="#F8D157" transform="translate(303,137)"/>
<path d="M0 0 C0.66 0.33 1.32 0.66 2 1 C1.34 1.66 0.68 2.32 0 3 C-0.70710678 4.64991582 -1.37943989 6.31562256 -2 8 C-3.65 8 -5.3 8 -7 8 C-5.50902342 4.2047869 -3.24299151 2.38957269 0 0 Z " fill="#F6CF52" transform="translate(293,133)"/>
<path d="M0 0 C0.66 0.33 1.32 0.66 2 1 C0.625 3 0.625 3 -1 5 C-1.66 5 -2.32 5 -3 5 C-3.33 5.99 -3.66 6.98 -4 8 C-4.66 8 -5.32 8 -6 8 C-6.33 7.01 -6.66 6.02 -7 5 C-6.34 5 -5.68 5 -5 5 C-4.67 4.01 -4.34 3.02 -4 2 C-3.01 2 -2.02 2 -1 2 C-0.67 1.34 -0.34 0.68 0 0 Z " fill="#F8D469" transform="translate(180,294)"/>
<path d="M0 0 C3.3 0.33 6.6 0.66 10 1 C9.34 2.32 8.68 3.64 8 5 C7.01 5 6.02 5 5 5 C5 4.34 5 3.68 5 3 C3.35 2.67 1.7 2.34 0 2 C0 1.34 0 0.68 0 0 Z " fill="#F4C62F" transform="translate(206,293)"/>
<path d="M0 0 C0.66 0 1.32 0 2 0 C2 1.32 2 2.64 2 4 C2.99 4.33 3.98 4.66 5 5 C6.1875 8.5625 6.1875 8.5625 7 12 C2.5991297 8.17819158 1.19194469 5.52628901 0 0 Z " fill="#F6D361" transform="translate(364,288)"/>
<path d="M0 0 C3.53600465 1.91135386 5.78972846 3.62642766 8 7 C5.03 6.505 5.03 6.505 2 6 C1.34 4.02 0.68 2.04 0 0 Z " fill="#F4D15C" transform="translate(400,255)"/>
<path d="M0 0 C0 0.66 0 1.32 0 2 C-3.68734758 4.45823172 -6.69699971 5.01242616 -11 6 C-7.57865372 2.33427184 -5.14341528 0 0 0 Z " fill="#F5D165" transform="translate(254,253)"/>
<path d="M0 0 C10.55808656 -0.3690205 10.55808656 -0.3690205 15 2 C14.34 2.66 13.68 3.32 13 4 C11.7315625 3.5359375 11.7315625 3.5359375 10.4375 3.0625 C6.9502146 1.98461179 3.61822465 1.43418696 0 1 C0 0.67 0 0.34 0 0 Z " fill="#F8D05B" transform="translate(255,252)"/>
<path d="M0 0 C4.43458973 1.3937282 6.87378374 3.60582235 10 7 C7.69 6.34 5.38 5.68 3 5 C3 4.34 3 3.68 3 3 C2.01 2.67 1.02 2.34 0 2 C0 1.34 0 0.68 0 0 Z " fill="#F7D05B" transform="translate(254,125)"/>
<path d="M0 0 C0.33 1.32 0.66 2.64 1 4 C0.34 4 -0.32 4 -1 4 C-1 4.66 -1 5.32 -1 6 C-3.31 6.33 -5.62 6.66 -8 7 C-7.236875 6.401875 -6.47375 5.80375 -5.6875 5.1875 C-3.6516425 3.53040668 -1.8021721 1.89702326 0 0 Z " fill="#F4D04D" transform="translate(171,287)"/>
<path d="M0 0 C5.37305699 0.2642487 5.37305699 0.2642487 8 1 C10 3.5625 10 3.5625 11 6 C7.2089881 4.55049545 3.6125362 2.84827434 0 1 C0 0.67 0 0.34 0 0 Z " fill="#F9D158" transform="translate(242,206)"/>
<path d="M0 0 C0.99 0.33 1.98 0.66 3 1 C2.67 2.32 2.34 3.64 2 5 C0.68 5.33 -0.64 5.66 -2 6 C-2.33 4.68 -2.66 3.36 -3 2 C-2.01 1.34 -1.02 0.68 0 0 Z " fill="#FAC131" transform="translate(312,130)"/>
<path d="M0 0 C3.65316671 1.24976756 4.78065836 1.67098753 7 5 C6.01 5 5.02 5 4 5 C3.67 5.66 3.34 6.32 3 7 C2.34 7 1.68 7 1 7 C0.67 4.69 0.34 2.38 0 0 Z " fill="#F8C63A" transform="translate(291,81)"/>
<path d="M0 0 C0.66 0.33 1.32 0.66 2 1 C-3.625 6 -3.625 6 -7 6 C-6 3 -6 3 -3.0625 1.25 C-2.051875 0.8375 -1.04125 0.425 0 0 Z " fill="#F6CE57" transform="translate(273,76)"/>
<path d="M0 0 C0.6875 1.75 0.6875 1.75 1 4 C-0.4375 6.25 -0.4375 6.25 -2 8 C-3.32 7.67 -4.64 7.34 -6 7 C-5.195625 6.401875 -4.39125 5.80375 -3.5625 5.1875 C-0.77672016 3.19052724 -0.77672016 3.19052724 0 0 Z " fill="#F8C54D" transform="translate(220,286)"/>
<path d="M0 0 C0.33 0.66 0.66 1.32 1 2 C1.66 2 2.32 2 3 2 C3 3.65 3 5.3 3 7 C1.68 6.67 0.36 6.34 -1 6 C-0.67 4.02 -0.34 2.04 0 0 Z " fill="#F9BA0E" transform="translate(309,283)"/>
<path d="M0 0 C2.31 0 4.62 0 7 0 C7.33 1.32 7.66 2.64 8 4 C2.25 2.25 2.25 2.25 0 0 Z " fill="#F6CC55" transform="translate(239,130)"/>
<path d="M0 0 C2.27795022 2.27795022 3.05219877 3.93787293 4 7 C3.625 9.3125 3.625 9.3125 3 11 C3 10.34 3 9.68 3 9 C2.34 9 1.68 9 1 9 C0.67 6.03 0.34 3.06 0 0 Z " fill="#F6D15E" transform="translate(322,284)"/>
<path d="M0 0 C-2.64 1.98 -5.28 3.96 -8 6 C-7.8125 3.625 -7.8125 3.625 -7 1 C-2.77108434 -1.38554217 -2.77108434 -1.38554217 0 0 Z " fill="#F7D46E" transform="translate(306,214)"/>
<path d="M0 0 C-2.8125 1.5625 -2.8125 1.5625 -6 3 C-6.99 2.67 -7.98 2.34 -9 2 C-8.67 1.34 -8.34 0.68 -8 0 C-4.71585695 -0.95067299 -3.30306592 -1.10102197 0 0 Z " fill="#FAD165" transform="translate(273,303)"/>
<path d="M0 0 C-5.2734375 3.22265625 -5.2734375 3.22265625 -7 4 C-7.66 3.67 -8.32 3.34 -9 3 C-8.67 2.01 -8.34 1.02 -8 0 C-4.71303767 -0.79953138 -3.28976808 -1.09658936 0 0 Z " fill="#F5CE58" transform="translate(324,204)"/>
<path d="" fill="#FFFFFF" transform="translate(0,0)"/>
<path d="" fill="#FFFF00" transform="translate(0,0)"/>
</svg>
