<?xml version="1.0" encoding="UTF-8"?>
<svg version="1.1" xmlns="http://www.w3.org/2000/svg" width="612" height="408">
<path d="M0 0 C1.21357681 -0.00287018 2.42715363 -0.00574036 3.67750549 -0.00869751 C6.22454296 -0.01072411 8.7715965 -0.00529354 11.31860352 0.00732422 C15.17825761 0.02338279 19.03686245 0.00743326 22.89648438 -0.01171875 C55.00340402 -0.04129651 55.00340402 -0.04129651 66.75390625 9.3984375 C67.49382812 9.8934375 68.23375 10.3884375 68.99609375 10.8984375 C69.57617188 11.3934375 70.15625 11.8884375 70.75390625 12.3984375 C70.75390625 13.3884375 70.75390625 14.3784375 70.75390625 15.3984375 C71.74390625 15.7284375 72.73390625 16.0584375 73.75390625 16.3984375 C75.10546875 18.62109375 75.10546875 18.62109375 76.37890625 21.4609375 C76.80429688 22.38003906 77.2296875 23.29914063 77.66796875 24.24609375 C80.39700576 32.16815443 79.91442626 40.640532 79.921875 48.91796875 C79.9252034 50.21232346 79.9285318 51.50667816 79.93196106 52.84025574 C79.93791991 55.57100255 79.93980433 58.30171786 79.93920898 61.0324707 C79.93910756 64.50186649 79.9527539 67.97105673 79.96998119 71.44040394 C79.98388858 74.78709458 79.98319283 78.13374969 79.984375 81.48046875 C79.99515327 83.32630302 79.99515327 83.32630302 80.00614929 85.20942688 C79.97188774 98.28977059 78.65570614 109.39212233 69.37890625 119.2109375 C66.08635447 122.30350783 62.7759268 124.3508634 58.75390625 126.3984375 C57.70203125 126.9759375 56.65015625 127.5534375 55.56640625 128.1484375 C52.75390625 129.3984375 52.75390625 129.3984375 48.75390625 129.3984375 C48.77710938 130.59082031 48.8003125 131.78320312 48.82421875 133.01171875 C48.84297803 134.57811874 48.86117806 136.1445255 48.87890625 137.7109375 C48.90404297 138.88946289 48.90404297 138.88946289 48.9296875 140.09179688 C48.93613281 140.84912109 48.94257813 141.60644531 48.94921875 142.38671875 C48.95969238 143.08321533 48.97016602 143.77971191 48.98095703 144.49731445 C48.75390625 146.3984375 48.75390625 146.3984375 46.75390625 149.3984375 C43.03927497 150.15652552 40.71444225 149.99938823 37.46875 147.96875 C35.16547956 146.17689019 32.9488247 144.32105403 30.75390625 142.3984375 C27.07388115 139.30706664 27.07388115 139.30706664 22.75390625 137.3984375 C22.75390625 136.7384375 22.75390625 136.0784375 22.75390625 135.3984375 C22.03203125 135.1303125 21.31015625 134.8621875 20.56640625 134.5859375 C17.75390625 133.3984375 17.75390625 133.3984375 15.50390625 131.84521484 C12.09994916 130.05439012 9.77523404 130.04432774 5.94140625 130.0625 C4.60416199 130.04996851 3.2669224 130.03693059 1.9296875 130.0234375 C-0.14552203 130.01954679 -2.22024856 130.02325276 -4.29541016 130.03808594 C-16.08626007 130.08906727 -27.20310286 128.674758 -36.24609375 120.3984375 C-36.24609375 119.7384375 -36.24609375 119.0784375 -36.24609375 118.3984375 C-36.84164062 118.18445313 -37.4371875 117.97046875 -38.05078125 117.75 C-41.03514888 115.91264911 -41.85427107 113.9103221 -43.37109375 110.7734375 C-43.86867188 109.77054687 -44.36625 108.76765625 -44.87890625 107.734375 C-48.37291274 99.20899917 -48.56634786 91.42527964 -48.58203125 82.29296875 C-48.58847479 80.92306892 -48.59520425 79.55317042 -48.60220337 78.18327332 C-48.61412786 75.3196596 -48.61788939 72.45616605 -48.61669922 69.5925293 C-48.61649672 65.95942415 -48.64374826 62.32710725 -48.67824364 58.69418812 C-48.70070941 55.86535754 -48.70453077 53.03671047 -48.70347977 50.20779991 C-48.70692507 48.22895352 -48.72846511 46.25016441 -48.75057983 44.2714386 C-48.68738823 31.59355849 -46.20837294 20.71141457 -37.24609375 11.3984375 C-26.72894549 1.23866806 -14.07736888 -0.07526703 0 0 Z " fill="#FB8515" transform="translate(118.24609375,129.6015625)"/>
<path d="M0 0 C4.95 0 9.9 0 15 0 C15.01401855 2.25457031 15.01401855 2.25457031 15.02832031 4.5546875 C15.06831798 10.15345439 15.13410507 15.75167746 15.20751953 21.35009766 C15.23567231 23.76897168 15.25691502 26.18793673 15.27099609 28.60693359 C15.29250367 32.09259449 15.33919693 35.57716752 15.390625 39.0625 C15.39185364 40.13677246 15.39308228 41.21104492 15.39434814 42.31787109 C15.52294619 48.97291862 16.47588325 53.31472794 20 59 C23.30356261 61.89563281 26.7639664 63 31.125 63 C35.63926052 61.42982243 38.9057714 59.5955943 41.64379883 55.60302734 C43.59556025 50.4177717 43.47996269 45.53789029 43.51171875 40.0390625 C43.52966995 38.89335785 43.54762115 37.7476532 43.56611633 36.56723022 C43.62015437 32.91985721 43.65409518 29.2726146 43.6875 25.625 C43.7206787 23.1471173 43.75516887 20.66925179 43.79101562 18.19140625 C43.87587728 12.12772111 43.94425486 6.06401896 44 0 C46.47923801 -0.02685095 48.9581884 -0.04676547 51.4375 -0.0625 C52.14455078 -0.07087891 52.85160156 -0.07925781 53.58007812 -0.08789062 C55.38693559 -0.09653588 57.19387603 -0.05220011 59 0 C60.54066868 1.54066868 60.13467936 2.96833503 60.14526367 5.11401367 C60.15164352 5.98970505 60.15802338 6.86539642 60.16459656 7.7676239 C60.16570938 8.7247377 60.1668222 9.6818515 60.16796875 10.66796875 C60.17296135 12.14756828 60.17296135 12.14756828 60.17805481 13.65705872 C60.18313417 15.75793999 60.18546283 17.85882939 60.18530273 19.9597168 C60.1874601 23.12888614 60.20552285 26.29769059 60.22460938 29.46679688 C60.31846882 61.45548583 60.31846882 61.45548583 52 70 C51.34 70 50.68 70 50 70 C49.75507813 70.61359375 49.51015625 71.2271875 49.2578125 71.859375 C47.27988248 75.22554161 44.75335263 75.92921034 41.1796875 77.234375 C31.41270487 79.58613003 20.77944196 79.15459661 12 74 C9.65576922 72.45923542 7.98128569 71.03342479 6 69 C6 68.01 6 67.02 6 66 C5.34 66 4.68 66 4 66 C0.36952406 57.7991405 -0.55114455 50.80708587 -0.390625 41.89453125 C-0.38496521 40.6893132 -0.37930542 39.48409515 -0.37347412 38.24235535 C-0.35126855 34.4319817 -0.30110001 30.62258446 -0.25 26.8125 C-0.22991464 24.2129043 -0.21166747 21.61329372 -0.1953125 19.01367188 C-0.15145535 12.67541097 -0.08253675 6.33787043 0 0 Z " fill="#EDEDED" transform="translate(221,158)"/>
<path d="M0 0 C5.28 0 10.56 0 16 0 C16.01458252 1.37663818 16.02916504 2.75327637 16.04418945 4.17163086 C16.10243927 9.3100703 16.17967008 14.44808371 16.26245117 19.58618164 C16.29557536 21.80420993 16.32364569 24.02231997 16.34643555 26.24047852 C16.38021202 29.44061924 16.43253953 32.64001913 16.48828125 35.83984375 C16.49467117 36.82145981 16.5010611 37.80307587 16.50764465 38.81443787 C16.6504754 45.59942497 17.29073929 52.56132294 21.625 58.0625 C25.43170161 59.56514537 28.97376544 59.62800886 33 59 C36.48157737 57.29086202 38.41992973 56.18137132 40.14022827 52.67781067 C41.0261384 49.9185904 41.27495728 47.7319792 41.31884766 44.8425293 C41.33871735 43.84186935 41.35858704 42.84120941 41.37905884 41.81022644 C41.39638565 40.20840263 41.39638565 40.20840263 41.4140625 38.57421875 C41.43342865 37.47149124 41.4527948 36.36876373 41.4727478 35.23262024 C41.53242923 31.71765834 41.57888375 28.20266349 41.625 24.6875 C41.66319026 22.30141817 41.7022426 19.91534997 41.7421875 17.52929688 C41.8381216 11.68630889 41.92219534 5.84325638 42 0 C47.28 0 52.56 0 58 0 C58.07444258 7.24078145 58.12874098 14.48133755 58.16479492 21.72241211 C58.1798334 24.18306359 58.20026942 26.64368849 58.22631836 29.10424805 C58.26291856 32.65159692 58.27977635 36.19858977 58.29296875 39.74609375 C58.30845261 40.8370787 58.32393646 41.92806366 58.33988953 43.05210876 C58.34192788 52.41118515 56.70298078 61.04339292 50 68 C41.16030656 74.76722943 29.65270674 75.24394113 19 74 C12.46892647 72.24037493 8.19894693 68.87019578 4.25390625 63.453125 C0.24135182 55.60301852 -0.41694922 48.48169719 -0.29296875 39.74609375 C-0.28872391 38.60463394 -0.28447906 37.46317413 -0.28010559 36.28712463 C-0.26342151 32.6703349 -0.22578766 29.05411902 -0.1875 25.4375 C-0.17243992 22.97331538 -0.15875384 20.50912197 -0.14648438 18.04492188 C-0.11355152 12.02972954 -0.06183991 6.01496179 0 0 Z " fill="#FEFAF3" transform="translate(106,161)"/>
<path d="M0 0 C6.8448696 3.71690815 13.20674774 8.99862818 16 16.4375 C16.84950714 19.7671774 17.44145158 23.03966379 18 26.4375 C12.72 26.4375 7.44 26.4375 2 26.4375 C0.76302083 24.15885417 -0.47395833 21.88020833 -1.7109375 19.6015625 C-3.13806838 17.20571248 -4.14996084 15.71964831 -6.84765625 14.82421875 C-12.31208019 13.84240755 -18.05537328 13.65614747 -23 16.4375 C-23.33 17.0975 -23.66 17.7575 -24 18.4375 C-24.66 18.4375 -25.32 18.4375 -26 18.4375 C-26.48108275 19.85351714 -26.95978141 21.27034437 -27.4375 22.6875 C-27.70433594 23.47640625 -27.97117187 24.2653125 -28.24609375 25.078125 C-31.26042294 34.51156973 -31.22370663 44.24557631 -27.16796875 53.3515625 C-25.46619643 56.39084818 -23.94535242 58.86455914 -20.9375 60.6875 C-15.27891966 62.13224392 -10.09114204 62.34497673 -4.6875 60 C-1.13135139 56.60925365 0.8781524 52.8314145 3 48.4375 C5.12493141 48.41056425 7.24995912 48.39113372 9.375 48.375 C10.55835938 48.36339844 11.74171875 48.35179687 12.9609375 48.33984375 C16 48.4375 16 48.4375 18 49.4375 C14.60763395 65.98562707 14.60763395 65.98562707 7.6640625 71.1875 C-1.34544437 76.81505985 -9.39098276 78.59016748 -20 77.4375 C-24.19943235 76.12173899 -28.08719746 74.44406541 -32 72.4375 C-32 71.7775 -32 71.1175 -32 70.4375 C-32.86625 70.3446875 -32.86625 70.3446875 -33.75 70.25 C-38.28916068 68.61085864 -40.82175393 63.65542262 -43.05078125 59.55859375 C-48.40816988 47.58714509 -48.60038588 33.68611139 -45.05859375 21.1796875 C-43.38608278 16.84720521 -41.12861862 12.88856678 -38 9.4375 C-37.34 9.4375 -36.68 9.4375 -36 9.4375 C-35.34 8.1175 -34.68 6.7975 -34 5.4375 C-33.34 5.4375 -32.68 5.4375 -32 5.4375 C-32 4.7775 -32 4.1175 -32 3.4375 C-22.33668289 -2.29497625 -10.72807042 -4.26895536 0 0 Z " fill="#EAEAEA" transform="translate(334,158.5625)"/>
<path d="M0 0 C0 7.59 0 15.18 0 23 C2.97 21.35 5.94 19.7 9 18 C16.15891031 17.20456552 21.03185882 17.93262539 27 22 C31.3205865 25.47525436 33.00860624 28.6422332 34 34 C34.25011244 37.2946695 34.23393933 40.56853708 34.1953125 43.87109375 C34.1924826 44.793423 34.18965271 45.71575226 34.18673706 46.66603088 C34.17560974 49.58999013 34.15051912 52.51363451 34.125 55.4375 C34.11496057 57.42903201 34.1058364 59.42056886 34.09765625 61.41210938 C34.07569483 66.2748595 34.04121673 71.1373765 34 76 C28.97874074 76.77916092 25.02296004 77.13016601 20 76 C19.98541748 74.94087402 19.97083496 73.88174805 19.95581055 72.79052734 C19.89762673 68.84292658 19.82039593 64.89588429 19.73754883 60.94873047 C19.70439364 59.24374488 19.67633263 57.53865202 19.65356445 55.83349609 C19.61984432 53.37551366 19.56752206 50.91850594 19.51171875 48.4609375 C19.50532883 47.70444916 19.4989389 46.94796082 19.49235535 46.16854858 C19.36211944 41.42936629 18.58823065 38.1165759 16 34 C12.81496713 32.40748357 9.4667595 32.60870239 6 33 C2.76386646 34.74253345 2.17604685 35.47185944 1 39 C0.8460737 41.80160502 0.74261955 44.58298425 0.68359375 47.38671875 C0.66281265 48.20372757 0.64203156 49.02073639 0.62062073 49.86250305 C0.55526921 52.47075034 0.49630727 55.07909775 0.4375 57.6875 C0.39430108 59.45639054 0.35068635 61.22527097 0.30664062 62.99414062 C0.19960257 67.32932463 0.09829456 71.66460929 0 76 C-1.93674185 76.19517554 -3.87444009 76.38087873 -5.8125 76.5625 C-6.89144531 76.66691406 -7.97039062 76.77132812 -9.08203125 76.87890625 C-12 77 -12 77 -15 76 C-15 50.92 -15 25.84 -15 0 C-11 -1 -11 -1 0 0 Z " fill="#EFEFEF" transform="translate(372,158)"/>
<path d="M0 0 C3.96665053 2.7877509 7.06361533 6.22879316 9.234375 10.5703125 C9.32371906 11.99004523 9.35196478 13.41389041 9.34790039 14.83642578 C9.34782486 15.71718781 9.34774933 16.59794983 9.34767151 17.50540161 C9.34251022 18.45752533 9.33734894 19.40964905 9.33203125 20.390625 C9.3306163 21.36442108 9.32920135 22.33821716 9.32774353 23.34152222 C9.32213473 26.45948323 9.30958073 29.5773731 9.296875 32.6953125 C9.29186113 34.80598855 9.28729803 36.91666572 9.28320312 39.02734375 C9.27216245 44.20835771 9.25541573 49.38933002 9.234375 54.5703125 C7.10999161 54.65109891 4.9847427 54.70940391 2.859375 54.7578125 C1.67601562 54.79261719 0.49265625 54.82742187 -0.7265625 54.86328125 C-2.23089844 54.71826172 -2.23089844 54.71826172 -3.765625 54.5703125 C-4.425625 53.5803125 -5.085625 52.5903125 -5.765625 51.5703125 C-7.1578125 52.529375 -7.1578125 52.529375 -8.578125 53.5078125 C-13.90105314 56.95206012 -18.57435489 57.23071464 -24.765625 56.5703125 C-30.09568628 54.89956075 -33.71798191 52.32463572 -36.765625 47.5703125 C-38.79221491 41.49054276 -38.84261469 34.7627558 -36.015625 29.0078125 C-31.50270441 24.1188152 -26.54258352 20.87368441 -19.73583984 20.44140625 C-14.74228598 20.31256805 -9.7575319 20.41715172 -4.765625 20.5703125 C-5.21471561 19.08831348 -5.67519064 17.60976014 -6.140625 16.1328125 C-6.39585937 15.30910156 -6.65109375 14.48539063 -6.9140625 13.63671875 C-7.57444727 11.39233234 -7.57444727 11.39233234 -9.765625 10.5703125 C-15.64728236 10.10442968 -15.64728236 10.10442968 -20.765625 12.5703125 C-21.095625 13.5603125 -21.425625 14.5503125 -21.765625 15.5703125 C-26.385625 15.5703125 -31.005625 15.5703125 -35.765625 15.5703125 C-36.90547359 12.15076673 -36.72623534 11.7654251 -35.203125 8.6953125 C-32.01960931 2.77375602 -27.36650525 -0.8290641 -21.02734375 -2.91796875 C-13.30192665 -4.66586105 -6.91526892 -3.85405115 0 0 Z M-21.765625 32.5703125 C-23.28933767 35.68699751 -24.10633411 37.51979274 -23.015625 40.8828125 C-21.85685185 42.71325305 -21.85685185 42.71325305 -19.765625 43.5703125 C-15.57070932 43.97366978 -13.2406241 43.81229317 -9.453125 41.8828125 C-6.64904372 39.46999837 -5.67298225 38.10900579 -4.765625 34.5703125 C-4.765625 33.5803125 -4.765625 32.5903125 -4.765625 31.5703125 C-6.84888631 31.54321806 -8.93224941 31.52387377 -11.015625 31.5078125 C-12.17578125 31.49621094 -13.3359375 31.48460937 -14.53125 31.47265625 C-18.25039891 31.56512069 -18.25039891 31.56512069 -21.765625 32.5703125 Z " fill="#EBEBEB" transform="translate(449.765625,179.4296875)"/>
<path d="M0 0 C2.47923801 -0.02685095 4.9581884 -0.04676547 7.4375 -0.0625 C8.14455078 -0.07087891 8.85160156 -0.07925781 9.58007812 -0.08789062 C11.38693559 -0.09653588 13.19387603 -0.05220011 15 0 C16 1 16 1 16.09765625 3.72265625 C16.06510417 6.81510417 16.03255208 9.90755208 16 13 C20.29 13 24.58 13 29 13 C29.09765625 23.05859375 29.09765625 23.05859375 29 26 C28 27 28 27 25.05859375 27.09765625 C23.86363281 27.08605469 22.66867187 27.07445312 21.4375 27.0625 C19.64119141 27.04896484 19.64119141 27.04896484 17.80859375 27.03515625 C16.88175781 27.02355469 15.95492188 27.01195312 15 27 C15.05183668 31.0843728 15.1469071 35.16662471 15.25 39.25 C15.26417969 40.40886719 15.27835937 41.56773437 15.29296875 42.76171875 C15.32519531 43.87675781 15.35742188 44.99179688 15.390625 46.140625 C15.41157227 47.16704102 15.43251953 48.19345703 15.45410156 49.25097656 C16.13205486 52.664999 17.30426616 53.86338132 20 56 C22.34038761 56.68533632 22.34038761 56.68533632 24.75 56.75 C26.85375 56.87375 26.85375 56.87375 29 57 C29 61.29 29 65.58 29 70 C20.95907215 73.21637114 13.96732847 72.88400551 5.97265625 69.65625 C2.6942996 66.90372877 1.12345232 64.0508788 0 60 C-0.47653672 54.32154844 -0.37823409 48.69189987 -0.25 43 C-0.22990643 41.44663758 -0.2116607 39.8932501 -0.1953125 38.33984375 C-0.15153679 34.55927021 -0.08266974 30.77991489 0 27 C-0.969375 27.020625 -1.93875 27.04125 -2.9375 27.0625 C-6 27 -6 27 -7 26 C-7.07258946 23.81360547 -7.08373783 21.62499611 -7.0625 19.4375 C-7.05347656 18.23996094 -7.04445313 17.04242188 -7.03515625 15.80859375 C-7.02355469 14.88175781 -7.01195312 13.95492187 -7 13 C-4.69 13 -2.38 13 0 13 C0 8.71 0 4.42 0 0 Z " fill="#E3E3E3" transform="translate(470,164)"/>
<path d="M0 0 C0.66 0.33 1.32 0.66 2 1 C0.625 2.5 0.625 2.5 -1 4 C-1.66 4 -2.32 4 -3 4 C-3 4.66 -3 5.32 -3 6 C-4.32 6 -5.64 6 -7 6 C-6.896875 6.721875 -6.79375 7.44375 -6.6875 8.1875 C-7 11 -7 11 -9.3125 13.1875 C-12.49739748 16.52053224 -13.16935394 19.10640597 -14.2265625 23.5 C-15 26 -15 26 -16.52804565 28.32859802 C-18.15903677 31.28863064 -18.36089541 32.89865967 -18.32470703 36.24243164 C-18.32125275 37.26442154 -18.31779846 38.28641144 -18.3142395 39.33937073 C-18.29561859 40.43522995 -18.27699768 41.53108917 -18.2578125 42.66015625 C-18.25119598 43.80101181 -18.24457947 44.94186737 -18.23776245 46.11729431 C-18.21437839 49.76597138 -18.17073513 53.41404039 -18.125 57.0625 C-18.08973935 60.68589387 -18.05887461 64.30924621 -18.03366089 67.932724 C-18.01692271 70.18454255 -17.993988 72.4363271 -17.96365356 74.68800354 C-17.89673959 81.84700449 -18.28512036 88.87685242 -19 96 C-18.36449219 96.29003906 -17.72898437 96.58007812 -17.07421875 96.87890625 C-13.68575602 98.71033526 -13.17589141 101.47232576 -12 105 C-12.2784375 105.99 -12.2784375 105.99 -12.5625 107 C-12.7790625 107.99 -12.7790625 107.99 -13 109 C-12.34 109.99 -11.68 110.98 -11 112 C-10.34 112 -9.68 112 -9 112 C-8.67 113.32 -8.34 114.64 -8 116 C-7.443125 115.814375 -6.88625 115.62875 -6.3125 115.4375 C-3.58278055 114.92106659 -1.68864419 115.37954365 1 116 C1.99 116 2.98 116 4 116 C3.814375 116.804375 3.62875 117.60875 3.4375 118.4375 C3.2209375 119.7059375 3.2209375 119.7059375 3 121 C4.96822886 122.96822886 8.34808709 122.66248381 11 123 C11 123.33 11 123.66 11 124 C19.25 124.33 27.5 124.66 36 125 C36 125.33 36 125.66 36 126 C31.60453117 126.14752942 27.20971384 126.23481071 22.8125 126.3125 C21.58595703 126.35439453 20.35941406 126.39628906 19.09570312 126.43945312 C8.23930357 126.58267739 -1.77826995 124.53635052 -10 117 C-10 116.34 -10 115.68 -10 115 C-10.59554687 114.78601563 -11.19109375 114.57203125 -11.8046875 114.3515625 C-14.78905513 112.51421161 -15.60817732 110.5118846 -17.125 107.375 C-17.62257813 106.37210937 -18.12015625 105.36921875 -18.6328125 104.3359375 C-22.12681899 95.81056167 -22.32025411 88.02684214 -22.3359375 78.89453125 C-22.34238104 77.52463142 -22.3491105 76.15473292 -22.35610962 74.78483582 C-22.36803411 71.9212221 -22.37179564 69.05772855 -22.37060547 66.1940918 C-22.37040297 62.56098665 -22.39765451 58.92866975 -22.43214989 55.29575062 C-22.45461566 52.46692004 -22.45843702 49.63827297 -22.45738602 46.80936241 C-22.46083132 44.83051602 -22.48237136 42.85172691 -22.50448608 40.8730011 C-22.44129448 28.19512099 -19.96227919 17.31297707 -11 8 C-7.70264797 4.81469391 -4.11111244 2.05555622 0 0 Z " fill="#DB6929" transform="translate(92,133)"/>
<path d="M0 0 C2.97118471 3.2880489 3.37192267 5.44990824 3.35644531 9.83496094 C3.35944641 11.0100824 3.36244751 12.18520386 3.36553955 13.39593506 C3.35319275 14.66262024 3.34084595 15.92930542 3.328125 17.234375 C3.32625183 18.54150452 3.32437866 19.84863403 3.32244873 21.19537354 C3.31784964 23.96273167 3.30344666 26.72979818 3.28125 29.49707031 C3.25307905 33.02512702 3.24204849 36.55295342 3.2375679 40.08111191 C3.23237996 43.46556775 3.21784059 46.84994631 3.203125 50.234375 C3.19887512 51.49296326 3.19462524 52.75155151 3.19024658 54.04827881 C3.1411248 60.12094604 2.93184809 65.99620918 2 72 C1.34 72 0.68 72 0 72 C0 50.22 0 28.44 0 6 C-0.99 6 -1.98 6 -3 6 C-2.67 5.34 -2.34 4.68 -2 4 C-1.34 4.33 -0.68 4.66 0 5 C0 3.35 0 1.7 0 0 Z " fill="#CF8A21" transform="translate(195,161)"/>
<path d="M0 0 C0.66 0.33 1.32 0.66 2 1 C0.625 2.5 0.625 2.5 -1 4 C-1.66 4 -2.32 4 -3 4 C-3 4.66 -3 5.32 -3 6 C-4.32 6 -5.64 6 -7 6 C-6.896875 6.721875 -6.79375 7.44375 -6.6875 8.1875 C-7 11 -7 11 -9.3125 13.1875 C-12.51282621 16.53667859 -13.09996588 19.09929431 -14.2421875 23.484375 C-15.31572737 27.04808466 -17.02116284 29.86115485 -19 33 C-19.33 33 -19.66 33 -20 33 C-20.33 52.8 -20.66 72.6 -21 93 C-21.33 93 -21.66 93 -22 93 C-22.09332867 85.01039921 -22.16407939 77.02103214 -22.20724869 69.03101826 C-22.22798433 65.31955304 -22.25603909 61.60846502 -22.30175781 57.8972168 C-22.3457245 54.30506456 -22.36924205 50.71327146 -22.37950897 47.12087059 C-22.39032566 45.10652682 -22.4214672 43.09232437 -22.45318604 41.07820129 C-22.45624824 28.30407145 -20.03500658 17.38855032 -11 8 C-7.70264797 4.81469391 -4.11111244 2.05555622 0 0 Z " fill="#6E2006" transform="translate(92,133)"/>
<path d="M0 0 C7.19002062 -0.0701287 14.3799651 -0.1231252 21.570261 -0.15543652 C24.91061842 -0.17096021 28.25056121 -0.19362314 31.59082031 -0.22631836 C35.44862899 -0.26310748 39.30610912 -0.27981887 43.1640625 -0.29296875 C44.33860992 -0.30845261 45.51315735 -0.32393646 46.72329712 -0.33988953 C58.63450109 -0.34225681 70.76859345 0.77648895 80 9 C80.495 9.99 80.495 9.99 81 11 C79.35 10.67 77.7 10.34 76 10 C76 9.34 76 8.68 76 8 C75.21496094 7.89042969 74.42992187 7.78085938 73.62109375 7.66796875 C72.57050781 7.50941406 71.51992187 7.35085937 70.4375 7.1875 C69.40496094 7.03667969 68.37242187 6.88585937 67.30859375 6.73046875 C64 6 64 6 61.11523438 4.48632812 C55.62543286 2.09497874 49.73421533 2.51935038 43.84765625 2.48828125 C42.59238632 2.47033005 41.33711639 2.45237885 40.04380798 2.43388367 C36.72791007 2.38903953 33.41237687 2.35666223 30.09631348 2.33044434 C26.70404866 2.30051438 23.31201372 2.25402727 19.91992188 2.20898438 C13.28005456 2.12415093 6.64017168 2.05576195 0 2 C0 1.34 0 0.68 0 0 Z " fill="#A46A1F" transform="translate(105,130)"/>
<path d="M0 0 C0.99 0 1.98 0 3 0 C3.33 2.97 3.66 5.94 4 9 C4.66 9 5.32 9 6 9 C6.66 10.65 7.32 12.3 8 14 C8.99 14 9.98 14 11 14 C11.33 15.32 11.66 16.64 12 18 C12.556875 17.814375 13.11375 17.62875 13.6875 17.4375 C16.41721945 16.92106659 18.31135581 17.37954365 21 18 C21.99 18 22.98 18 24 18 C23.814375 18.804375 23.62875 19.60875 23.4375 20.4375 C23.2209375 21.7059375 23.2209375 21.7059375 23 23 C24.96822886 24.96822886 28.34808709 24.66248381 31 25 C31 25.33 31 25.66 31 26 C39.25 26.33 47.5 26.66 56 27 C56 27.33 56 27.66 56 28 C51.60453117 28.14752942 47.20971384 28.23481071 42.8125 28.3125 C40.97268555 28.3753418 40.97268555 28.3753418 39.09570312 28.43945312 C28.23930357 28.58267739 18.22173005 26.53635052 10 19 C10 18.34 10 17.68 10 17 C9.40703125 16.79246094 8.8140625 16.58492187 8.203125 16.37109375 C5.1479037 14.46970602 4.29540353 12.28209068 2.75 9.0625 C2.22921875 8.00160156 1.7084375 6.94070312 1.171875 5.84765625 C0 3 0 3 0 0 Z " fill="#A64614" transform="translate(72,231)"/>
<path d="M0 0 C0.33 0 0.66 0 1 0 C1.00586624 0.61894638 1.01173248 1.23789276 1.01777649 1.87559509 C1.08197835 8.34907867 1.1664659 14.82207737 1.26245117 21.29516602 C1.29559475 23.70721014 1.32365918 26.11932985 1.34643555 28.53149414 C1.38017572 32.00960335 1.43250262 35.48702644 1.48828125 38.96484375 C1.49467117 40.03395493 1.5010611 41.1030661 1.50764465 42.20457458 C1.69251659 51.73462626 3.55228203 59.74396753 10 67 C12.64632262 69.3703946 12.64632262 69.3703946 15 71 C12.625 71.1875 12.625 71.1875 10 71 C9.34 70.01 8.68 69.02 8 68 C7.00033203 67.814375 7.00033203 67.814375 5.98046875 67.625 C5.32691406 67.41875 4.67335938 67.2125 4 67 C2.98828125 64.75 2.98828125 64.75 2.3125 62 C1.69075131 58.71379762 1.69075131 58.71379762 0 56 C-0.09365006 54.2507128 -0.11744438 52.49763746 -0.11352539 50.74584961 C-0.11344986 49.62476303 -0.11337433 48.50367645 -0.11329651 47.34861755 C-0.10813522 46.1288472 -0.10297394 44.90907684 -0.09765625 43.65234375 C-0.0962413 42.41078018 -0.09482635 41.16921661 -0.09336853 39.89002991 C-0.08870591 36.58394509 -0.07971497 33.27792854 -0.06866455 29.97186279 C-0.05844827 26.6003885 -0.05387045 23.22890717 -0.04882812 19.85742188 C-0.03777395 13.23826225 -0.02101736 6.61913507 0 0 Z " fill="#E57A33" transform="translate(105,162)"/>
<path d="M0 0 C0.33 0 0.66 0 1 0 C1.33 17.82 1.66 35.64 2 54 C2.99 54 3.98 54 5 54 C5 54.66 5 55.32 5 56 C4.01 56.495 4.01 56.495 3 57 C1.86649466 59.01669827 1.86649466 59.01669827 1 61 C-0.32 60.67 -1.64 60.34 -3 60 C-2.67854004 58.7632251 -2.35708008 57.5264502 -2.02587891 56.25219727 C-0.75131013 50.49051438 -0.64949058 44.84693872 -0.5859375 38.96484375 C-0.56657135 37.84557999 -0.5472052 36.72631622 -0.5272522 35.57313538 C-0.46787777 32.02799905 -0.42124029 28.4828295 -0.375 24.9375 C-0.33678143 22.52147088 -0.29772748 20.10545482 -0.2578125 17.68945312 C-0.16221122 11.79308542 -0.07704261 5.89663785 0 0 Z " fill="#E7A042" transform="translate(164,162)"/>
<path d="M0 0 C7.81702201 -0.6948464 15.6182986 1.70192016 21.6875 6.75 C22.450625 7.4925 23.21375 8.235 24 9 C23.01 9.33 22.02 9.66 21 10 C20.34 9.67 19.68 9.34 19 9 C19 8.34 19 7.68 19 7 C18.21496094 6.89042969 17.42992187 6.78085938 16.62109375 6.66796875 C10.61800285 5.7619808 5.43846574 4.71923287 0 2 C0 1.34 0 0.68 0 0 Z " fill="#CB9323" transform="translate(162,131)"/>
<path d="M0 0 C1.65 0.33 3.3 0.66 5 1 C5 1.66 5 2.32 5 3 C6.3303125 3.2475 6.3303125 3.2475 7.6875 3.5 C12.19128212 5.53944851 13.92962958 8.6027531 16 13 C16 13.66 16 14.32 16 15 C14.68 15 13.36 15 12 15 C11.67 14.34 11.34 13.68 11 13 C10.01 13.33 9.02 13.66 8 14 C8 13.01 8 12.02 8 11 C8.66 11 9.32 11 10 11 C10 9.35 10 7.7 10 6 C8.1128125 5.8453125 8.1128125 5.8453125 6.1875 5.6875 C3.39500343 5.35141192 2.25566879 5.19974124 0 3.4375 C-0.33 2.963125 -0.66 2.48875 -1 2 C-0.67 1.34 -0.34 0.68 0 0 Z " fill="#F9AC17" transform="translate(176,137)"/>
<path d="M0 0 C12.21 0 24.42 0 37 0 C37 1.98 37 3.96 37 6 C32 4 32 4 29.72387695 2.95556641 C26.57220954 1.84992634 23.9414282 1.68079891 20.60546875 1.5859375 C19.40341797 1.54726563 18.20136719 1.50859375 16.96289062 1.46875 C15.09407227 1.42234375 15.09407227 1.42234375 13.1875 1.375 C11.92228516 1.33632813 10.65707031 1.29765625 9.35351562 1.2578125 C6.23582149 1.16369343 3.11813086 1.07805639 0 1 C0 0.67 0 0.34 0 0 Z " fill="#E57A33" transform="translate(101,257)"/>
<path d="M0 0 C0.72018311 0.16298584 1.44036621 0.32597168 2.18237305 0.49389648 C4.89402117 0.98096403 7.33219353 1.11452642 10.08203125 1.09765625 C11.01337891 1.09443359 11.94472656 1.09121094 12.90429688 1.08789062 C14.34385742 1.07532227 14.34385742 1.07532227 15.8125 1.0625 C16.79154297 1.05798828 17.77058594 1.05347656 18.77929688 1.04882812 C21.18626111 1.03708684 23.59309857 1.02066419 26 1 C24.33263592 3.04470249 23.47502434 3.92566921 20.82348633 4.34057617 C20.00130615 4.32486572 19.17912598 4.30915527 18.33203125 4.29296875 C17.43935547 4.28330078 16.54667969 4.27363281 15.62695312 4.26367188 C14.23379883 4.2259668 14.23379883 4.2259668 12.8125 4.1875 C11.87212891 4.17396484 10.93175781 4.16042969 9.96289062 4.14648438 C7.64134962 4.11113096 5.32096347 4.06178674 3 4 C3 3.34 3 2.68 3 2 C2.01 2 1.02 2 0 2 C0 1.34 0 0.68 0 0 Z " fill="#EE893E" transform="translate(120,233)"/>
<path d="M0 0 C0.99 0.33 1.98 0.66 3 1 C3 1.99 3 2.98 3 4 C3.99 4.33 4.98 4.66 6 5 C9.51756437 10.72718932 11.74713783 16.27575956 11 23 C9.08216895 20.12325342 7.91026693 17.50929449 6.625 14.3125 C4.61861018 9.41262219 2.43915242 4.69762687 0 0 Z " fill="#A87B26" transform="translate(186,141)"/>
<path d="M0 0 C1 3 1 3 0.1796875 5.12109375 C-2.37554679 9.65778217 -4.54497311 13.0724109 -9 16 C-9 14.35 -9 12.7 -9 11 C-7.35 10.67 -5.7 10.34 -4 10 C-4 7.69 -4 5.38 -4 3 C-3.34 3 -2.68 3 -2 3 C-2 2.34 -2 1.68 -2 1 C-1.34 0.67 -0.68 0.34 0 0 Z " fill="#B56F21" transform="translate(195,233)"/>
<path d="M0 0 C-1.19625 0.515625 -2.3925 1.03125 -3.625 1.5625 C-8.1535229 3.87904458 -11.61130448 6.42236049 -14 11 C-14.74851027 14.67811006 -14.98644226 18.25128442 -15 22 C-15.33 22 -15.66 22 -16 22 C-16.6249225 11.27216367 -16.6249225 11.27216367 -14.25 6.4375 C-10.11519265 1.95812537 -6.21513616 -1.81274805 0 0 Z " fill="#7D7D7D" transform="translate(428,202)"/>
<path d="M0 0 C2.97 0.33 5.94 0.66 9 1 C9 1.66 9 2.32 9 3 C9.66 3 10.32 3 11 3 C11 4.65 11 6.3 11 8 C8.33333333 6.66666667 5.66666667 5.33333333 3 4 C3 3.34 3 2.68 3 2 C2.01 1.67 1.02 1.34 0 1 C0 0.67 0 0.34 0 0 Z " fill="#C3661D" transform="translate(138,263)"/>
<path d="M0 0 C0.33 0 0.66 0 1 0 C1.33 1.65 1.66 3.3 2 5 C2.99 5 3.98 5 5 5 C5 5.66 5 6.32 5 7 C4.01 7.495 4.01 7.495 3 8 C1.86649466 10.01669827 1.86649466 10.01669827 1 12 C-0.32 11.67 -1.64 11.34 -3 11 C-2.01 7.37 -1.02 3.74 0 0 Z " fill="#F49631" transform="translate(164,211)"/>
<path d="M0 0 C0 3.67165265 -1.09398129 4.89389544 -3 8 C-4.06619519 10.31008957 -5.03089021 12.64644764 -6 15 C-6.66 15 -7.32 15 -8 15 C-7.83423117 8.53501551 -3.99651306 4.69564198 0 0 Z " fill="#A15320" transform="translate(81,141)"/>
<path d="M0 0 C3.85772618 2.57181746 4.56426362 4.69279085 6 9 C4.02 9.99 4.02 9.99 2 11 C1.34 7.37 0.68 3.74 0 0 Z " fill="#F86116" transform="translate(74,229)"/>
<path d="M0 0 C0.99 0 1.98 0 3 0 C2.25 7.75 2.25 7.75 0 10 C-1.125 3.375 -1.125 3.375 0 0 Z " fill="#CB6421" transform="translate(72,156)"/>
<path d="M0 0 C0 3 0 3 -2.375 5.6875 C-5 8 -5 8 -7 8 C-7.33 8.99 -7.66 9.98 -8 11 C-8.66 11 -9.32 11 -10 11 C-9.34 9.68 -8.68 8.36 -8 7 C-7.34 7 -6.68 7 -6 7 C-5.34 5.68 -4.68 4.36 -4 3 C-3.34 3 -2.68 3 -2 3 C-2 2.34 -2 1.68 -2 1 C-1.34 0.67 -0.68 0.34 0 0 Z " fill="#9C9C9C" transform="translate(304,161)"/>
<path d="M0 0 C0.66 0.33 1.32 0.66 2 1 C2 2.65 2 4.3 2 6 C-0.91517292 4.92598892 -2.77810176 4.22189824 -5 2 C-2.625 0.9375 -2.625 0.9375 0 0 Z " fill="#CE671C" transform="translate(136,257)"/>
<path d="M0 0 C0.66 0.33 1.32 0.66 2 1 C0.625 2.5 0.625 2.5 -1 4 C-1.66 4 -2.32 4 -3 4 C-3 4.66 -3 5.32 -3 6 C-5.31 6.66 -7.62 7.32 -10 8 C-6.91367389 4.7373124 -4.06516496 1.97764782 0 0 Z " fill="#924D17" transform="translate(92,133)"/>
<path d="M0 0 C0.33 1.32 0.66 2.64 1 4 C-1.31 5.65 -3.62 7.3 -6 9 C-4.68775452 5.06326356 -3.08089673 2.77280706 0 0 Z " fill="#F07A22" transform="translate(84,140)"/>
<path d="M0 0 C2.97 0 5.94 0 9 0 C9 0.99 9 1.98 9 3 C5.625 3.1875 5.625 3.1875 2 3 C1.34 2.01 0.68 1.02 0 0 Z " fill="#AF6429" transform="translate(156,276)"/>
<path d="M0 0 C0.99 0.495 0.99 0.495 2 1 C2.33333333 2.66666667 2.66666667 4.33333333 3 6 C3.66 6.33 4.32 6.66 5 7 C4.67 8.32 4.34 9.64 4 11 C1.9656541 9.58480285 1.09589607 8.45017877 0.578125 6.01953125 C0.33726048 4.01823046 0.16467259 2.0090056 0 0 Z " fill="#EB8136" transform="translate(123,208)"/>
<path d="M0 0 C-1.5830577 4.2742558 -4.50568404 6.26531794 -8 9 C-6.68994234 5.06982701 -4.75047804 0 0 0 Z " fill="#9F9F9F" transform="translate(423,180)"/>
<path d="M0 0 C1.65 0 3.3 0 5 0 C1.22687008 3.94463583 1.22687008 3.94463583 -2.1640625 4.09765625 C-3.38222656 4.08025391 -3.38222656 4.08025391 -4.625 4.0625 C-5.85089844 4.04896484 -5.85089844 4.04896484 -7.1015625 4.03515625 C-8.04128906 4.01775391 -8.04128906 4.01775391 -9 4 C-9 3.67 -9 3.34 -9 3 C-5.92382812 2.70703125 -5.92382812 2.70703125 -2.84765625 2.4140625 C-2.23792969 2.27742187 -1.62820312 2.14078125 -1 2 C-0.67 1.34 -0.34 0.68 0 0 Z " fill="#E98E47" transform="translate(139,217)"/>
<path d="M0 0 C0.99 0.33 1.98 0.66 3 1 C3 1.99 3 2.98 3 4 C3.99 4.33 4.98 4.66 6 5 C6.6875 7.0625 6.6875 7.0625 7 9 C4.60510457 8.25675659 3.29222384 7.52942646 2.06640625 5.30859375 C1.32780077 3.55926499 0.65950315 1.78065851 0 0 Z " fill="#8A661C" transform="translate(186,141)"/>
<path d="M0 0 C3.91402949 1.26941497 5.79072873 2.51167694 8 6 C6.35 5.67 4.7 5.34 3 5 C3 4.34 3 3.68 3 3 C2.01 3 1.02 3 0 3 C0 2.01 0 1.02 0 0 Z " fill="#B18526" transform="translate(178,135)"/>
<path d="M0 0 C0.99 0 1.98 0 3 0 C3.33 2.64 3.66 5.28 4 8 C3.34 8 2.68 8 2 8 C0.74335022 5.09399739 0 3.20395416 0 0 Z " fill="#B95320" transform="translate(72,231)"/>
<path d="M0 0 C-2.97 2.475 -2.97 2.475 -6 5 C-6 3.35 -6 1.7 -6 0 C-3 -1 -3 -1 0 0 Z " fill="#A6671E" transform="translate(192,244)"/>
<path d="M0 0 C0.99 0.33 1.98 0.66 3 1 C2.67 1.99 2.34 2.98 2 4 C3.65 4 5.3 4 7 4 C6.67 4.99 6.34 5.98 6 7 C5.67 6.34 5.34 5.68 5 5 C4.01 5.33 3.02 5.66 2 6 C1.34 4.02 0.68 2.04 0 0 Z " fill="#F3641A" transform="translate(78,240)"/>
</svg>
