<?xml version="1.0" encoding="UTF-8"?>
<svg version="1.1" xmlns="http://www.w3.org/2000/svg" width="693" height="360">
<path d="M0 0 C2.47268046 -0.00187336 4.94536063 -0.00417612 7.41804034 -0.00686532 C12.74654452 -0.01166666 18.07503629 -0.01344662 23.40354156 -0.01240921 C31.32703044 -0.0108704 39.25050945 -0.01507606 47.17399639 -0.02028384 C62.14893681 -0.02990292 77.12387378 -0.03276591 92.09881692 -0.03334089 C103.65756924 -0.03380181 115.21632022 -0.03586727 126.7750721 -0.03904152 C130.11128841 -0.03993912 133.44750472 -0.04082894 136.78372103 -0.0417164 C137.61323665 -0.04193744 138.44275228 -0.04215849 139.29740474 -0.04238624 C162.59129764 -0.04853017 185.88519008 -0.05248778 209.17908382 -0.05204296 C210.49349388 -0.05201959 210.49349388 -0.05201959 211.83445767 -0.05199575 C216.27510953 -0.05191265 220.71576139 -0.05181361 225.15641325 -0.05171105 C226.03824836 -0.0516911 226.92008347 -0.05167115 227.82864085 -0.05165061 C229.61191379 -0.05161017 231.39518673 -0.05156837 233.17845967 -0.05152521 C260.9685521 -0.05091147 288.75863236 -0.05844155 316.54872131 -0.07209778 C347.81036194 -0.08745384 379.07199457 -0.0960645 410.3336392 -0.09513456 C413.66514019 -0.09505993 416.99664118 -0.09501122 420.32814217 -0.09498024 C421.55849447 -0.09496276 421.55849447 -0.09496276 422.81370238 -0.09494492 C436.01052162 -0.09491416 449.20733026 -0.101298 462.40414635 -0.1099125 C475.65343193 -0.11838281 488.90270201 -0.11938359 502.1519888 -0.11280318 C510.02202077 -0.10910519 517.89200566 -0.11094757 525.76203266 -0.12074552 C531.63549579 -0.12744051 537.50892196 -0.1237001 543.38238472 -0.1158723 C545.76000856 -0.11433014 548.13763747 -0.11618025 550.51525532 -0.12173238 C553.74346929 -0.12877281 556.97143944 -0.12351413 560.19964504 -0.1151762 C561.58817467 -0.12262847 561.58817467 -0.12262847 563.00475541 -0.13023129 C576.81248312 -0.05469185 576.81248312 -0.05469185 582.04798889 4.13371277 C584.82197273 7.83235788 584.67557866 10.26852835 584.68170166 14.87709045 C584.68509999 15.92897684 584.68509999 15.92897684 584.68856698 17.00211346 C584.6949221 19.36354198 584.69407665 21.72491333 584.69325256 24.08634949 C584.69624313 25.77471491 584.69964542 27.46307965 584.70343018 29.15144348 C584.71228519 33.74649205 584.71460893 38.341522 584.71524596 42.93657827 C584.71619396 46.76867976 584.71987103 50.60077689 584.72341806 54.43287671 C584.73156846 63.47231779 584.73400177 72.5117489 584.73329163 81.55119324 C584.73269079 90.88403124 584.74324247 100.21681144 584.75903529 109.54963481 C584.77210003 117.55476971 584.77747597 125.55988569 584.77683622 133.56503117 C584.7765809 138.34944953 584.77945059 143.13381657 584.79001427 147.91822433 C584.79967725 152.41778876 584.79978683 156.91725261 584.79249763 161.41682053 C584.79144952 163.06962734 584.79382807 164.72244036 584.79985809 166.37523651 C584.80754915 168.62906615 584.80295254 170.88254596 584.79522705 173.1363678 C584.79577182 174.39847013 584.79631659 175.66057247 584.79687786 176.96092033 C584.42155218 181.74550557 584.42155218 181.74550557 582.54798889 184.13371277 C576.65552451 188.32271414 572.09263036 188.70585383 564.97658539 188.63987064 C563.91874885 188.645984 562.86091231 188.65209736 561.77102011 188.65839598 C558.21439592 188.67403813 554.65844949 188.66111211 551.1018219 188.64837646 C548.53101467 188.65369978 545.96021056 188.66076423 543.3894124 188.66942352 C537.79385499 188.68541017 532.19844795 188.68650149 526.60287666 188.67782593 C518.2821368 188.66495977 509.96153304 188.67491266 501.64080136 188.68932548 C486.78054551 188.71427149 471.92035334 188.7161461 457.06008266 188.70805136 C444.05572276 188.70098212 431.05138761 188.70091771 418.04702759 188.70791435 C416.30351187 188.70882568 414.55999615 188.70973644 412.81648043 188.71064664 C410.1892598 188.71202975 407.56203918 188.71342084 404.93481857 188.71483277 C380.50601491 188.72781569 356.07721955 188.73292511 331.64841461 188.72129917 C330.72733131 188.7208612 329.80624801 188.72042323 328.85725309 188.71997199 C321.37710541 188.71636505 313.89695784 188.71253034 306.41681028 188.70868106 C277.2331255 188.69383096 248.04953428 188.70261589 218.86585999 188.7306366 C186.08704233 188.76204891 153.30828007 188.77703963 120.52944708 188.76683658 C117.03594813 188.76579978 113.54244917 188.76481256 110.0489502 188.76385307 C109.18874491 188.76360419 108.32853962 188.7633553 107.44226751 188.76309887 C94.44522613 188.75965579 81.4482336 188.76897637 68.45120239 188.7846241 C53.67480226 188.80237303 38.89852121 188.80255394 24.12212622 188.77927244 C15.8495386 188.76675064 7.5772244 188.76805971 -0.69534731 188.78915331 C-6.86567519 188.80334185 -13.03569169 188.79150389 -19.20599037 188.76935636 C-21.70723316 188.76444945 -24.20850948 188.76805238 -26.70972437 188.7808438 C-30.10053211 188.7969385 -33.48986724 188.78245881 -36.8806076 188.76012516 C-37.85972479 188.77211684 -38.83884197 188.78410852 -39.84762937 188.79646358 C-46.32106425 188.70894762 -49.61146926 187.4990073 -54.45201111 183.13371277 C-56.57633687 178.83414989 -56.70464556 174.90726909 -56.71270752 170.1572876 C-56.71653307 169.47923032 -56.72035861 168.80117304 -56.72430009 168.10256857 C-56.734572 165.84341993 -56.73064912 163.58452822 -56.72666931 161.32536316 C-56.73101899 159.70038621 -56.73620299 158.07541131 -56.74215698 156.45043945 C-56.75553022 152.04548337 -56.75612755 147.64061318 -56.75359368 143.23564076 C-56.75252291 139.55522137 -56.75741004 135.87481927 -56.7621991 132.19440359 C-56.77328834 123.51050451 -56.77373487 114.8266487 -56.76768494 106.14274597 C-56.76164383 97.19043198 -56.77396096 88.2382751 -56.79525501 79.28598791 C-56.81287885 71.59324202 -56.81887116 63.90054611 -56.81561726 56.20778078 C-56.81380562 51.61612864 -56.81642875 47.02458861 -56.8303318 42.43295479 C-56.84291838 38.114669 -56.84095823 33.79662796 -56.82792091 29.47834587 C-56.82555745 27.89613639 -56.82828159 26.31390964 -56.83654404 24.73171997 C-56.84703306 22.56657156 -56.83889454 20.40224116 -56.82623291 18.23712158 C-56.82640065 17.02722596 -56.82656839 15.81733034 -56.82674122 14.57077122 C-56.31354035 9.86364645 -55.20354697 5.74961015 -51.64071215 2.46268033 C-49.12206036 0.93336844 -47.63297926 0.71683746 -44.70618337 0.62669486 C-43.29910351 0.57443576 -43.29910351 0.57443576 -41.86359778 0.52112092 C-40.34353397 0.48817813 -40.34353397 0.48817813 -38.7927618 0.45456982 C-37.19270064 0.40492176 -37.19270064 0.40492176 -35.56031501 0.35427071 C-23.70868423 0.01875731 -11.85543408 -0.0086598 0 0 Z " fill="#C31C22" transform="translate(80.45201110839844,147.8662872314453)"/>
<path d="M0 0 C2.5053256 0.00316206 5.00946727 -0.02041626 7.51464844 -0.0456543 C28.27298918 -0.12635226 51.17160792 2.86454926 67.01464844 17.62817383 C82.21091959 34.34037471 81.94704287 57.04934884 81.13964844 78.31567383 C80.71918889 84.34671003 79.97225534 90.32941254 79.13964844 96.31567383 C79.00816406 97.51450195 78.87667969 98.71333008 78.74121094 99.94848633 C76.78626116 110.89112729 69.63386324 121.06700038 60.76464844 127.50317383 C43.94579311 138.07976596 22.55808903 139.9313309 3.13964844 139.81567383 C2.34170868 139.81391144 1.54376892 139.81214905 0.72164917 139.81033325 C-21.44236817 139.70189576 -45.23571349 137.57601174 -61.96191406 121.40942383 C-76.0673497 105.85281168 -76.87093068 82.15541739 -76.03759766 62.1237793 C-74.93050907 44.58420235 -72.50803955 28.299749 -59.29785156 15.62817383 C-42.37646942 1.70260059 -20.98414037 -0.05513544 0 0 Z " fill="#F4F1F1" transform="translate(333.8603515625,172.684326171875)"/>
<path d="M0 0 C10.89 0 21.78 0 33 0 C41.81980096 26.05850283 41.81980096 26.05850283 43.9375 36.375 C44.97156182 41.34967578 46.56782457 46.15537274 48.14819336 50.97802734 C49.24403527 54.36993911 50.19323793 57.73081633 50.93359375 61.21875 C52.18244494 67.06262048 53.87991205 72.76879322 55.5625 78.5 C55.87896484 79.59570312 56.19542969 80.69140625 56.52148438 81.8203125 C56.82505859 82.85929687 57.12863281 83.89828125 57.44140625 84.96875 C57.71670166 85.91169922 57.99199707 86.85464844 58.27563477 87.82617188 C58.80447612 89.95357746 58.80447612 89.95357746 60 91 C65.7740229 73.76476182 65.7740229 73.76476182 70.2265625 56.1640625 C71.44012535 51.19948722 73.15094142 46.41114531 74.80908203 41.58032227 C76.53886621 36.50345413 77.93183601 31.44036703 79.1484375 26.21484375 C80.49315707 21.13821894 82.21672568 16.19055766 83.93164062 11.22851562 C84.18365234 10.49439453 84.43566406 9.76027344 84.6953125 9.00390625 C85.0358667 8.02659546 85.0358667 8.02659546 85.38330078 7.02954102 C86.08233153 4.7290491 86.52846784 2.3576608 87 0 C98.22 0 109.44 0 121 0 C122.0828125 3.9290625 122.0828125 3.9290625 123.1875 7.9375 C127.5252269 23.85744575 127.5252269 23.85744575 132.5625 39.5625 C134.15025292 44.17496659 135.23252386 48.9089024 136.37915039 53.64477539 C137.57336181 58.49517148 138.96674598 63.24673676 140.5 68 C143.05094176 75.91057566 145.07594877 83.91683504 147 92 C147.45375 90.80375 147.9075 89.6075 148.375 88.375 C148.63023437 87.70210938 148.88546875 87.02921875 149.1484375 86.3359375 C150.95534263 81.37938124 152.36237663 76.55724899 153.375 71.375 C154.5390259 65.78299616 156.09899215 60.53019357 157.9765625 55.14453125 C159.29518057 51.09305205 160.28771161 46.98758844 161.28662109 42.84741211 C163.62777804 33.25987034 166.38521619 23.78252871 169.08032227 14.28979492 C170.41011675 9.53296437 171.70040802 4.76517061 173 0 C183.89 0 194.78 0 206 0 C204.81368468 5.93157658 203.84291979 10.70792453 201.91015625 16.21484375 C200.68523901 19.96319566 199.66166954 23.75844991 198.625 27.5625 C197.01529913 33.45946016 195.30649493 39.30513742 193.4375 45.125 C191.54729413 51.02842676 189.96965797 56.95884729 188.52368164 62.98510742 C187.0206463 69.14944531 185.12222156 75.15538065 183.1484375 81.18359375 C182.3373611 83.87890548 181.66839171 86.435629 181.09765625 89.17578125 C179.57848992 96.27606811 177.21146176 103.14324063 175.00976562 110.0546875 C174.66751953 111.14523437 174.32527344 112.23578125 173.97265625 113.359375 C173.66593994 114.32327148 173.35922363 115.28716797 173.04321289 116.28027344 C171.49486111 121.80114583 170.28931832 127.41295396 169 133 C155.8 133 142.6 133 129 133 C127 129 127 129 126.5625 125.75 C126.05352392 122.35682613 125.13131239 119.61838592 123.8737793 116.44946289 C122.80037174 113.4403827 122.00872303 110.40137527 121.20703125 107.30859375 C119.72709578 101.66562072 118.17883971 96.04682614 116.5625 90.44140625 C116.35337479 89.71509003 116.14424957 88.9887738 115.92878723 88.240448 C115.07294822 85.27186551 114.21501145 82.30389917 113.35449219 79.33666992 C110.81124916 70.55785039 108.36791411 61.77721092 106.25561523 52.88319397 C105.67647939 49.67000511 105.67647939 49.67000511 104 47 C100.53400408 56.96920477 97.41271917 66.92292621 94.82983398 77.15795898 C93.27951402 83.19778613 91.28617637 88.9283227 89.109375 94.7734375 C88.05413812 97.84254196 87.2971691 100.82768972 86.625 104 C84.52155758 113.87756878 81.11866486 123.40863447 78 133 C64.8 133 51.6 133 38 133 C33.5 121.75 33.5 121.75 34 116 C33.34 116 32.68 116 32 116 C31.74605469 114.94941406 31.49210937 113.89882813 31.23046875 112.81640625 C28.83604732 102.8958299 28.83604732 102.8958299 25.7109375 93.1875 C24.85980363 90.56862656 24.23116972 87.9080852 23.57568359 85.23486328 C22.55301699 81.26476569 21.3256775 77.35666381 20.125 73.4375 C17.91921415 66.16657628 15.8590763 58.88163983 13.93359375 51.53125 C11.98867075 44.17472116 10.01716899 36.80913636 7.5 29.625 C4.21000796 20.02469536 2.19617589 9.88279152 0 0 Z " fill="#F3F1F1" transform="translate(434,176)"/>
<path d="M0 0 C16.17 0 32.34 0 49 0 C70.38699642 29.61276428 70.38699642 29.61276428 77.25 39.6875 C81.81743181 46.38493996 86.59474189 52.90668735 91.43408203 59.40942383 C97.01247009 66.94093302 102.35808413 74.62726941 107.6706543 82.34790039 C108.307854 83.27207764 108.94505371 84.19625488 109.6015625 85.1484375 C110.16182129 85.96489746 110.72208008 86.78135742 111.29931641 87.62255859 C113.10744182 90.15019644 115.05858783 92.57323479 117 95 C117.33 63.65 117.66 32.3 118 0 C128.89 0 139.78 0 151 0 C151 43.89 151 87.78 151 133 C134.5 133 118 133 101 133 C94.25576923 124.00769231 94.25576923 124.00769231 91.45703125 119.984375 C90.85826172 119.12585938 90.25949219 118.26734375 89.64257812 117.3828125 C89.03865234 116.51398438 88.43472656 115.64515625 87.8125 114.75 C86.59046251 112.99436081 85.36782822 111.23913684 84.14453125 109.484375 C83.34559448 108.33533691 83.34559448 108.33533691 82.53051758 107.16308594 C81.49258816 105.6961766 80.41493384 104.25673276 79.3034668 102.84472656 C78 101 78 101 78 99 C77.34 99 76.68 99 76 99 C74.95703125 97.6015625 74.95703125 97.6015625 73.8125 95.625 C68.86272115 87.40406296 63.09574944 79.75080063 57.40869141 72.03222656 C49.4168106 61.15718169 41.73878735 50.05541049 34 39 C33.67 70.02 33.34 101.04 33 133 C22.11 133 11.22 133 0 133 C0 89.11 0 45.22 0 0 Z " fill="#F3F2F2" transform="translate(70,176)"/>
<path d="M0 0 C1.43352212 0.00015908 2.86704998 0.00585132 4.30053711 0.01586914 C5.43041298 0.01799156 5.43041298 0.01799156 6.58311462 0.02015686 C8.99807646 0.02577163 11.41294687 0.03832656 13.82788086 0.05102539 C15.46134307 0.05603849 17.09480672 0.06060173 18.72827148 0.06469727 C22.74067671 0.07574585 26.75301326 0.09302033 30.76538086 0.11352539 C31.93945107 2.38079872 33.10477825 4.65187163 34.26538086 6.92602539 C34.59924805 7.56862305 34.93311523 8.2112207 35.27709961 8.87329102 C36.7677717 11.80900238 37.76538086 13.77479056 37.76538086 17.11352539 C38.42538086 17.11352539 39.08538086 17.11352539 39.76538086 17.11352539 C40.12889648 18.00813477 40.49241211 18.90274414 40.86694336 19.82446289 C43.66027786 26.54279048 46.58368236 32.77989807 50.46459961 38.95727539 C52.22680366 41.87840644 53.442566 44.97184009 54.76538086 48.11352539 C56.29702857 50.94991004 57.86737642 53.76056733 59.46069336 56.56274414 C60.60192802 58.79396041 61.29573823 60.66794732 61.76538086 63.11352539 C65.85075778 57.07726623 69.28117686 51.29781137 71.80053711 44.45336914 C73.06313941 41.39143077 74.79836687 38.79081931 76.61694336 36.03540039 C77.75790113 34.12604248 78.48839246 32.33996185 79.20288086 30.23852539 C80.67043744 25.96164623 82.97505103 22.38349028 85.35522461 18.55883789 C86.61391509 16.37617794 87.51318917 14.36276975 88.32788086 11.98852539 C89.76538086 8.11352539 89.76538086 8.11352539 94.76538086 0.11352539 C105.98538086 0.11352539 117.20538086 0.11352539 128.76538086 0.11352539 C128.76538086 31.79352539 128.76538086 63.47352539 128.76538086 96.11352539 C121.50538086 96.11352539 114.24538086 96.11352539 106.76538086 96.11352539 C106.43538086 74.33352539 106.10538086 52.55352539 105.76538086 30.11352539 C103.12538086 35.39352539 100.48538086 40.67352539 97.76538086 46.11352539 C96.69288086 48.23790039 95.62038086 50.36227539 94.51538086 52.55102539 C92.84890609 55.87057166 91.27751315 59.19435048 89.82788086 62.61352539 C87.74541379 67.42594929 85.03963684 71.83149622 82.36303711 76.33227539 C80.54324253 79.50023074 79.14307715 82.73190722 77.76538086 86.11352539 C76.13591756 89.46655474 74.45088613 92.78806905 72.76538086 96.11352539 C66.16538086 96.11352539 59.56538086 96.11352539 52.76538086 96.11352539 C46.63595277 84.48563976 40.56147779 72.83978839 34.73022461 61.05932617 C33.02204155 57.6144327 31.29894779 54.1769948 29.57788086 50.73852539 C28.95932676 49.50157848 28.34083599 48.26459991 27.72241211 47.02758789 C27.0765918 45.73594727 26.43077148 44.44430664 25.76538086 43.11352539 C24.11538086 39.81352539 22.46538086 36.51352539 20.76538086 33.11352539 C20.43538086 53.90352539 20.10538086 74.69352539 19.76538086 96.11352539 C11.84538086 96.11352539 3.92538086 96.11352539 -4.23461914 96.11352539 C-4.2571685 83.74433499 -4.27553326 71.37515814 -4.28643131 59.00595188 C-4.29166056 53.26307477 -4.29875894 47.52021238 -4.31005859 41.77734375 C-4.32088601 36.24012545 -4.32689566 30.70292135 -4.32949638 25.16569328 C-4.3313509 23.04808262 -4.334972 20.93047277 -4.3403492 18.81286812 C-4.3475577 15.85781265 -4.34861016 12.90281669 -4.34814453 9.94775391 C-4.35173981 9.06302902 -4.35533508 8.17830414 -4.35903931 7.26676941 C-4.34682573 0.15256049 -4.34682573 0.15256049 0 0 Z " fill="#E7E7E7" transform="translate(50.234619140625,29.886474609375)"/>
<path d="M0 0 C2.75340763 2.43464064 4.96012586 4.94916184 7 8 C7.51949219 8.75152344 8.03898437 9.50304687 8.57421875 10.27734375 C10.32960517 13.62941042 10.9435776 16.71962943 11.625 20.4375 C11.86476563 21.71496094 12.10453125 22.99242187 12.3515625 24.30859375 C12.56554687 25.52675781 12.77953125 26.74492188 13 28 C13.18820312 29.03511719 13.37640625 30.07023437 13.5703125 31.13671875 C15.15673073 41.70803294 13.29766941 51.70949009 11 62 C10.84144531 62.85722656 10.68289063 63.71445313 10.51953125 64.59765625 C8.70687875 72.1072166 2.93321737 78.28530936 -3 83 C-7.1952627 85.40563798 -11.33187341 86.78500815 -16 88 C-17.12921875 88.31453125 -18.2584375 88.6290625 -19.421875 88.953125 C-38.74903494 93.59501931 -61.43386202 92.56318703 -79.25 83.3125 C-86.89051411 76.88752223 -91.41455182 70.68862686 -94 61 C-94.22429687 60.2059375 -94.44859375 59.411875 -94.6796875 58.59375 C-98.26918999 43.05562962 -98.04584867 22.15835205 -90.3046875 7.87109375 C-85.92525571 1.92251333 -80.55441079 -1.73904521 -74 -5 C-72.329375 -5.86625 -72.329375 -5.86625 -70.625 -6.75 C-48.71821916 -14.30406236 -19.62591131 -12.52770734 0 0 Z M-65.59375 20.171875 C-71.61466973 27.99907065 -70.80843887 39.62355272 -70 49 C-68.9495205 55.38166296 -66.19274108 60.98534776 -61 65 C-58.04560062 66.30698738 -55.1993725 66.67209945 -52 67 C-50.41638672 67.19722656 -50.41638672 67.19722656 -48.80078125 67.3984375 C-39.19288272 68.36675874 -29.27479985 68.45551027 -20.375 64.3125 C-13.74348023 57.85549391 -11.93236465 50.04395921 -11.75 41.0625 C-11.90440726 33.40003971 -12.68139705 24.97228599 -18 19 C-30.37072996 10.05786187 -54.11996869 9.02282335 -65.59375 20.171875 Z " fill="#EAEAEA" transform="translate(286,38)"/>
<path d="M0 0 C2.2336497 0.00316415 4.46597536 -0.02039914 6.69946289 -0.0456543 C18.69699391 -0.09822806 31.72015407 0.86415786 41.24047852 8.96411133 C46.79042934 14.62968613 49.06520486 21.20714295 49.43188477 29.08520508 C49.30297852 31.31567383 49.30297852 31.31567383 48.30297852 32.31567383 C46.52226605 32.40293606 44.73814711 32.42266424 42.95532227 32.41333008 C41.87573242 32.41010742 40.79614258 32.40688477 39.68383789 32.40356445 C38.5475293 32.39518555 37.4112207 32.38680664 36.24047852 32.37817383 C35.10030273 32.37366211 33.96012695 32.36915039 32.78540039 32.36450195 C29.957875 32.3526713 27.13045212 32.33618792 24.30297852 32.31567383 C24.08383789 31.77297852 23.86469727 31.2302832 23.63891602 30.67114258 C22.0784725 27.15062977 20.8597576 24.75587729 17.80297852 22.33911133 C12.62399583 20.8247213 7.67042481 20.88233202 2.30297852 20.94067383 C1.23563477 20.92907227 0.16829102 20.9174707 -0.93139648 20.90551758 C-7.67638229 20.93068544 -12.70615743 21.32480977 -17.69702148 26.31567383 C-18.09749593 28.6384256 -18.43673188 30.9730674 -18.69702148 33.31567383 C-10.89621509 36.62510685 -4.02720777 37.62764289 4.36547852 38.12817383 C12.8093124 38.74544361 21.02564513 39.76952156 29.30297852 41.56567383 C30.19122314 41.74590088 31.07946777 41.92612793 31.99462891 42.11181641 C39.15173595 43.7749098 44.76420448 46.95794042 49.24047852 52.87817383 C51.55511511 58.18822249 51.48580302 63.49591749 51.49047852 69.19067383 C51.50272461 69.96797852 51.5149707 70.7452832 51.52758789 71.54614258 C51.54487143 78.40194804 50.79290427 84.32666391 45.99047852 89.56567383 C45.4168457 90.21020508 44.84321289 90.85473633 44.25219727 91.51879883 C39.62647614 95.78299064 34.91668348 97.13195334 28.92797852 98.44067383 C27.83356445 98.69397461 27.83356445 98.69397461 26.71704102 98.95239258 C6.5142816 103.5340898 -16.96107309 103.34421893 -35.75952148 93.75317383 C-36.39889648 93.27879883 -37.03827148 92.80442383 -37.69702148 92.31567383 C-37.69702148 91.65567383 -37.69702148 90.99567383 -37.69702148 90.31567383 C-38.6193457 89.94055664 -38.6193457 89.94055664 -39.56030273 89.55786133 C-43.60677462 87.20543343 -44.15580492 83.67359652 -45.69702148 79.31567383 C-46.02702148 75.35567383 -46.35702148 71.39567383 -46.69702148 67.31567383 C-38.44702148 67.31567383 -30.19702148 67.31567383 -21.69702148 67.31567383 C-20.37702148 69.95567383 -19.05702148 72.59567383 -17.69702148 75.31567383 C-13.23047585 78.46664209 -8.51540629 79.08137081 -3.19702148 79.62817383 C-2.41109619 79.71010986 -1.6251709 79.7920459 -0.81542969 79.87646484 C7.27788353 80.59017101 16.64316978 81.32441147 23.20141602 75.93286133 C25.68081321 73.44303383 25.68081321 73.44303383 25.11547852 70.00317383 C24.71329102 68.67286133 24.71329102 68.67286133 24.30297852 67.31567383 C15.28119522 64.42446273 6.23527976 63.30763386 -3.13452148 62.31567383 C-32.14104344 59.23719007 -32.14104344 59.23719007 -39.69702148 50.31567383 C-42.34495853 46.53794484 -43.08018271 43.98414574 -43.09545898 39.38598633 C-43.09932617 38.26063477 -43.10319336 37.1352832 -43.10717773 35.97583008 C-43.08977539 34.22592773 -43.08977539 34.22592773 -43.07202148 32.44067383 C-43.08362305 31.28180664 -43.09522461 30.12293945 -43.10717773 28.92895508 C-43.08189873 21.5559134 -42.86653927 15.96501201 -37.86499023 10.20629883 C-26.29777446 0.6239899 -14.57234754 -0.04307098 0 0 Z " fill="#E6E6E6" transform="translate(596.697021484375,27.684326171875)"/>
<path d="M0 0 C27.39 0 54.78 0 83 0 C83 7.26 83 14.52 83 22 C63.86 22 44.72 22 25 22 C25 26.95 25 31.9 25 37 C26.60029053 36.99476318 28.20058105 36.98952637 29.84936523 36.98413086 C35.76260829 36.96608886 41.67584889 36.95457093 47.58911133 36.94506836 C50.15291757 36.9400263 52.71672091 36.93319286 55.28051758 36.92456055 C58.95655021 36.91248936 62.63254498 36.90677058 66.30859375 36.90234375 C67.46274277 36.89718246 68.61689178 36.89202118 69.80601501 36.88670349 C71.3975515 36.88659019 71.3975515 36.88659019 73.02124023 36.88647461 C73.96055893 36.884254 74.89987762 36.88203339 75.86766052 36.87974548 C78 37 78 37 79 38 C79 44.93 79 51.86 79 59 C61.18 59 43.36 59 25 59 C25 63.95 25 68.9 25 74 C27.62763306 73.99214478 27.62763306 73.99214478 30.30834961 73.98413086 C36.08388501 73.96803238 41.85941963 73.95652733 47.63497066 73.94818783 C51.13808885 73.94296011 54.64118285 73.9358645 58.14428711 73.92456055 C62.16780841 73.91165794 66.19130414 73.90677088 70.21484375 73.90234375 C71.47836166 73.89718246 72.74187958 73.89202118 74.04368591 73.88670349 C75.204814 73.88662796 76.36594208 73.88655243 77.56225586 73.88647461 C79.1044706 73.88314369 79.1044706 73.88314369 80.67784119 73.87974548 C83 74 83 74 84 75 C84 81.93 84 88.86 84 96 C56.28 96 28.56 96 0 96 C0 64.32 0 32.64 0 0 Z " fill="#E5E5E5" transform="translate(460,30)"/>
<path d="M0 0 C1.43597359 -0.01140044 2.87190895 -0.03165754 4.30761719 -0.06152344 C16.3521293 -0.31166471 29.59414287 0.27534485 39.25366211 8.46313477 C47.5152616 17.82228975 47.10878565 29.14512602 47.24584961 40.92016602 C47.30192383 42.71260742 47.30192383 42.71260742 47.35913086 44.54125977 C47.44817262 53.67298735 46.1710441 63.12384778 40.12817383 70.39086914 C35.52365102 74.70476846 30.26015626 77.18138951 23.93334961 77.48266602 C22.41741211 77.38985352 22.41741211 77.38985352 20.87084961 77.29516602 C20.87084961 77.95516602 20.87084961 78.61516602 20.87084961 79.29516602 C16.21186731 79.3700384 11.55324506 79.42410433 6.89379883 79.45996094 C5.3130075 79.47492872 3.73225683 79.49531039 2.15161133 79.52148438 C-10.70477668 79.72884547 -21.95894286 79.17902319 -32.12915039 70.29516602 C-39.6725053 61.5743118 -39.45165836 50.78012388 -39.37915039 39.79516602 C-39.39075195 38.0375293 -39.39075195 38.0375293 -39.40258789 36.24438477 C-39.38217904 27.15224099 -39.09075173 17.6719843 -33.12915039 10.29516602 C-28.10692322 5.45515117 -22.77678963 3.11769433 -16.12915039 1.29516602 C-10.95206722 -0.43052838 -5.41968932 0.02982199 0 0 Z " fill="#C51C22" transform="translate(333.129150390625,202.704833984375)"/>
<path d="M0 0 C9.57 0 19.14 0 29 0 C32.04047318 6.68904101 34.35440295 11.87092851 36.2578125 18.671875 C37.18934315 21.59393956 38.52593719 24.16010357 39.95703125 26.86328125 C42.47145438 32.01455261 44.20312328 37.54856397 45.97265625 42.9921875 C46.96497204 45.89744667 48.09727995 48.6816395 49.3125 51.5 C51.26717584 56.1481726 53.09729978 60.82204039 54.8125 65.5625 C55.23144531 66.71878906 55.65039062 67.87507813 56.08203125 69.06640625 C57 72 57 72 57 75 C59.86182803 73.56908598 60.0277375 71.47335292 61.00463867 68.57836914 C61.25060791 67.83063232 61.49657715 67.08289551 61.75 66.3125 C63.68297624 60.61319068 65.75583861 55.0686061 68.1875 49.5625 C69.8431805 45.79881392 71.34336346 42.15040919 72.4375 38.1875 C74.16206 31.96049594 76.77632203 26.09182853 79.28125 20.1484375 C80.96375105 16.13559739 82.49234083 12.081907 84 8 C84.99 5.36 85.98 2.72 87 0 C96.24 0 105.48 0 115 0 C113.97985379 6.12087729 112.2143687 11.24890108 110 17 C109.66613281 17.87527344 109.33226562 18.75054687 108.98828125 19.65234375 C107.50660953 23.45315382 105.96957955 27.14263266 104.0625 30.75 C101.58369535 35.53263485 99.98080056 40.61751573 98.21484375 45.6953125 C97.28434669 48.22650387 96.32949011 50.50925083 95.0625 52.875 C92.67934783 57.35301981 91.03308575 62.11132488 89.28588867 66.86132812 C87.37534877 72.04286177 85.32044351 77.14558321 83.1640625 82.23046875 C81.64616324 85.84184652 80.21750903 89.48615508 78.796875 93.13671875 C78 95 78 95 77 96 C74.1883662 96.08861992 71.40141745 96.11522355 68.58984375 96.09765625 C67.74780899 96.0962413 66.90577423 96.09482635 66.03822327 96.09336853 C63.33794665 96.08775263 60.63775172 96.07519748 57.9375 96.0625 C56.11132932 96.05748705 54.28515734 96.05292379 52.45898438 96.04882812 C47.97262458 96.03777804 43.48632616 96.02050279 39 96 C38.35975202 94.73639305 37.72146195 93.47179396 37.08398438 92.20678711 C36.72832397 91.50267197 36.37266357 90.79855682 36.00622559 90.07310486 C34.65880187 87.29703685 33.56922888 84.45592004 32.5 81.5625 C31.0763341 77.77911875 29.62017082 74.05048096 27.9375 70.375 C26.44694872 67.11254841 25.19259357 63.82038215 24 60.4375 C22.85966639 57.22504266 21.66315069 54.19595189 20.0625 51.1875 C18.21673595 47.66833898 16.92226862 44.06753313 15.625 40.3125 C13.58067673 34.43036739 11.15646529 28.8696538 8.484375 23.25 C6.46836001 18.83598823 4.76474852 14.32560517 3.078125 9.77734375 C2.0813154 7.05735037 2.0813154 7.05735037 0.859375 4.81640625 C0 3 0 3 0 0 Z " fill="#E7E7E7" transform="translate(297,30)"/>
<path d="M0 0 C8.25 0 16.5 0 25 0 C25 31.68 25 63.36 25 96 C16.75 96 8.5 96 0 96 C0 64.32 0 32.64 0 0 Z " fill="#EBEBEB" transform="translate(421,30)"/>
<path d="M0 0 C16.17 0 32.34 0 49 0 C49 0.33 49 0.66 49 1 C33.16 1 17.32 1 1 1 C1.33 43.9 1.66 86.8 2 131 C11.57 131 21.14 131 31 131 C31 99.98 31 68.96 31 37 C31.66 37 32.32 37 33 37 C33 68.68 33 100.36 33 133 C22.11 133 11.22 133 0 133 C0 89.11 0 45.22 0 0 Z " fill="#FBD3D5" transform="translate(70,176)"/>
<path d="M0 0 C1.125 3.75 1.125 3.75 0 6 C-0.10207646 8.14691507 -0.13787652 10.29706655 -0.14476013 12.44639587 C-0.14828698 13.11569061 -0.15181382 13.78498535 -0.15544754 14.47456175 C-0.16616202 16.72775835 -0.16982024 18.98091272 -0.17358398 21.23413086 C-0.17988708 22.84530314 -0.1866526 24.45647367 -0.19384766 26.06764221 C-0.2085335 29.54238968 -0.22025169 33.01713033 -0.22979546 36.49189568 C-0.24522065 41.98311922 -0.2691689 47.47428467 -0.29469299 52.96546936 C-0.36597058 68.58200414 -0.42572292 84.1985721 -0.47680664 99.81518555 C-0.50508193 108.43605339 -0.54044695 117.05686335 -0.58346039 125.67767054 C-0.61028027 131.13948095 -0.62815614 136.60122586 -0.63949764 142.06308925 C-0.64860581 145.45791062 -0.66595898 148.85265222 -0.68567657 152.24742699 C-0.69316731 153.82484944 -0.69723405 155.40229233 -0.69767189 156.97973251 C-0.69875034 159.12885444 -0.71196078 161.27756806 -0.72825623 163.42662048 C-0.73248816 164.63064986 -0.7367201 165.83467924 -0.74108028 167.07519436 C-1 170 -1 170 -3 173 C-3.07009892 151.47720677 -3.12299253 129.95443237 -3.15543652 108.43154812 C-3.17090161 98.43796916 -3.19198433 88.44446115 -3.22631836 78.45092773 C-3.25623162 69.73998134 -3.27557761 61.02908635 -3.28226548 52.31809002 C-3.28617447 47.70620649 -3.29535373 43.09446998 -3.31719017 38.48263359 C-3.33758574 34.13983221 -3.34382759 29.79723811 -3.33932304 25.45439339 C-3.34014687 23.86250303 -3.34609426 22.27060558 -3.35761642 20.67875671 C-3.37260905 18.50018004 -3.36892957 16.32237934 -3.36076355 14.14378357 C-3.36352893 12.92609504 -3.36629431 11.70840651 -3.36914349 10.45381832 C-2.93426949 6.38500541 -1.77348941 3.66534607 0 0 Z " fill="#961616" transform="translate(27,152)"/>
<path d="M0 0 C0.33 0 0.66 0 1 0 C1.04667308 17.43687945 1.08196577 34.87373947 1.10362434 52.31066704 C1.11394706 60.40651408 1.12802632 68.50232236 1.15087891 76.59814453 C1.17078241 83.65256562 1.18370919 90.70695864 1.18817699 97.76140702 C1.19078954 101.49840208 1.19695067 105.23531684 1.21146011 108.97228622 C1.22750743 113.13895007 1.22798165 117.30547335 1.22705078 121.47216797 C1.23424133 122.71797638 1.24143188 123.96378479 1.24884033 125.24734497 C1.246091 126.37759094 1.24334167 127.50783691 1.24050903 128.67233276 C1.24235262 129.65865126 1.24419621 130.64496975 1.24609566 131.66117668 C1 134 1 134 -1 136 C-3.13870239 136.20254517 -3.13870239 136.20254517 -5.81689453 136.13525391 C-7.31822433 136.10499619 -7.31822433 136.10499619 -8.84988403 136.0741272 C-9.93325043 136.04193085 -11.01661682 136.0097345 -12.1328125 135.9765625 C-13.23978485 135.95153656 -14.3467572 135.92651062 -15.48727417 135.90072632 C-19.03348643 135.81835514 -22.57915591 135.72183122 -26.125 135.625 C-28.52471719 135.56677799 -30.92445685 135.50947436 -33.32421875 135.453125 C-39.21644826 135.31275091 -45.108293 135.16074623 -51 135 C-51 134.34 -51 133.68 -51 133 C-34.5 132.67 -18 132.34 -1 132 C-0.67 88.44 -0.34 44.88 0 0 Z " fill="#B63035" transform="translate(222,176)"/>
<path d="M0 0 C0.33 0 0.66 0 1 0 C1 43.56 1 87.12 1 132 C-15.17 132 -31.34 132 -48 132 C-49.485 129.525 -49.485 129.525 -51 127 C-49.35 127.66 -47.7 128.32 -46 129 C-30.82 129.33 -15.64 129.66 0 130 C0 87.1 0 44.2 0 0 Z " fill="#F9ECEC" transform="translate(219,177)"/>
<path d="M0 0 C0.66 0.33 1.32 0.66 2 1 C1.3503125 2.85625 1.3503125 2.85625 0.6875 4.75 C-0.47616503 8.22490757 -1.42436125 11.68077905 -2.25 15.25 C-4.52245994 24.68377963 -7.85879895 33.8277445 -11 43 C-13.53849129 39.19226307 -14.47302797 35.43944336 -15.6875 31.0625 C-15.92533203 30.25103516 -16.16316406 29.43957031 -16.40820312 28.60351562 C-16.62798828 27.81783203 -16.84777344 27.03214844 -17.07421875 26.22265625 C-17.27619873 25.50859619 -17.47817871 24.79453613 -17.6862793 24.05883789 C-18.03828103 21.74877514 -17.70940527 20.20769403 -17 18 C-16 19 -16 19 -15.9375 22.0625 C-15.958125 23.031875 -15.97875 24.00125 -16 25 C-15.34 25 -14.68 25 -14 25 C-14 24.34 -14 23.68 -14 23 C-12.68 23 -11.36 23 -10 23 C-9.67 22.01 -9.34 21.02 -9 20 C-8.67 20.99 -8.34 21.98 -8 23 C-7.34 23 -6.68 23 -6 23 C-6 21.02 -6 19.04 -6 17 C-5.34 17 -4.68 17 -4 17 C-3.96261719 16.35933594 -3.92523438 15.71867188 -3.88671875 15.05859375 C-3.45662723 9.39993859 -2.53913094 5.07826187 0 0 Z " fill="#B8262C" transform="translate(505,226)"/>
<path d="M0 0 C11.22 0 22.44 0 34 0 C34 0.33 34 0.66 34 1 C23.11 1 12.22 1 1 1 C1 32.68 1 64.36 1 97 C-4 93 -4 93 -5 90 C-4.01 90.33 -3.02 90.66 -2 91 C-1.67 89.68 -1.34 88.36 -1 87 C-1.66 87 -2.32 87 -3 87 C-3 86.01 -3 85.02 -3 84 C-2.01 83.505 -2.01 83.505 -1 83 C-0.67 55.61 -0.34 28.22 0 0 Z " fill="#BA3E41" transform="translate(187,175)"/>
<path d="M0 0 C5.625 5.625 5.625 5.625 7.8125 9.8125 C8.23144531 10.60269531 8.65039062 11.39289063 9.08203125 12.20703125 C9.38496094 12.79871094 9.68789062 13.39039063 10 14 C8.68 14 7.36 14 6 14 C6 13.34 6 12.68 6 12 C4.68 12 3.36 12 2 12 C1.67 39.06 1.34 66.12 1 94 C0.67 94 0.34 94 0 94 C0 62.98 0 31.96 0 0 Z " fill="#BB1E21" transform="translate(104,215)"/>
<path d="M0 0 C2.09378358 -0.00434295 4.18540054 -0.04065886 6.27880859 -0.07861328 C18.26973958 -0.17904014 30.06120944 1.28565441 39.49365234 9.37060547 C36.49365234 9.37060547 36.49365234 9.37060547 33.49365234 8.37060547 C33.49365234 7.71060547 33.49365234 7.05060547 33.49365234 6.37060547 C28.55103417 5.2173279 23.53703896 4.8308757 18.49365234 4.37060547 C18.49365234 3.71060547 18.49365234 3.05060547 18.49365234 2.37060547 C14.1010087 2.48994784 9.70854019 2.61425285 5.31616211 2.74291992 C3.82563983 2.78591111 2.33507954 2.82760683 0.84448242 2.86791992 C-6.9804325 3.08039666 -14.73786924 3.3283857 -22.50634766 4.37060547 C-22.50634766 5.03060547 -22.50634766 5.69060547 -22.50634766 6.37060547 C-23.82634766 6.70060547 -25.14634766 7.03060547 -26.50634766 7.37060547 C-26.83634766 6.71060547 -27.16634766 6.05060547 -27.50634766 5.37060547 C-18.49979767 0.41700298 -10.0696975 -0.00232825 0 0 Z " fill="#B43B3F" transform="translate(333.50634765625,202.62939453125)"/>
<path d="M0 0 C0 0.66 0 1.32 0 2 C-0.66 2 -1.32 2 -2 2 C-2 2.99 -2 3.98 -2 5 C-2.66 5 -3.32 5 -4 5 C-4.33 7.31 -4.66 9.62 -5 12 C-5.99 11.67 -6.98 11.34 -8 11 C-8 24.2 -8 37.4 -8 51 C-8.66 51 -9.32 51 -10 51 C-11.39797669 44.9451224 -11.18419271 38.93463539 -11.1875 32.75 C-11.19974609 31.56019531 -11.21199219 30.37039062 -11.22460938 29.14453125 C-11.24231241 18.46369733 -10.44997499 9.4980471 -3.375 1.0625 C-2 0 -2 0 0 0 Z " fill="#B42931" transform="translate(305,210)"/>
<path d="M0 0 C1.20571655 0.25450928 1.20571655 0.25450928 2.43579102 0.51416016 C6.70553028 1.09617133 10.73369828 0.96455488 15.02734375 0.7734375 C16.8079188 0.71026005 18.58851882 0.64778332 20.36914062 0.5859375 C23.14014751 0.48360541 25.91062063 0.37616732 28.6809082 0.25585938 C42.00220148 -0.30861234 54.50734383 -0.35129052 67 5 C63.02228296 6.53067223 59.49108696 5.43669791 55.484375 4.578125 C46.54090062 2.83875939 37.85722535 2.60552367 28.76904297 2.71875 C26.23780501 2.75015128 23.70719586 2.75977089 21.17578125 2.765625 C12.07254428 2.80951204 3.06597101 3.12159362 -6 4 C-3 2 -3 2 0 2 C0 1.34 0 0.68 0 0 Z " fill="#AA3537" transform="translate(310,171)"/>
<path d="M0 0 C0.33 0.66 0.66 1.32 1 2 C-0.1875 4.5625 -0.1875 4.5625 -2 7 C-4.125 7.625 -4.125 7.625 -6 8 C-6.33 8.99 -6.66 9.98 -7 11 C-8.65071396 12.02611949 -10.31970006 13.02308143 -12 14 C-12.9590625 15.0828125 -12.9590625 15.0828125 -13.9375 16.1875 C-16.70396773 18.61863831 -18.41431421 18.22887356 -22 18 C-22.99 18.33 -23.98 18.66 -25 19 C-27.00875442 18.72428861 -29.01178687 18.39764263 -31 18 C-27.87527805 15.91685203 -25.54363607 15.26238805 -21.9375 14.3125 C-16.04954892 12.58036226 -11.74653867 10.14623962 -6.92578125 6.390625 C-5 5 -5 5 -3 5 C-2.690625 4.360625 -2.38125 3.72125 -2.0625 3.0625 C-1 1 -1 1 0 0 Z " fill="#B83337" transform="translate(403,291)"/>
<path d="M0 0 C3.00617269 3.00617269 2.59585316 5.82381598 3 10 C3.66 10 4.32 10 5 10 C5.33 11.32 5.66 12.64 6 14 C19.365 14.495 19.365 14.495 33 15 C33 15.66 33 16.32 33 17 C23.43 17 13.86 17 4 17 C2.04261062 13.08522124 1.56445203 10.27370825 1 6 C0.67 5.67 0.34 5.34 0 5 C-0.04063832 3.33382885 -0.042721 1.66611905 0 0 Z " fill="#FCE1E1" transform="translate(559,292)"/>
<path d="M0 0 C-0.99 0 -1.98 0 -3 0 C-3.33 1.32 -3.66 2.64 -4 4 C-17.86 3.67 -31.72 3.34 -46 3 C-46 2.67 -46 2.34 -46 2 C-45.18958252 1.98018066 -44.37916504 1.96036133 -43.54418945 1.93994141 C-40.47056366 1.86076596 -37.39725823 1.77405496 -34.32397461 1.68261719 C-32.36652645 1.62654755 -30.40884599 1.57878078 -28.45117188 1.53125 C-21.05751188 1.30548939 -13.97066817 0.68161206 -6.69604492 -0.68212891 C-4.09118168 -0.98924943 -2.45903866 -0.83495157 0 0 Z " fill="#B73B3E" transform="translate(372,310)"/>
<path d="M0 0 C1.49202644 2.80438686 2.53665367 5.50852904 3.40234375 8.5625 C3.65161621 9.43672607 3.90088867 10.31095215 4.15771484 11.21166992 C4.41504395 12.13181885 4.67237305 13.05196777 4.9375 14 C5.20256348 14.93884033 5.46762695 15.87768066 5.74072266 16.8449707 C11 35.5853889 11 35.5853889 11 39 C10.34 39 9.68 39 9 39 C7.19336627 35.0254058 6.58016925 31.30982872 6 27 C5.67 26.67 5.34 26.34 5 26 C4.87625 24.948125 4.7525 23.89625 4.625 22.8125 C4.20832848 18.99857825 4.20832848 18.99857825 2.375 15.9375 C0.7373301 12.43884157 1.03782073 10.67377539 2 7 C1.34 7 0.68 7 0 7 C0 4.69 0 2.38 0 0 Z " fill="#F5D4D3" transform="translate(474,202)"/>
<path d="M0 0 C10.89 0 21.78 0 33 0 C32.67 0.99 32.34 1.98 32 3 C32 2.34 32 1.68 32 1 C21.77 1 11.54 1 1 1 C0.67 4.63 0.34 8.26 0 12 C-0.66 12 -1.32 12 -2 12 C-2 14.97 -2 17.94 -2 21 C-2.99 21 -3.98 21 -5 21 C-4.35610937 18.0620618 -3.70997221 15.124649 -3.0625 12.1875 C-2.78889648 10.93743164 -2.78889648 10.93743164 -2.50976562 9.66210938 C-2.33251953 8.85966797 -2.15527344 8.05722656 -1.97265625 7.23046875 C-1.81031494 6.49207764 -1.64797363 5.75368652 -1.48071289 4.99291992 C-1 3 -1 3 0 0 Z " fill="#F6C7C9" transform="translate(607,176)"/>
<path d="M0 0 C0.51739746 0.13712402 1.03479492 0.27424805 1.56787109 0.41552734 C10.19071095 2.43348505 18.81718709 2.44888043 27.625 2.625 C29.21746732 2.66326332 30.80991579 2.70231961 32.40234375 2.7421875 C36.26807268 2.83726535 40.13389794 2.92162015 44 3 C44 2.34 44 1.68 44 1 C48.455 0.505 48.455 0.505 53 0 C52.67 0.66 52.34 1.32 52 2 C50.68 2 49.36 2 48 2 C48 2.66 48 3.32 48 4 C43.7689177 5.0470551 39.71775468 5.09495117 35.390625 4.984375 C34.30125641 4.95963104 34.30125641 4.95963104 33.18988037 4.93438721 C31.65678186 4.89701261 30.12375741 4.85648271 28.59082031 4.81298828 C26.27156729 4.75058035 23.95253087 4.70888176 21.6328125 4.66796875 C13.96364746 4.48581214 7.15890992 4.04008503 0 1 C0 0.67 0 0.34 0 0 Z " fill="#FAD8DA" transform="translate(310,279)"/>
<path d="M0 0 C0.33 0 0.66 0 1 0 C1.02887236 3.81248426 1.04675492 7.6249407 1.0625 11.4375 C1.07087891 12.52611328 1.07925781 13.61472656 1.08789062 14.73632812 C1.09111328 15.77080078 1.09433594 16.80527344 1.09765625 17.87109375 C1.10289307 18.82943115 1.10812988 19.78776855 1.11352539 20.77514648 C1 23 1 23 0 24 C-0.23192865 25.51469448 -0.41215238 27.03754562 -0.5625 28.5625 C-0.64628906 29.38878906 -0.73007812 30.21507812 -0.81640625 31.06640625 C-0.87699219 31.70449219 -0.93757813 32.34257812 -1 33 C-1.33 33 -1.66 33 -2 33 C-2.02949232 29.54168516 -2.0469616 26.08340346 -2.0625 22.625 C-2.07087891 21.65949219 -2.07925781 20.69398438 -2.08789062 19.69921875 C-2.10886909 13.44763611 -2.03506506 7.18143747 -1 1 C-0.67 0.67 -0.34 0.34 0 0 Z " fill="#EFC9C9" transform="translate(260,221)"/>
<path d="M0 0 C9.57 0 19.14 0 29 0 C29.33 1.32 29.66 2.64 30 4 C29.34 3.67 28.68 3.34 28 3 C26.04225931 2.84621148 24.07982648 2.75028537 22.1171875 2.68359375 C20.95058594 2.64169922 19.78398437 2.59980469 18.58203125 2.55664062 C17.35871094 2.51732422 16.13539063 2.47800781 14.875 2.4375 C13.64394531 2.39431641 12.41289062 2.35113281 11.14453125 2.30664062 C8.09647147 2.20031296 5.0483281 2.09828219 2 2 C2.33 3.65 2.66 5.3 3 7 C0 3.375 0 3.375 0 0 Z " fill="#838281" transform="translate(297,30)"/>
<path d="M0 0 C0.66 0 1.32 0 2 0 C2.4125 0.9075 2.825 1.815 3.25 2.75 C4.7385852 6.05432647 4.7385852 6.05432647 7.3125 7.75 C9 10 9 10 8.80859375 12.46875 C8.29746108 15.0136903 7.705418 17.50243898 7 20 C3.64990376 16.35233075 2.87745116 12.44075766 1.8125 7.75 C1.63525391 7.00492188 1.45800781 6.25984375 1.27539062 5.4921875 C0.84165807 3.66347729 0.41965403 1.83199221 0 0 Z " fill="#B6242A" transform="translate(478,215)"/>
<path d="M0 0 C1.85044922 0.01353516 1.85044922 0.01353516 3.73828125 0.02734375 C6.74240024 0.05063149 9.74608943 0.08333244 12.75 0.125 C12.75 0.455 12.75 0.785 12.75 1.125 C9.12 1.455 5.49 1.785 1.75 2.125 C1.75 2.455 1.75 2.785 1.75 3.125 C-7.49 3.125 -16.73 3.125 -26.25 3.125 C-26.25 2.795 -26.25 2.465 -26.25 2.125 C-17.42465025 0.32544018 -8.99107307 -0.12690983 0 0 Z " fill="#5E5E5C" transform="translate(245.25,27.875)"/>
<path d="M0 0 C0.33 0 0.66 0 1 0 C1.02473868 3.93268867 1.04287835 7.86534713 1.05493164 11.7980957 C1.06242729 13.79314768 1.07513345 15.78817786 1.08789062 17.78320312 C1.09111328 19.03681641 1.09433594 20.29042969 1.09765625 21.58203125 C1.10289307 22.73936768 1.10812988 23.8967041 1.11352539 25.08911133 C1 28 1 28 0 31 C-0.66 31 -1.32 31 -2 31 C-2.22673326 29.64879233 -2.43028793 28.29369222 -2.625 26.9375 C-2.74101562 26.18339844 -2.85703125 25.42929688 -2.9765625 24.65234375 C-3.00718215 21.18722056 -1.95812534 18.32525855 -1 15 C-0.72433032 12.36033278 -0.51572333 9.71278937 -0.375 7.0625 C-0.33632813 6.37865234 -0.29765625 5.69480469 -0.2578125 4.99023438 C-0.16477588 3.32720487 -0.08136213 1.66364153 0 0 Z " fill="#B12D32" transform="translate(379,230)"/>
<path d="M0 0 C4.59216906 4.06734974 7.2167907 8.56385928 10 14 C8.68 14 7.36 14 6 14 C6 13.34 6 12.68 6 12 C4.68 12 3.36 12 2 12 C-0.60018816 8.09971775 -0.15085514 4.52565431 0 0 Z " fill="#BD2529" transform="translate(104,215)"/>
<path d="M0 0 C2.67848546 2.67848546 2.30504006 4.13970861 2.4140625 7.8828125 C2.45273437 9.04941406 2.49140625 10.21601563 2.53125 11.41796875 C2.5621875 12.64128906 2.593125 13.86460937 2.625 15.125 C2.66367187 16.35605469 2.70234375 17.58710938 2.7421875 18.85546875 C2.8366999 21.90349376 2.92225494 24.95150862 3 28 C2.34 28 1.68 28 1 28 C0.18101378 24.42649959 -0.11811958 21.14340521 -0.09765625 17.48046875 C-0.09443359 16.45888672 -0.09121094 15.43730469 -0.08789062 14.38476562 C-0.07951172 13.32966797 -0.07113281 12.27457031 -0.0625 11.1875 C-0.05798828 10.11306641 -0.05347656 9.03863281 -0.04882812 7.93164062 C-0.03707729 5.28770317 -0.02064787 2.64388048 0 0 Z " fill="#AD242A" transform="translate(294,233)"/>
<path d="M0 0 C0.33 0 0.66 0 1 0 C1.3690205 12.66970387 1.3690205 12.66970387 -1 18 C-1.33 18 -1.66 18 -2 18 C-2.33 19.98 -2.66 21.96 -3 24 C-3.99 23.67 -4.98 23.34 -6 23 C-4.11495973 15.30275222 -2.0529608 7.65375679 0 0 Z " fill="#BA393D" transform="translate(636,188)"/>
<path d="M0 0 C3.79303725 1.00193437 6.71536341 1.81024227 10 4 C12.15274948 3.69159401 12.15274948 3.69159401 14 3 C14.33 4.32 14.66 5.64 15 7 C16.32 7 17.64 7 19 7 C19 7.66 19 8.32 19 9 C11.4450648 8.08520618 5.89734919 5.88596805 0 1 C0 0.67 0 0.34 0 0 Z " fill="#B93139" transform="translate(301,272)"/>
<path d="M0 0 C0.33 0 0.66 0 1 0 C1 2.64 1 5.28 1 8 C0.01 8.495 0.01 8.495 -1 9 C-1.63860769 11.69797102 -2.16825242 14.33366623 -2.625 17.0625 C-2.7590625 17.82111328 -2.893125 18.57972656 -3.03125 19.36132812 C-3.36200122 21.23952258 -3.68200734 23.11960338 -4 25 C-4.99 25 -5.98 25 -7 25 C-5.79121509 16.15963272 -3.17300542 8.29583478 0 0 Z " fill="#B94247" transform="translate(526,260)"/>
<path d="M0 0 C0.33 0 0.66 0 1 0 C1.2954439 5.02254631 0.98514628 7.89542386 -2 12 C-2.66 11.67 -3.32 11.34 -4 11 C-4.6328125 8.93359375 -4.6328125 8.93359375 -5.125 6.4375 C-5.29257812 5.61121094 -5.46015625 4.78492188 -5.6328125 3.93359375 C-5.75398438 3.29550781 -5.87515625 2.65742188 -6 2 C-5.01 2 -4.02 2 -3 2 C-2.67 2.33 -2.34 2.66 -2 3 C-1.34 2.01 -0.68 1.02 0 0 Z " fill="#F6EBE7" transform="translate(461,248)"/>
<path d="M0 0 C0.33 0 0.66 0 1 0 C1.18175781 0.845625 1.36351562 1.69125 1.55078125 2.5625 C3.21665966 10.19265296 3.21665966 10.19265296 5.75 17.5625 C7.01474069 21.04053689 7.06571219 21.70925357 6 25 C6 24.01 6 23.02 6 22 C5.34 22 4.68 22 4 22 C1.68508291 17.26951724 0.61699104 13.32930722 0.1875 8.0859375 C0.02546739 5.83303632 0.02546739 5.83303632 -0.625 3 C-0.74875 2.34 -0.8725 1.68 -1 1 C-0.67 0.67 -0.34 0.34 0 0 Z " fill="#B43840" transform="translate(554,277)"/>
<path d="M0 0 C0.33 0 0.66 0 1 0 C1.41886645 6.49242993 0.57715181 10.75678688 -2.04296875 16.69140625 C-3.17660779 19.42602124 -3.69070017 22.06165163 -4 25 C-6.1047819 21.57111894 -6.1047819 21.57111894 -5.64453125 19.0625 C-5.23267578 18.0415625 -5.23267578 18.0415625 -4.8125 17 C-2.73444862 11.44306795 -1.37533163 5.76468788 0 0 Z " fill="#B3373E" transform="translate(617,255)"/>
<path d="M0 0 C2.42130331 2.42130331 2.52840504 3.80111377 3.125 7.125 C3.29257812 8.03507813 3.46015625 8.94515625 3.6328125 9.8828125 C3.81457031 10.93082031 3.81457031 10.93082031 4 12 C2.35 12 0.7 12 -1 12 C-2.42857143 3.42857143 -2.42857143 3.42857143 0 0 Z " fill="#B73F43" transform="translate(538,222)"/>
<path d="M0 0 C1.98 0 3.96 0 6 0 C6 0.66 6 1.32 6 2 C5.14277344 2.25394531 4.28554688 2.50789062 3.40234375 2.76953125 C-2.55843442 4.56381284 -8.35255322 6.37328057 -14 9 C-14 8.01 -14 7.02 -14 6 C-13.01 6 -12.02 6 -11 6 C-11 5.01 -11 4.02 -11 3 C-5.555 2.505 -5.555 2.505 0 2 C0 1.34 0 0.68 0 0 Z " fill="#B32B31" transform="translate(295,175)"/>
<path d="M0 0 C4.04006274 6.06009411 5.20365356 13.83288208 6 21 C5.34 20.67 4.68 20.34 4 20 C4 19.01 4 18.02 4 17 C3.01 17 2.02 17 1 17 C1.020625 16.05125 1.04125 15.1025 1.0625 14.125 C1.07223474 9.38418015 0.53024009 4.70588083 0 0 Z " fill="#B23437" transform="translate(441,203)"/>
<path d="M0 0 C0.33 0 0.66 0 1 0 C1 2.64 1 5.28 1 8 C0.34 8 -0.32 8 -1 8 C-1.04898438 8.72445312 -1.09796875 9.44890625 -1.1484375 10.1953125 C-1.55206152 15.41458867 -2.01275807 20.09813658 -4 25 C-4.66 24.67 -5.32 24.34 -6 24 C-4.47505001 15.79122663 -2.89530291 7.85867932 0 0 Z " fill="#F2C8C6" transform="translate(515,196)"/>
<path d="M0 0 C0.33 0 0.66 0 1 0 C1.76974782 19.32922307 1.76974782 19.32922307 -4 26 C-4.1525018 21.59070891 -3.63465719 17.83573896 -2.5625 13.5625 C-1.46488415 9.03742334 -0.53751847 4.62265886 0 0 Z " fill="#F8DCDD" transform="translate(413,254)"/>
<path d="M0 0 C3.19249477 2.96647745 5.4592987 6.04963636 7.75 9.75 C8.36359375 10.73484375 8.9771875 11.7196875 9.609375 12.734375 C10.29773438 13.85585937 10.29773438 13.85585937 11 15 C6.1328125 13.234375 6.1328125 13.234375 4.9375 11.125 C4.628125 10.42375 4.31875 9.7225 4 9 C3.29875 8.360625 2.5975 7.72125 1.875 7.0625 C0 5 0 5 -0.25 2.25 C-0.1675 1.5075 -0.085 0.765 0 0 Z " fill="#F3D6D4" transform="translate(141,208)"/>
<path d="M0 0 C3.45101522 4.24740335 6.73279209 8.61105071 10 13 C9.67 13.66 9.34 14.32 9 15 C8.34 14.67 7.68 14.34 7 14 C6.67 14.66 6.34 15.32 6 16 C5.731875 14.88625 5.46375 13.7725 5.1875 12.625 C4.34190981 8.78159049 4.34190981 8.78159049 1 7 C0.3125 3.375 0.3125 3.375 0 0 Z " fill="#F7D9DA" transform="translate(124,184)"/>
<path d="M0 0 C0.68449219 0.31710937 1.36898437 0.63421875 2.07421875 0.9609375 C5.39750379 2.14116957 8.29754535 2.41197245 11.8125 2.625 C13.55466797 2.73714844 13.55466797 2.73714844 15.33203125 2.8515625 C16.21246094 2.90054687 17.09289062 2.94953125 18 3 C17.67 3.66 17.34 4.32 17 5 C14.73078464 5.13489391 12.4592933 5.23193995 10.1875 5.3125 C8.29064453 5.39951172 8.29064453 5.39951172 6.35546875 5.48828125 C3 5 3 5 1.05078125 2.48046875 C0.53064453 1.25263672 0.53064453 1.25263672 0 0 Z " fill="#FCE1E0" transform="translate(168,304)"/>
<path d="M0 0 C0.66 0.66 1.32 1.32 2 2 C1.79503906 2.58007812 1.59007812 3.16015625 1.37890625 3.7578125 C-0.14009813 8.1621984 -1.4047151 12.35677777 -2 17 C-2.66 17 -3.32 17 -4 17 C-4.05395478 15.37536158 -4.09277195 13.75021459 -4.125 12.125 C-4.14820313 11.22007812 -4.17140625 10.31515625 -4.1953125 9.3828125 C-4 7 -4 7 -2 5 C-1.29289322 3.35008418 -0.62056011 1.68437744 0 0 Z " fill="#B83336" transform="translate(263,200)"/>
<path d="M0 0 C5.73091655 2.2349326 9.9590812 4.30732011 14 9 C13.01 9 12.02 9 11 9 C11 8.34 11 7.68 11 7 C9.88625 7.061875 8.7725 7.12375 7.625 7.1875 C6.42875 7.125625 5.2325 7.06375 4 7 C3.34 6.01 2.68 5.02 2 4 C1.01 3.67 0.02 3.34 -1 3 C-0.67 2.01 -0.34 1.02 0 0 Z " fill="#F8E0DF" transform="translate(385,181)"/>
<path d="M0 0 C0.66 0 1.32 0 2 0 C5.09866202 6.62615673 6.47266289 11.67372525 6 19 C4.25932457 15.74603466 3.04505008 12.43464968 1.875 8.9375 C1.52179688 7.89464844 1.16859375 6.85179687 0.8046875 5.77734375 C0 3 0 3 0 0 Z " fill="#F7D1D3" transform="translate(449,230)"/>
<path d="M0 0 C4.54075781 4.14010271 7.71842138 8.82390176 11 14 C10.01 14.495 10.01 14.495 9 15 C9 14.34 9 13.68 9 13 C8.01 13 7.02 13 6 13 C5.34 10.69 4.68 8.38 4 6 C2.68 5.67 1.36 5.34 0 5 C0 3.35 0 1.7 0 0 Z " fill="#F6D3D2" transform="translate(157,231)"/>
<path d="M0 0 C1.33333333 0 2.66666667 0 4 0 C3.88570603 1.77155654 3.75816963 3.54226229 3.625 5.3125 C3.55539062 6.29863281 3.48578125 7.28476562 3.4140625 8.30078125 C3 11 3 11 1 14 C0.7834375 12.6078125 0.7834375 12.6078125 0.5625 11.1875 C0.07899889 7.99274889 0.07899889 7.99274889 -1 5 C-0.5625 2.3125 -0.5625 2.3125 0 0 Z " fill="#F6E1E0" transform="translate(612,256)"/>
<path d="M0 0 C0.33 0 0.66 0 1 0 C1.99 3.96 2.98 7.92 4 12 C3.01 12.495 3.01 12.495 2 13 C2 12.34 2 11.68 2 11 C1.34 11 0.68 11 0 11 C-0.33 11.66 -0.66 12.32 -1 13 C-1 9.98146205 -0.85049285 7.22918921 -0.5 4.25 C-0.4071875 3.45078125 -0.314375 2.6515625 -0.21875 1.828125 C-0.1465625 1.22484375 -0.074375 0.6215625 0 0 Z " fill="#BC2C31" transform="translate(261,273)"/>
<path d="M0 0 C1.32 0.99 2.64 1.98 4 3 C4.33 2.01 4.66 1.02 5 0 C5 1.98 5 3.96 5 6 C4.34 6 3.68 6 3 6 C3 7.98 3 9.96 3 12 C0.71046511 9.71046511 0.47586642 8.54484795 -0.1875 5.4375 C-0.36667969 4.63183594 -0.54585937 3.82617188 -0.73046875 2.99609375 C-0.81941406 2.33738281 -0.90835938 1.67867187 -1 1 C-0.67 0.67 -0.34 0.34 0 0 Z " fill="#BB2C32" transform="translate(570,226)"/>
<path d="M0 0 C1.1446875 0.2784375 1.1446875 0.2784375 2.3125 0.5625 C5.08967375 1.22819173 5.08967375 1.22819173 8 0 C7.8125 1.8125 7.8125 1.8125 7 4 C2.82142857 7 2.82142857 7 0 7 C0.33 6.01 0.66 5.02 1 4 C0.61067144 1.85744207 0.61067144 1.85744207 0 0 Z " fill="#9C1B21" transform="translate(656,328)"/>
<path d="M0 0 C0.66 0 1.32 0 2 0 C2 1.65 2 3.3 2 5 C2.66 5 3.32 5 4 5 C4.268125 5.94875 4.53625 6.8975 4.8125 7.875 C5.74986588 11.25267273 5.74986588 11.25267273 9 13 C8.67 14.32 8.34 15.64 8 17 C2.70015194 12.43116546 0.83129661 6.81663217 0 0 Z " fill="#F6CECF" transform="translate(261,272)"/>
<path d="M0 0 C0.33 0 0.66 0 1 0 C1.33 2.97 1.66 5.94 2 9 C1.01 9.33 0.02 9.66 -1 10 C-1 12.31 -1 14.62 -1 17 C-1.66 17.33 -2.32 17.66 -3 18 C-4.14109582 14.57671253 -3.84733551 13.93397825 -2.625 10.6875 C-1.35240222 7.13119934 -0.4823214 3.7621069 0 0 Z " fill="#B32F35" transform="translate(622,237)"/>
<path d="M0 0 C1.2065625 0.2475 1.2065625 0.2475 2.4375 0.5 C6.65887352 1.09247348 10.74664545 1.08506709 15 1 C15 1.33 15 1.66 15 2 C12.81347261 2.33965474 10.62571975 2.67142477 8.4375 3 C6.61025391 3.2784375 6.61025391 3.2784375 4.74609375 3.5625 C1.12372152 3.98555077 -2.35712046 4.07501425 -6 4 C-3 2 -3 2 0 2 C0 1.34 0 0.68 0 0 Z " fill="#B5383C" transform="translate(310,171)"/>
<path d="M0 0 C0.33 0 0.66 0 1 0 C1.35050464 5.841744 1.16727335 9.8531808 -2 15 C-2.33 15 -2.66 15 -3 15 C-2.5547115 9.72684667 -1.91626837 4.98229776 0 0 Z " fill="#F6CCCD" transform="translate(506,227)"/>
<path d="M0 0 C1.125 3.75 1.125 3.75 0 6 C-0.15004973 7.3734635 -0.24838006 8.7528526 -0.31640625 10.1328125 C-0.37924805 11.34130859 -0.37924805 11.34130859 -0.44335938 12.57421875 C-0.48267578 13.41597656 -0.52199219 14.25773438 -0.5625 15.125 C-0.60568359 15.97449219 -0.64886719 16.82398438 -0.69335938 17.69921875 C-0.79954236 19.79928223 -0.90028497 21.89961948 -1 24 C-1.33 24 -1.66 24 -2 24 C-2.05802698 20.56257082 -2.09360486 17.12526747 -2.125 13.6875 C-2.14175781 12.71103516 -2.15851562 11.73457031 -2.17578125 10.72851562 C-2.18222656 9.79072266 -2.18867188 8.85292969 -2.1953125 7.88671875 C-2.20578613 7.02264404 -2.21625977 6.15856934 -2.22705078 5.26831055 C-2 3 -2 3 0 0 Z " fill="#A61F22" transform="translate(27,152)"/>
<path d="M0 0 C3.11984982 3.46067375 3.80867297 6.73031812 4.6875 11.25 C5.06455078 13.14492187 5.06455078 13.14492187 5.44921875 15.078125 C5.72185547 16.52445313 5.72185547 16.52445313 6 18 C3 16 3 16 2.3046875 13.65234375 C2.16289062 12.75644531 2.02109375 11.86054688 1.875 10.9375 C1.56845653 7.66815385 1.56845653 7.66815385 0 5 C-0.04063832 3.33382885 -0.042721 1.66611905 0 0 Z " fill="#F7D6D7" transform="translate(407,200)"/>
<path d="M0 0 C0.99 0.33 1.98 0.66 3 1 C3.80967438 3.91482778 4.21845993 5.46113217 3.0625 8.3125 C2.5365625 9.1478125 2.5365625 9.1478125 2 10 C0.5 8.875 0.5 8.875 -1 7 C-1.25 3.875 -1.25 3.875 -1 1 C-0.67 0.67 -0.34 0.34 0 0 Z " fill="#C0282E" transform="translate(514,184)"/>
<path d="M0 0 C3.28788824 3.11016455 5.83735988 6.01618925 8 10 C5.64828869 9.40138258 3.3140622 8.73075648 1 8 C-0.35439668 5.29120665 -0.06501451 2.99066732 0 0 Z " fill="#B42A2F" transform="translate(265,285)"/>
<path d="M0 0 C2.475 0.495 2.475 0.495 5 1 C5.12375 1.78375 5.2475 2.5675 5.375 3.375 C5.79117993 6.14057822 5.79117993 6.14057822 8 8 C7.34 8.66 6.68 9.32 6 10 C6 9.34 6 8.68 6 8 C5.34 8 4.68 8 4 8 C2.68 5.36 1.36 2.72 0 0 Z " fill="#F7DEDF" transform="translate(142,267)"/>
<path d="M0 0 C0.33 0.99 0.66 1.98 1 3 C-0.65 3.66 -2.3 4.32 -4 5 C-4 4.01 -4 3.02 -4 2 C-5.98 2.33 -7.96 2.66 -10 3 C-10 2.34 -10 1.68 -10 1 C-6.61981469 -0.04005702 -3.5219721 -0.08004482 0 0 Z " fill="#F2F2F2" transform="translate(262,105)"/>
<path d="M0 0 C0.33 0 0.66 0 1 0 C1.33 2.97 1.66 5.94 2 9 C1.01 8.67 0.02 8.34 -1 8 C-1.66 8.99 -2.32 9.98 -3 11 C-2.53199289 6.94393835 -2.12046792 3.53411321 0 0 Z " fill="#B3B3B3" transform="translate(363,85)"/>
<path d="M0 0 C1.69433918 3.0469629 2.49467112 5.82821466 3.125 9.25 C3.29257812 10.14203125 3.46015625 11.0340625 3.6328125 11.953125 C3.75398437 12.62859375 3.87515625 13.3040625 4 14 C3.01 13.67 2.02 13.34 1 13 C0.855625 11.9275 0.71125 10.855 0.5625 9.75 C0.10566824 6.21527402 0.10566824 6.21527402 -0.625 3.6875 C-1 2 -1 2 0 0 Z " fill="#B53336" transform="translate(546,250)"/>
<path d="M0 0 C1.48898227 3.8713539 0.45341004 6.2211339 -1 10 C-1.5421953 11.45813687 -2.08385097 12.91647451 -2.625 14.375 C-3.305625 16.169375 -3.305625 16.169375 -4 18 C-5.55292947 14.89414105 -4.16913796 12.79212673 -3.125 9.5625 C-2.75632812 8.40878906 -2.38765625 7.25507813 -2.0078125 6.06640625 C-1.34275578 4.04288095 -0.67356923 2.02070769 0 0 Z " fill="#BB4E50" transform="translate(535,230)"/>
<path d="M0 0 C2.02566659 2.02566659 2.71585442 3.31798974 3.75 5.9375 C4.03359375 6.62714844 4.3171875 7.31679687 4.609375 8.02734375 C5 10 5 10 3 13 C2.33333333 11.66666667 1.66666667 10.33333333 1 9 C0.608125 8.360625 0.21625 7.72125 -0.1875 7.0625 C-1.24344992 4.38201174 -0.75786685 2.72832067 0 0 Z " fill="#B72830" transform="translate(374,214)"/>
<path d="M0 0 C6.60929383 1.00413308 10.79229827 2.78951775 16 7 C13 7 13 7 10 6 C10 5.34 10 4.68 10 4 C9.278125 3.87625 8.55625 3.7525 7.8125 3.625 C5.04278106 3.0095069 2.6029646 2.11555626 0 1 C0 0.67 0 0.34 0 0 Z " fill="#AF3539" transform="translate(357,205)"/>
<path d="M0 0 C1.57554035 2.88628401 2.46276373 5.53342384 3.125 8.75 C3.29257812 9.54921875 3.46015625 10.3484375 3.6328125 11.171875 C3.81457031 12.07679688 3.81457031 12.07679688 4 13 C2.0625 12 2.0625 12 0 10 C-0.92904748 6.60967001 -1.62106302 3.24212603 0 0 Z " fill="#BD3F45" transform="translate(435,181)"/>
<path d="M0 0 C2.59487555 1.29743778 3.02269781 2.29362471 4 5 C3.625 7.75 3.625 7.75 3 10 C2.01 9.67 1.02 9.34 0 9 C-1.37001429 5.8033 -0.8252404 3.30096158 0 0 Z " fill="#B7B7B7" transform="translate(98,66)"/>
<path d="M0 0 C0.66 1.32 1.32 2.64 2 4 C1.01 5.485 1.01 5.485 0 7 C-0.66 7 -1.32 7 -2 7 C-2.103125 7.639375 -2.20625 8.27875 -2.3125 8.9375 C-2.539375 9.618125 -2.76625 10.29875 -3 11 C-3.99 11.33 -4.98 11.66 -6 12 C-4 8 -2 4 0 0 Z " fill="#B33437" transform="translate(410,279)"/>
<path d="M0 0 C-1.65 0.33 -3.3 0.66 -5 1 C-5 1.66 -5 2.32 -5 3 C-8.69541586 3.95024979 -11.30458414 3.95024979 -15 3 C-15 2.67 -15 2.34 -15 2 C-13.02 2 -11.04 2 -9 2 C-9 1.34 -9 0.68 -9 0 C-2.25 -1.125 -2.25 -1.125 0 0 Z " fill="#F4D2D2" transform="translate(363,280)"/>
<path d="M0 0 C0.66 0.33 1.32 0.66 2 1 C1.34 3.64 0.68 6.28 0 9 C-0.66 9 -1.32 9 -2 9 C-2 9.99 -2 10.98 -2 12 C-2.66 12 -3.32 12 -4 12 C-3.52309796 10.37433394 -3.04340334 8.74948689 -2.5625 7.125 C-2.29566406 6.22007812 -2.02882813 5.31515625 -1.75390625 4.3828125 C-1 2 -1 2 0 0 Z " fill="#F7DAD5" transform="translate(380,256)"/>
<path d="M0 0 C0 3.63 0 7.26 0 11 C-1.32 10.67 -2.64 10.34 -4 10 C-4.33 9.01 -4.66 8.02 -5 7 C-4.01 7.33 -3.02 7.66 -2 8 C-1.67 6.68 -1.34 5.36 -1 4 C-1.66 4 -2.32 4 -3 4 C-3 3.01 -3 2.02 -3 1 C-1 0 -1 0 0 0 Z " fill="#BC292E" transform="translate(187,258)"/>
<path d="M0 0 C1.57554035 2.88628401 2.46276373 5.53342384 3.125 8.75 C3.29257812 9.54921875 3.46015625 10.3484375 3.6328125 11.171875 C3.81457031 12.07679688 3.81457031 12.07679688 4 13 C3.34 13 2.68 13 2 13 C1.67 10.69 1.34 8.38 1 6 C0.01 6.33 -0.98 6.66 -2 7 C-1.34 4.69 -0.68 2.38 0 0 Z " fill="#B32B2F" transform="translate(542,236)"/>
<path d="M0 0 C0.33 0 0.66 0 1 0 C1.1799928 5.21979128 0.97094808 9.07262981 -1 14 C-1.66 13.67 -2.32 13.34 -3 13 C-2.01 8.71 -1.02 4.42 0 0 Z " fill="#B73B44" transform="translate(628,216)"/>
<path d="M0 0 C5.28 0 10.56 0 16 0 C16 0.33 16 0.66 16 1 C11.05 1 6.1 1 1 1 C0.67 2.65 0.34 4.3 0 6 C-0.66 6 -1.32 6 -2 6 C-1.34 4.02 -0.68 2.04 0 0 Z " fill="#C7C5C3" transform="translate(144,31)"/>
<path d="M0 0 C0.66 0.33 1.32 0.66 2 1 C1.25 8.625 1.25 8.625 -1 12 C-1.66 12 -2.32 12 -3 12 C-2.01 8.04 -1.02 4.08 0 0 Z " fill="#B93C43" transform="translate(516,292)"/>
<path d="M0 0 C3.08089673 2.77280706 4.68775452 5.06326356 6 9 C4.35 8.67 2.7 8.34 1 8 C0.67 5.36 0.34 2.72 0 0 Z " fill="#B73238" transform="translate(154,285)"/>
<path d="M0 0 C1.75 0.0625 1.75 0.0625 4 1 C5.76735287 3.25409924 6.7699101 5.35758466 8 8 C7.67 8.99 7.34 9.98 7 11 C5.83051998 9.35616456 4.6644855 7.70987731 3.5 6.0625 C2.8503125 5.14597656 2.200625 4.22945312 1.53125 3.28515625 C0 1 0 1 0 0 Z " fill="#B32B32" transform="translate(159,232)"/>
<path d="M0 0 C0.391875 0.639375 0.78375 1.27875 1.1875 1.9375 C3.38472296 4.43778819 4.75791433 4.64950425 8 5 C8 5.33 8 5.66 8 6 C2.46342706 6.42589023 -1.89665983 4.905247 -7 3 C-6.401875 2.87625 -5.80375 2.7525 -5.1875 2.625 C-2.73768652 2.04524015 -2.73768652 2.04524015 0 0 Z " fill="#B6B6B6" transform="translate(220,121)"/>
<path d="M0 0 C0.33 0 0.66 0 1 0 C1.92017937 9.88340807 1.92017937 9.88340807 -0.3359375 12.62109375 C-2 13.6875 -2 13.6875 -5 15 C-4.71125 14.443125 -4.4225 13.88625 -4.125 13.3125 C-1.97068538 8.88418662 -0.68328981 4.89691031 0 0 Z " fill="#868686" transform="translate(273,85)"/>
<path d="M0 0 C1.90318884 2.85478326 2.4619099 4.41941308 3.125 7.6875 C3.29257812 8.49574219 3.46015625 9.30398438 3.6328125 10.13671875 C3.75398438 10.75160156 3.87515625 11.36648438 4 12 C2.68 12 1.36 12 0 12 C0 8.04 0 4.08 0 0 Z " fill="#EFCDCA" transform="translate(490,259)"/>
<path d="M0 0 C2 2 2 2 2.25 5.375 C2.02515633 8.63523324 1.7239511 10.30632641 0 13 C-1.0161692 8.37078475 -0.83796731 4.65537393 0 0 Z " fill="#B3383D" transform="translate(295,222)"/>
<path d="M0 0 C0.33 0.66 0.66 1.32 1 2 C1.66 2 2.32 2 3 2 C3.33 3.98 3.66 5.96 4 8 C1.00675737 6.9024777 0.15389099 6.32317108 -1.25 3.375 C-1.4975 2.59125 -1.745 1.8075 -2 1 C-1.34 0.67 -0.68 0.34 0 0 Z " fill="#B62C32" transform="translate(139,200)"/>
<path d="M0 0 C0.99 0 1.98 0 3 0 C2.71682074 1.60568666 2.42312209 3.20952047 2.125 4.8125 C1.96257813 5.70582031 1.80015625 6.59914062 1.6328125 7.51953125 C1 10 1 10 -1 13 C-0.67 8.71 -0.34 4.42 0 0 Z " fill="#B13336" transform="translate(601,188)"/>
<path d="M0 0 C0.99 0.33 1.98 0.66 3 1 C3.33 5.29 3.66 9.58 4 14 C1.8553857 11.8553857 1.55435397 10.98260002 0.875 8.125 C0.70742188 7.44695312 0.53984375 6.76890625 0.3671875 6.0703125 C0 4 0 4 0 0 Z " fill="#C15459" transform="translate(558,187)"/>
<path d="M0 0 C0.66 0 1.32 0 2 0 C2.99 2.97 3.98 5.94 5 9 C3.68 8.34 2.36 7.68 1 7 C0.25 3.375 0.25 3.375 0 0 Z " fill="#961F26" transform="translate(25,324)"/>
<path d="M0 0 C0.99 0.33 1.98 0.66 3 1 C-1.02167317 3.96837781 -4.00088076 5.52389341 -9 6 C-9 5.34 -9 4.68 -9 4 C-7.88625 3.525625 -6.7725 3.05125 -5.625 2.5625 C-3.73289006 1.74693537 -1.84287291 0.92143645 0 0 Z " fill="#F9D9D8" transform="translate(391,299)"/>
<path d="M0 0 C0.66 2.97 1.32 5.94 2 9 C-2.875 4.375 -2.875 4.375 -4 1 C-2 0 -2 0 0 0 Z " fill="#B73236" transform="translate(155,220)"/>
<path d="M0 0 C2.125 0.9375 2.125 0.9375 4 2 C3.525625 2.350625 3.05125 2.70125 2.5625 3.0625 C0.32126175 5.84163543 0.32882342 8.5144717 0 12 C-0.33 12 -0.66 12 -1 12 C-1.33 8.37 -1.66 4.74 -2 1 C-1.34 0.67 -0.68 0.34 0 0 Z " fill="#A09F9F" transform="translate(578,49)"/>
<path d="M0 0 C0.99 0.33 1.98 0.66 3 1 C1.625 2.5 1.625 2.5 0 4 C-0.66 4 -1.32 4 -2 4 C-2 4.66 -2 5.32 -2 6 C-3.32 5.67 -4.64 5.34 -6 5 C-2.25 1.125 -2.25 1.125 0 0 Z " fill="#F5F5F5" transform="translate(217,32)"/>
<path d="M0 0 C1.65 0.33 3.3 0.66 5 1 C5 1.99 5 2.98 5 4 C4.360625 4.12375 3.72125 4.2475 3.0625 4.375 C2.0415625 4.684375 2.0415625 4.684375 1 5 C0.67 5.66 0.34 6.32 0 7 C-1.04449911 3.86650268 -0.93423645 3.01031744 0 0 Z " fill="#BC282D" transform="translate(610,280)"/>
<path d="M0 0 C0.99 0 1.98 0 3 0 C3 2.64 3 5.28 3 8 C3.66 8 4.32 8 5 8 C4.34 9.32 3.68 10.64 3 12 C2.01 8.04 1.02 4.08 0 0 Z " fill="#AA2A2F" transform="translate(490,257)"/>
<path d="M0 0 C3.00617269 3.00617269 2.59585316 5.82381598 3 10 C2.01 10 1.02 10 0 10 C0 6.7 0 3.4 0 0 Z " fill="#F4D6D6" transform="translate(485,242)"/>
<path d="M0 0 C1.88343932 3.76687864 2.22057835 5.02958963 2 9 C0.68 9.33 -0.64 9.66 -2 10 C-1.34 6.7 -0.68 3.4 0 0 Z " fill="#F1CECD" transform="translate(595,220)"/>
<path d="M0 0 C0.33 0 0.66 0 1 0 C1.49230769 7.26153846 1.49230769 7.26153846 -1 11 C-1.66 11.66 -2.32 12.32 -3 13 C-2.343621 8.51474352 -1.29925791 4.33085971 0 0 Z " fill="#EDB9B9" transform="translate(599,205)"/>
<path d="M0 0 C4 3 4 3 4.390625 5.69921875 C4.34421875 6.68535156 4.2978125 7.67148438 4.25 8.6875 C4.21390625 9.68136719 4.1778125 10.67523438 4.140625 11.69921875 C4.09421875 12.45847656 4.0478125 13.21773437 4 14 C3.67 14 3.34 14 3 14 C2.01 9.38 1.02 4.76 0 0 Z " fill="#B63D3E" transform="translate(474,200)"/>
<path d="M0 0 C2.475 0.495 2.475 0.495 5 1 C5.33 3.31 5.66 5.62 6 8 C1.125 3.375 1.125 3.375 0 0 Z " fill="#AE292F" transform="translate(126,186)"/>
<path d="M0 0 C-0.99 0.33 -1.98 0.66 -3 1 C-3.33 1.99 -3.66 2.98 -4 4 C-6.31 4 -8.62 4 -11 4 C-7.04396675 0.96704118 -5.03239385 -0.13243142 0 0 Z M-7 4 C-5 5 -5 5 -5 5 Z " fill="#909090" transform="translate(576,30)"/>
<path d="M0 0 C0.66 0 1.32 0 2 0 C3.4216319 3.3171411 4.39009109 6.44219804 5 10 C4.01 10 3.02 10 2 10 C1.34 6.7 0.68 3.4 0 0 Z " fill="#F2CCCB" transform="translate(555,280)"/>
<path d="M0 0 C0.66 0 1.32 0 2 0 C2.33 2.31 2.66 4.62 3 7 C3.66 7 4.32 7 5 7 C5 8.98 5 10.96 5 13 C1.42988974 9.267612 0.89086558 4.9050011 0 0 Z " fill="#AC2C32" transform="translate(562,202)"/>
<path d="M0 0 C0.99 0.33 1.98 0.66 3 1 C2.67 2.32 2.34 3.64 2 5 C1.01 5 0.02 5 -1 5 C-1 5.66 -1 6.32 -1 7 C-1.66 7 -2.32 7 -3 7 C-2.38722388 4.03824877 -1.74627478 2.61941217 0 0 Z " fill="#F5F5F5" transform="translate(133,56)"/>
<path d="M0 0 C0.82638376 2.89234315 1 4.88742431 1 8 C-0.375 9.75 -0.375 9.75 -2 11 C-2.66 11 -3.32 11 -4 11 C-3.52269162 9.5410574 -3.04308958 8.08286504 -2.5625 6.625 C-2.29566406 5.81289063 -2.02882812 5.00078125 -1.75390625 4.1640625 C-1 2 -1 2 0 0 Z " fill="#A4A4A4" transform="translate(140,38)"/>
<path d="M0 0 C2.25245881 2.68841859 3.88213958 4.64641875 5 8 C2.525 7.01 2.525 7.01 0 6 C0 4.02 0 2.04 0 0 Z " fill="#B0262C" transform="translate(164,299)"/>
<path d="M0 0 C2.40072955 2.88087546 4.47291037 5.56404834 6 9 C4.68 9 3.36 9 2 9 C0.50178941 5.62902617 0 3.79557881 0 0 Z " fill="#B53136" transform="translate(108,220)"/>
<path d="M0 0 C1.32 0 2.64 0 4 0 C4.99 1.98 5.98 3.96 7 6 C6.34 6.66 5.68 7.32 5 8 C2.525 4.04 2.525 4.04 0 0 Z " fill="#B42F36" transform="translate(143,210)"/>
<path d="M0 0 C1.46726798 3.81489674 0.43336419 6.29011622 -1 10 C-2.4606285 7.35261084 -3 6.10551666 -3 3 C-2.34 3 -1.68 3 -1 3 C-0.67 2.01 -0.34 1.02 0 0 Z " fill="#B6363B" transform="translate(520,177)"/>
<path d="M0 0 C0.66 0.99 1.32 1.98 2 3 C1.67 3.66 1.34 4.32 1 5 C-3.455 4.01 -3.455 4.01 -8 3 C-8 2.67 -8 2.34 -8 2 C-5.36 1.34 -2.72 0.68 0 0 Z " fill="#AEAEAE" transform="translate(262,49)"/>
<path d="M0 0 C0.53625 0.226875 1.0725 0.45375 1.625 0.6875 C-0.025 1.0175 -1.675 1.3475 -3.375 1.6875 C-3.375 2.3475 -3.375 3.0075 -3.375 3.6875 C-4.695 4.0175 -6.015 4.3475 -7.375 4.6875 C-7.705 4.0275 -8.035 3.3675 -8.375 2.6875 C-2.95961538 -0.38942308 -2.95961538 -0.38942308 0 0 Z " fill="#B64248" transform="translate(314.375,205.3125)"/>
<path d="M0 0 C0.33 0 0.66 0 1 0 C1.36923077 7.50769231 1.36923077 7.50769231 -0.5 10 C-0.995 10.33 -1.49 10.66 -2 11 C-1.125 3.375 -1.125 3.375 0 0 Z " fill="#EBB2B2" transform="translate(589,240)"/>
<path d="M0 0 C0.66 0.33 1.32 0.66 2 1 C2.125 3.875 2.125 3.875 2 7 C1.34 7.66 0.68 8.32 0 9 C-1.36623674 6.26752652 -1.128426 4.01801098 -1 1 C-0.67 0.67 -0.34 0.34 0 0 Z " fill="#C2232A" transform="translate(133,188)"/>
<path d="M0 0 C2.475 0.495 2.475 0.495 5 1 C4.67 3.31 4.34 5.62 4 8 C1.53721199 5.53721199 1.00228745 3.29323018 0 0 Z " fill="#B7B7B7" transform="translate(552,108)"/>
<path d="M0 0 C0.66 1.32 1.32 2.64 2 4 C1.01 4.33 0.02 4.66 -1 5 C-1 5.99 -1 6.98 -1 8 C-1.99 7.67 -2.98 7.34 -4 7 C-2.79266543 4.58533087 -1.39745961 2.30884631 0 0 Z " fill="#9D9D9C" transform="translate(115,88)"/>
<path d="M0 0 C0.33 0.66 0.66 1.32 1 2 C0.06421005 4.35981813 -0.93347808 6.69631264 -2 9 C-2.97608217 6.07175348 -3.08226668 4.04386724 -3 1 C-2.01 0.67 -1.02 0.34 0 0 Z " fill="#858585" transform="translate(397,67)"/>
<path d="M0 0 C1 2 1 2 0.25 4.5625 C-1 7 -1 7 -4 8 C-3.40072174 4.64404172 -2.15377564 2.62198774 0 0 Z " fill="#8E8E8E" transform="translate(198,44)"/>
<path d="M0 0 C2.4375 0.75 2.4375 0.75 5 2 C5.8125 4.125 5.8125 4.125 6 6 C5.01 6 4.02 6 3 6 C2.01 4.02 1.02 2.04 0 0 Z " fill="#F7DDDB" transform="translate(157,288)"/>
<path d="M0 0 C0.33 0 0.66 0 1 0 C3.42857143 7.42857143 3.42857143 7.42857143 2 11 C1.67 9.68 1.34 8.36 1 7 C0.34 7 -0.32 7 -1 7 C-0.67 4.69 -0.34 2.38 0 0 Z " fill="#F4C3C2" transform="translate(574,245)"/>
<path d="M0 0 C0.66 0 1.32 0 2 0 C1.34 3.63 0.68 7.26 0 11 C-0.33 11 -0.66 11 -1 11 C-1.0270043 9.54176788 -1.04639787 8.08339325 -1.0625 6.625 C-1.07410156 5.81289062 -1.08570313 5.00078125 -1.09765625 4.1640625 C-1 2 -1 2 0 0 Z " fill="#F6CECD" transform="translate(622,232)"/>
<path d="M0 0 C0.66 0.66 1.32 1.32 2 2 C1.01 4.97 0.02 7.94 -1 11 C-1.33 11 -1.66 11 -2 11 C-1.85957123 9.35369672 -1.71250671 7.70795821 -1.5625 6.0625 C-1.48128906 5.14597656 -1.40007812 4.22945312 -1.31640625 3.28515625 C-1 1 -1 1 0 0 Z " fill="#AF2F32" transform="translate(263,200)"/>
<path d="M0 0 C-1 3 -1 3 -3.4375 4.25 C-6 5 -6 5 -8 4 C-2.25 0 -2.25 0 0 0 Z " fill="#A2A2A2" transform="translate(210,35)"/>
</svg>
