<?xml version="1.0" encoding="UTF-8"?>
<svg version="1.1" xmlns="http://www.w3.org/2000/svg" width="1920" height="1080">
<path d="M0 0 C633.6 0 1267.2 0 1920 0 C1920 356.4 1920 712.8 1920 1080 C1286.4 1080 652.8 1080 0 1080 C0 723.6 0 367.2 0 0 Z " fill="#2097F0" transform="translate(0,0)"/>
<path d="M0 0 C4.79843373 -0.00146314 9.59680892 -0.02011462 14.39521158 -0.03625035 C24.84787806 -0.06813194 35.30049471 -0.07816247 45.75320351 -0.08389258 C52.29731949 -0.08766446 58.84142256 -0.09649069 65.38553178 -0.10639119 C83.5579431 -0.1332943 101.73034205 -0.15583211 119.90277517 -0.15826917 C121.06156532 -0.15842474 122.22035546 -0.15858031 123.41426047 -0.1587406 C125.76262371 -0.15903163 128.11098695 -0.159317 130.45935019 -0.15959676 C131.6248269 -0.15973961 132.79030362 -0.15988247 133.99109781 -0.16002965 C135.15802065 -0.16016932 136.32494348 -0.16030899 137.52722762 -0.16045289 C156.43124084 -0.16358759 175.33502489 -0.20018757 194.23896249 -0.25166591 C213.71673299 -0.30427818 233.1943906 -0.33038053 252.67223376 -0.32982028 C263.58065101 -0.33007166 274.48880438 -0.3410502 285.39715517 -0.38099599 C294.68406119 -0.41483561 303.97060043 -0.42391655 313.25754919 -0.40223904 C317.98233967 -0.39190169 322.70641427 -0.39219913 327.43112504 -0.42400289 C352.17428053 -0.58040777 375.39521935 0.50850218 398.1773771 11.45081019 C398.88416158 11.78283179 399.59094606 12.11485338 400.31914824 12.45693624 C412.21202676 18.06037739 422.43133062 24.57780992 432.1773771 33.45081019 C433.07843179 34.23713832 433.97948648 35.02346644 434.90784585 35.83362269 C440.39080532 40.67283388 445.15947171 45.34195403 449.1773771 51.45081019 C449.9095646 52.54909144 450.6417521 53.64737269 451.3961271 54.77893519 C458.4546334 65.48551259 464.7273858 75.25060159 464.1773771 88.45081019 C464.8373771 88.45081019 465.4973771 88.45081019 466.1773771 88.45081019 C467.29702361 93.84399297 467.31858356 99.05946982 467.30677164 104.5391891 C467.30935338 106.0522753 467.30935338 106.0522753 467.31198728 107.59592891 C467.31632793 110.95642644 467.31336866 114.31687447 467.3101896 117.67737269 C467.31133268 120.06473249 467.31280976 122.45209215 467.31459939 124.83945155 C467.31761707 131.25580261 467.3133712 137.67212747 467.3065542 144.08847499 C467.30238505 148.06822126 467.29942176 152.04796701 467.29667032 156.02771449 C467.27094518 188.88112613 467.21963546 221.73558443 466.91291177 254.58771205 C466.87980245 258.13982015 466.85287818 261.69188651 466.83149087 265.24408412 C466.80592684 269.37757828 466.76590074 273.51068007 466.71431673 277.64392924 C466.69792419 279.1229966 466.68613821 280.60212472 466.67972887 282.08126903 C466.61940156 294.58071493 464.45869644 305.78181377 460.0523771 317.45081019 C457.68039991 323.82583265 457.68039991 323.82583265 456.1773771 330.45081019 C455.5173771 330.45081019 454.8573771 330.45081019 454.1773771 330.45081019 C453.5173771 332.76081019 452.8573771 335.07081019 452.1773771 337.45081019 C451.5173771 337.45081019 450.8573771 337.45081019 450.1773771 337.45081019 C449.90796304 338.03475551 449.63854898 338.61870082 449.36097085 339.22034144 C445.61748576 346.27489587 439.23185634 351.21391359 433.0758146 356.07971644 C430.09622101 358.51720069 427.33737468 361.107031 424.5523771 363.76331019 C420.00625709 367.94729262 415.91022304 370.31936747 410.1773771 372.45081019 C408.73021844 373.11773919 407.2921969 373.80491716 405.8648771 374.51331019 C404.94255289 374.96383754 404.94255289 374.96383754 404.00159585 375.42346644 C402.12764841 376.40558461 402.12764841 376.40558461 400.50159585 377.85315394 C397.03192445 380.23818857 393.24488058 381.52035121 389.3023771 382.95081019 C388.45900796 383.25905726 387.61563882 383.56730433 386.74671304 383.88489223 C379.65160837 386.4107925 372.61813355 388.22327423 365.1773771 389.45081019 C364.06749429 389.63772426 362.95761148 389.82463832 361.81409585 390.01721644 C357.75419975 390.50126421 353.82087256 390.56146228 349.7398771 390.51331019 C348.39084039 390.50180379 347.04180038 390.49067977 345.69275796 390.47986293 C344.53268228 390.47027553 343.3726066 390.46068812 342.1773771 390.45081019 C342.17868631 391.06412196 342.17999551 391.67743373 342.18134439 392.3093307 C342.2100305 408.03585638 342.1864958 423.76119982 341.96985757 439.48645473 C341.94118698 441.82459083 341.92020932 444.16283217 341.90638101 446.50110316 C341.88494894 449.95357227 341.8384428 453.40492762 341.7867521 456.85706019 C341.78552347 457.89149257 341.78429483 458.92592494 341.78302896 459.99170375 C341.62822223 467.68333678 340.1235266 473.98186892 335.06409585 479.93909144 C334.33835367 480.54108363 333.61261148 481.14307582 332.8648771 481.76331019 C332.14686929 482.37819301 331.42886148 482.99307582 330.68909585 483.62659144 C323.50741828 488.84252213 319.14978135 490.07438179 310.3023771 489.88831019 C308.88892007 489.89894496 308.88892007 489.89894496 307.44690835 489.90979457 C299.71327618 489.84026676 292.95278082 488.24400023 286.1773771 484.45081019 C285.3420646 483.36799769 285.3420646 483.36799769 284.4898771 482.26331019 C281.2257929 478.29347805 277.27620585 475.52194427 273.1773771 472.45081019 C271.07029156 470.85028742 268.96561908 469.24710429 266.8648771 467.63831019 C266.31420572 467.21751185 265.76353433 466.79671351 265.19617593 466.36316371 C261.35251498 463.40706035 257.62432911 460.33758199 253.9273771 457.20081019 C250.63048213 454.42107522 247.37846984 451.82636823 243.7398771 449.51331019 C239.25226586 446.64285615 235.28795454 443.23464495 231.26233804 439.76623988 C227.42681547 436.47387895 223.51179773 433.32482545 219.4898771 430.26331019 C218.94984048 429.85201869 218.40980386 429.44072719 217.8534025 429.0169723 C217.32351724 428.61357631 216.79363199 428.21018031 216.2476896 427.79456019 C210.51197874 423.41615496 204.84001719 418.98328684 199.4898771 414.13831019 C194.05849116 409.31532797 188.10004515 405.12571496 182.17463052 400.93526149 C180.1773771 399.45081019 180.1773771 399.45081019 178.44139993 397.89966273 C172.88366233 393.10872667 168.45921803 392.57635288 161.27503335 392.61096644 C160.20132989 392.59219951 159.12762643 392.57343257 158.0213865 392.55409694 C155.66707877 392.51592314 153.31253249 392.49079117 150.95795572 392.47699428 C147.01961303 392.44971753 143.08311677 392.37990876 139.14563882 392.29797816 C131.36171184 392.14093764 123.57755315 392.02530571 115.79279459 391.91858363 C112.09738669 391.86721681 108.4020338 391.812149 104.70667398 391.75745082 C97.53028899 391.6517434 90.35385644 391.54993003 83.1773771 391.45081019 C83.18850534 392.04965022 83.19963357 392.64849025 83.21109903 393.26547694 C83.2556181 396.01210119 83.28302473 398.75864917 83.3101896 401.50549769 C83.32799478 402.44739955 83.34579996 403.3893014 83.36414468 404.35974574 C83.4240536 412.4474496 81.92191087 418.2206732 78.1773771 425.45081019 C77.7545646 426.36604457 77.3317521 427.28127894 76.8961271 428.22424769 C70.81946283 440.55422346 60.3200391 452.89365718 48.0601896 459.29846644 C45.70096943 460.74238751 43.7607278 462.50717567 41.6773771 464.32581019 C35.47102472 469.40631512 28.67070727 471.85790596 21.1773771 474.45081019 C20.31241617 474.75760707 19.44745523 475.06440394 18.55628335 475.38049769 C3.78907443 480.21159134 -10.71766237 480.88319506 -26.11631072 480.8615005 C-29.6188099 480.85696498 -33.12081908 480.87117849 -36.62326682 480.88989711 C-45.30663808 480.9325839 -53.98999511 480.94394875 -62.67345297 480.95612025 C-70.04841809 480.96765702 -77.4231544 480.99120829 -84.79802382 481.03081203 C-88.24081637 481.04434609 -91.68329642 481.04022102 -95.12610495 481.03540492 C-97.23726928 481.04474429 -99.34843015 481.0549128 -101.45958579 481.06604457 C-102.40981116 481.05989635 -103.36003653 481.05374812 -104.33905661 481.04741359 C-113.00185238 481.12754086 -118.46784296 483.76327462 -125.2601229 489.20081019 C-125.83085532 489.64763148 -126.40158774 490.09445277 -126.98961508 490.5548141 C-129.9437962 492.88578211 -132.79756268 495.28252702 -135.5726229 497.82581019 C-139.64927659 501.48952698 -144.10311712 504.60357371 -148.5726229 507.76331019 C-149.31866782 508.29166469 -150.06471274 508.82001918 -150.83336508 509.36438441 C-156.45133655 513.29544127 -156.45133655 513.29544127 -158.99938071 514.36169887 C-161.01676382 515.28315938 -161.01676382 515.28315938 -161.37023032 517.40100551 C-161.51951987 518.07744105 -161.66880942 518.7538766 -161.8226229 519.45081019 C-163.24962485 520.91467738 -163.24962485 520.91467738 -165.06090415 522.24768519 C-166.04413657 522.97278285 -166.04413657 522.97278285 -167.04723227 523.71252894 C-167.73623618 524.20366176 -168.42524008 524.69479457 -169.1351229 525.20081019 C-169.81252524 525.70741176 -170.48992758 526.21401332 -171.18785727 526.73596644 C-176.30953538 530.45081019 -176.30953538 530.45081019 -180.8226229 530.45081019 C-181.1526229 531.44081019 -181.4826229 532.43081019 -181.8226229 533.45081019 C-183.95491156 535.2316227 -186.06250776 536.84989531 -188.3226229 538.45081019 C-188.9104354 538.88909144 -189.4982479 539.32737269 -190.1038729 539.77893519 C-198.23041998 545.59361974 -206.02233092 546.96287426 -215.8851229 546.88831019 C-216.82678305 546.90829066 -217.76844321 546.92827113 -218.73863852 546.94885707 C-227.57496501 546.94270792 -233.20327854 544.21608766 -239.8226229 538.45081019 C-248.24328518 528.17856825 -246.50077057 515.1622767 -246.1976229 502.70081019 C-246.1674771 500.53938912 -246.14010948 498.37792743 -246.11559165 496.21643519 C-246.04998423 490.96032955 -245.95000576 485.70576277 -245.8226229 480.45081019 C-247.11825156 480.37298305 -247.11825156 480.37298305 -248.44005454 480.29358363 C-259.86220885 479.52756613 -259.86220885 479.52756613 -265.2601229 477.70081019 C-266.3326229 477.33987269 -267.4051229 476.97893519 -268.5101229 476.60706019 C-269.6032479 476.22549769 -270.6963729 475.84393519 -271.8226229 475.45081019 C-272.9569979 475.08987269 -274.0913729 474.72893519 -275.2601229 474.35706019 C-298.73893832 466.60066581 -316.86835395 451.52542903 -328.0726229 429.45081019 C-330.96401594 423.59318806 -333.37714881 417.84593798 -334.8226229 411.45081019 C-335.01340415 410.65674769 -335.2041854 409.86268519 -335.4007479 409.04456019 C-337.6563231 398.86224925 -337.9718498 388.48643231 -337.98375571 378.09290004 C-337.98872061 377.02766109 -337.99368552 375.96242213 -337.99880087 374.86490321 C-338.01326922 371.38051119 -338.02019863 367.89616467 -338.0257479 364.41174769 C-338.02857527 363.20957229 -338.03140265 362.00739688 -338.03431571 360.76879191 C-338.04924583 354.40677369 -338.05851432 348.04477778 -338.06285727 341.68274379 C-338.06833318 335.1605338 -338.09236082 328.63853346 -338.12082922 322.11638904 C-338.13958201 317.05616122 -338.14466789 311.99598267 -338.14619315 306.93572307 C-338.14919166 304.53350753 -338.1571235 302.13129227 -338.17037833 299.72911143 C-338.30269781 273.90680287 -335.72557917 254.36724082 -319.8226229 233.45081019 C-318.99117758 232.25971644 -318.99117758 232.25971644 -318.1429354 231.04456019 C-317.48938071 230.25565394 -317.48938071 230.25565394 -316.8226229 229.45081019 C-316.1626229 229.45081019 -315.5026229 229.45081019 -314.8226229 229.45081019 C-314.75430258 228.87717738 -314.68598227 228.30354457 -314.61559165 227.71252894 C-311.14853934 217.82374429 -291.56716707 208.62191415 -282.5101229 204.20081019 C-269.72614033 198.56266555 -256.65513585 195.28394589 -242.68639243 195.3372848 C-241.6808985 195.33713878 -240.67540457 195.33699275 -239.63944113 195.3368423 C-236.32808366 195.33753692 -233.016783 195.34530826 -229.7054354 195.35315394 C-227.40472567 195.35501972 -225.10401554 195.35644287 -222.80330527 195.35744166 C-216.75677509 195.36125425 -210.71026905 195.3710738 -204.66374838 195.38214564 C-198.49014737 195.39238681 -192.31654246 195.39694508 -186.1429354 195.40198207 C-174.03615398 195.4126972 -161.92939044 195.42975852 -149.8226229 195.45081019 C-149.83372595 194.26969157 -149.84482901 193.08857295 -149.85626853 191.87166286 C-149.95836177 180.6498724 -150.03292849 169.42817819 -150.08168375 158.20602584 C-150.10759341 152.43886975 -150.14264425 146.67209348 -150.19982016 140.9051559 C-150.25481289 135.32242321 -150.28418281 129.74005196 -150.29700911 124.15706897 C-150.3061299 122.04476883 -150.32393364 119.93248472 -150.35127318 117.82034183 C-150.60490184 97.38206591 -147.25835404 79.68593012 -137.8616854 61.46643519 C-137.16474754 60.11448056 -136.49295868 58.74928474 -135.8460604 57.37268519 C-132.4283997 50.53736381 -127.43164991 45.2842758 -122.16441977 39.85266566 C-121.00622215 38.64262732 -119.88697483 37.39552774 -118.7757479 36.14221644 C-87.50930231 2.06179075 -42.96139216 -0.01590056 0 0 Z " fill="#69CEFC" transform="translate(876.8226228952408,246.5491898059845)"/>
<path d="M0 0 C5.80377086 -0.00594186 11.60751971 -0.01675911 17.41127896 -0.02962726 C24.41581728 -0.04497855 31.42031665 -0.05287928 38.4248724 -0.05109495 C41.93179298 -0.0503084 45.43863713 -0.0523115 48.94554257 -0.06321567 C83.20948333 -0.15277902 115.15010611 1.63747288 141.09914517 26.69037396 C153.49758267 39.89740521 153.49758267 39.89740521 153.49758267 48.17865521 C154.15758267 48.17865521 154.81758267 48.17865521 155.49758267 48.17865521 C155.69094205 49.08486614 155.88430142 49.99107708 156.08352017 50.92474896 C156.3439108 52.14291302 156.60430142 53.36107708 156.87258267 54.61615521 C157.27044154 56.4788581 157.6677362 58.34169964 158.05544972 60.20654064 C158.47888732 62.09526539 159.00372334 63.96039213 159.53264737 65.82233196 C161.19076856 73.35205498 160.79325057 81.15076896 160.78811002 88.82123333 C160.79410162 90.60776571 160.80090862 92.39429551 160.80846524 94.18082196 C160.82607354 99.01600095 160.83081859 103.85110906 160.83209682 108.68631703 C160.83352253 111.71491368 160.8378002 114.74349255 160.84309125 117.77208477 C160.86157831 128.36041927 160.869764 138.94870354 160.86818814 149.53705364 C160.86698888 159.36915161 160.88805229 169.20102929 160.91967547 179.03307158 C160.945936 187.50309812 160.95655127 195.97305319 160.95527732 204.44312006 C160.95477032 209.48891951 160.96030677 214.5345233 160.98163342 219.58028179 C161.0011799 224.3345092 161.00102965 229.08835768 160.98660016 233.84259945 C160.98453075 235.57380888 160.98909943 237.30504307 161.00132108 239.0362106 C161.11728464 256.62119764 158.24676841 273.14346596 148.49758267 288.17865521 C147.03226856 289.42098674 145.56441249 290.66173632 144.05227017 291.84662396 C142.40848645 293.25499142 141.10534703 294.74550945 139.74758267 296.42865521 C137.49758267 299.17865521 137.49758267 299.17865521 135.49758267 300.17865521 C135.16758267 301.16865521 134.83758267 302.15865521 134.49758267 303.17865521 C132.15221458 304.91231788 129.8501132 306.46870324 127.37258267 307.99115521 C126.65409146 308.43402874 125.93560025 308.87690228 125.19533658 309.33319622 C107.14712774 320.16409833 88.80095197 322.59590487 68.1401608 323.18720013 C65.71939568 323.2611148 63.30026672 323.35749666 60.88039517 323.45599896 C59.79421399 323.47653584 59.79421399 323.47653584 58.68608975 323.4974876 C51.97748427 323.78762125 46.99657577 326.29052709 41.68508267 330.30365521 C35.3410687 338.64150215 36.02765052 349.24411314 35.98586392 359.24896771 C35.96898667 360.78168671 35.95083242 362.31439214 35.93146634 363.84708172 C35.88429025 367.84837111 35.85427275 371.84960542 35.82802701 375.85107952 C35.79805645 379.94736121 35.75158354 384.04345363 35.70656705 388.13959271 C35.62090331 396.15251981 35.55339551 404.1654648 35.49758267 412.17865521 C31.82543677 410.42102596 28.84075106 408.24907945 25.62258267 405.74115521 C25.05813443 405.30158489 24.49368619 404.86201458 23.91213346 404.40912396 C22.71487775 403.47583792 21.51877705 402.54106857 20.32375455 401.60492474 C18.52874907 400.20299666 16.72526296 398.81272689 14.91945767 397.42474896 C9.35724884 393.12907579 3.96436794 388.77884835 -1.18991733 383.99115521 C-5.49430528 379.995574 -9.98308848 376.54591978 -14.77194858 373.15521771 C-19.52495252 369.71455963 -23.98617504 365.92117578 -28.50241733 362.17865521 C-31.14314244 360.00570374 -33.78979254 357.84013106 -36.43991733 355.67865521 C-37.12481235 355.11992718 -37.80970737 354.56119915 -38.51535678 353.98553997 C-43.50147211 349.9396195 -48.604045 346.10151409 -53.77585483 342.29584271 C-56.50378152 340.17759591 -58.99049091 337.92204297 -61.50241733 335.55365521 C-70.78860646 326.98872348 -79.41589921 323.15427355 -91.75632358 322.65131146 C-92.74250171 322.60998593 -93.72867984 322.5686604 -94.74474216 322.52608258 C-110.74637489 321.91788687 -126.76510055 321.82555268 -142.7759769 321.64642864 C-147.26880681 321.59537142 -151.76158538 321.54013405 -156.25437045 321.48529583 C-165.00367547 321.37909556 -173.75302465 321.27736937 -182.50241733 321.17865521 C-182.51787852 319.87891766 -182.51787852 319.87891766 -182.53365207 318.55292279 C-182.63234443 310.31681071 -182.73494869 302.08075811 -182.84175658 293.84474713 C-182.8965115 289.61232235 -182.94984568 285.37989039 -182.99973178 281.14740521 C-183.04808747 277.04948523 -183.10043767 272.95163265 -183.15535808 268.85379559 C-183.17546482 267.30402872 -183.1942223 265.75424364 -183.21149135 264.20444256 C-183.32823407 253.83317968 -183.7595047 243.52428823 -184.50241733 233.17865521 C-185.16241733 233.17865521 -185.82241733 233.17865521 -186.50241733 233.17865521 C-186.67063998 232.0668388 -186.67063998 232.0668388 -186.84226108 230.93256146 C-190.39762867 211.94736325 -201.73013649 195.20790483 -217.50241733 184.17865521 C-226.40729456 178.16467032 -235.65091974 173.41039816 -245.50241733 169.17865521 C-246.26683139 168.84994427 -247.03124545 168.52123333 -247.81882358 168.18256146 C-265.32739099 161.56973658 -285.63866499 162.02411542 -304.04538608 161.86224896 C-306.0250705 161.84164259 -308.00475088 161.82064525 -309.98442721 161.79927593 C-315.16116676 161.74443515 -320.33794348 161.69486048 -325.51474643 161.64642864 C-330.81080004 161.5959338 -336.10680059 161.54039473 -341.40280795 161.48529583 C-351.76929892 161.37817994 -362.13583625 161.27663421 -372.50241733 161.17865521 C-372.61895217 148.71201627 -372.70745511 136.24550976 -372.76147819 123.77843434 C-372.78742404 117.98765282 -372.82254392 112.19724759 -372.87961459 106.40668255 C-372.93447455 100.80451222 -372.96395031 95.20270075 -372.97680354 89.60028225 C-372.9859475 87.4771297 -373.00379935 85.3539938 -373.03106761 83.23099667 C-373.41776635 51.83745388 -373.41776635 51.83745388 -365.42839694 42.84396893 C-364.79282367 42.2944154 -364.15725039 41.74486187 -363.50241733 41.17865521 C-362.44427957 39.49317369 -361.42538354 37.78263173 -360.43991733 36.05365521 C-354.02638699 25.79747663 -343.002533 15.7846787 -331.24069858 12.17865521 C-330.33706576 11.84865521 -329.43343295 11.51865521 -328.50241733 11.17865521 C-328.17241733 10.18865521 -327.84241733 9.19865521 -327.50241733 8.17865521 C-321.83298884 4.92174948 -316.94137566 4.82885264 -310.50241733 5.17865521 C-310.50241733 4.18865521 -310.50241733 3.19865521 -310.50241733 2.17865521 C-298.88737834 1.31322808 -287.34408321 1.01259282 -275.70065951 0.97333294 C-273.85974562 0.96372312 -272.01883374 0.95371964 -270.17792392 0.94335991 C-265.18367207 0.91645843 -260.18941101 0.89533778 -255.19512725 0.87537009 C-249.83833379 0.85302715 -244.48156614 0.82553414 -239.12479281 0.79886395 C-227.56160209 0.74240012 -215.99838743 0.69325178 -204.43515658 0.64582211 C-197.25835297 0.61636292 -190.08155697 0.58526546 -182.90476108 0.5539909 C-121.93684374 0.2896862 -60.96850423 0.05835254 0 0 Z " fill="#2095EF" transform="translate(1142.5024173259735,280.82134479284286)"/>
<path d="M0 0 C2.29780915 -0.00571057 4.59561546 -0.01267748 6.89341736 -0.02079773 C13.10444309 -0.03867137 19.31532708 -0.03757125 25.52637076 -0.03185534 C30.72712866 -0.02875409 35.92785971 -0.03486657 41.12861377 -0.04089409 C54.10907931 -0.05572001 67.08946573 -0.05214211 80.06993095 -0.04003078 C91.30229729 -0.03010946 102.53449863 -0.0430256 113.76683953 -0.06696498 C125.34094438 -0.09144398 136.91496585 -0.10054377 148.48909599 -0.09431225 C154.97068964 -0.09095566 161.45214716 -0.09327066 167.93372154 -0.11056328 C174.03488482 -0.12613165 180.1357356 -0.12196776 186.23688698 -0.10325813 C188.46272857 -0.09959904 190.68859382 -0.10260141 192.91441345 -0.11314392 C214.41983403 -0.20714295 234.75836916 1.69240664 251.05371094 17.17285156 C264.17592831 30.21186449 266.65722834 44.59010043 266.8087759 62.46275616 C266.81394447 65.78967124 266.80424112 69.11575905 266.78444791 72.44256997 C266.76785782 75.95856163 266.77690133 79.47450972 266.78196716 82.99052429 C266.78646275 88.88508918 266.77076992 94.77933407 266.74267578 100.67382812 C266.71056051 107.46386885 266.71067659 114.25333541 266.72789055 121.04341727 C266.7438099 127.61570432 266.73699231 134.18778321 266.71995354 140.76006126 C266.71312721 143.54014907 266.71406923 146.3200678 266.72149849 149.10015297 C266.73065554 152.985933 266.70650948 156.87113355 266.67919922 160.75683594 C266.68898804 162.46290009 266.68898804 162.46290009 266.69897461 164.20343018 C266.55844783 176.0101822 262.26872871 184.21360179 255.14575195 193.40405273 C254.3259082 194.47333008 254.3259082 194.47333008 253.48950195 195.56420898 C243.13792265 208.23512798 228.96319377 213.33698765 213.14575195 215.40405273 C209.32903841 215.64837958 205.53205283 215.66569045 201.70849609 215.64355469 C200.09859047 215.64657593 200.09859047 215.64657593 198.4561615 215.6496582 C196.14824238 215.65317703 193.84031356 215.65246992 191.53239632 215.64788246 C187.86901528 215.64223863 184.20594492 215.65153008 180.54258728 215.66508484 C170.13465899 215.70200529 159.7268398 215.72076168 149.31884766 215.70947266 C142.93114748 215.70359725 136.54388875 215.72199433 130.15627861 215.75536156 C127.73599927 215.76327246 125.31567126 215.7620977 122.89540291 215.75133705 C106.13621611 215.68000624 93.244431 215.7275155 80.63793945 228.04467773 C69.69542083 238.40405273 69.69542083 238.40405273 65.14575195 238.40405273 C64.81575195 239.39405273 64.48575195 240.38405273 64.14575195 241.40405273 C62.2043457 242.98999023 62.2043457 242.98999023 59.58325195 244.77905273 C54.67082417 248.24702313 49.98181973 251.90294635 45.33325195 255.71655273 C43.96748821 256.83258707 42.60160225 257.94847186 41.2355957 259.06420898 C40.55867676 259.61737793 39.88175781 260.17054688 39.18432617 260.74047852 C35.93333278 263.39344486 32.67384133 266.03463062 29.39575195 268.65405273 C28.8236499 269.11980713 28.25154785 269.58556152 27.66210938 270.06542969 C24.84062331 272.30728023 22.66324754 273.68469373 19.14575195 274.40405273 C19.13640625 273.29594238 19.12706055 272.18783203 19.11743164 271.04614258 C19.07704112 266.86721081 19.0111566 262.68897802 18.93823242 258.51049805 C18.91030337 256.71469214 18.88895192 254.91876971 18.87475586 253.12280273 C18.88776491 236.82334507 18.88776491 236.82334507 14.14575195 221.40405273 C11.21631406 219.10066407 10.60584445 218.81037415 7.14575195 218.40405273 C6.17379883 218.2688623 5.2018457 218.13367188 4.20043945 217.99438477 C0.68598716 217.57411142 -2.82736834 217.26394136 -6.35424805 216.96655273 C-20.06140852 215.6446364 -33.13145305 214.2192494 -44.85424805 206.40405273 C-45.6740918 205.87811523 -46.49393555 205.35217773 -47.33862305 204.81030273 C-59.6847748 196.5795349 -67.91303617 186.84111048 -71.85424805 172.40405273 C-72.39797913 168.02541001 -72.43218815 163.70062568 -72.41943359 159.29199219 C-72.43126175 158.02861526 -72.4430899 156.76523834 -72.45527649 155.46357727 C-72.48605917 152.02927954 -72.49160701 148.59540341 -72.49034476 145.16098428 C-72.49118179 142.27643572 -72.5034716 139.39197557 -72.51529437 136.50745457 C-72.54257545 129.69045893 -72.54802432 122.87367932 -72.54052734 116.05664062 C-72.53329894 109.06662106 -72.56665515 102.07761309 -72.61958474 95.08781272 C-72.66362488 89.04996821 -72.68005853 83.01244736 -72.67554885 76.97444504 C-72.6732468 73.38443094 -72.68113896 69.79523439 -72.71661949 66.20537758 C-72.88649091 47.59956484 -72.31645773 33.10939135 -60.04174805 18.27905273 C-55.45558345 13.64424699 -50.67747903 10.29688361 -44.85424805 7.40405273 C-44.1375293 7.02764648 -43.42081055 6.65124023 -42.68237305 6.26342773 C-29.01758876 -0.41934998 -14.83314582 -0.0333867 0 0 Z " fill="#2095EF" transform="translate(652.854248046875,476.595947265625)"/>
<path d="M0 0 C128.04 0 256.08 0 388 0 C388 0.66 388 1.32 388 2 C344.46712184 2.85573488 300.95031086 3.15266279 257.40973521 3.13529945 C251.41698404 3.13297659 245.42423571 3.13274657 239.43148422 3.13381577 C238.12850151 3.13404561 238.12850151 3.13404561 236.79919591 3.13428011 C235.03257514 3.13459995 233.26595437 3.13492417 231.49933361 3.1352527 C215.18188622 3.138062 198.86444457 3.13488871 182.54699813 3.12945233 C168.5830871 3.12494485 154.61918434 3.12580105 140.65527344 3.13037109 C124.29285162 3.13572385 107.93043469 3.13783257 91.56801212 3.13475883 C89.8261629 3.13444036 88.08431367 3.13412599 86.34246445 3.13381577 C85.05790596 3.13358435 85.05790596 3.13358435 83.7473968 3.13334826 C77.74261885 3.13248843 71.73784403 3.13393352 65.73306656 3.13629532 C58.44749275 3.13909937 51.16192972 3.1383404 43.87635715 3.13301457 C40.1685604 3.13039249 36.46078161 3.1293478 32.752985 3.13266373 C28.73294162 3.13620503 24.71294345 3.13196981 20.69290161 3.12698364 C19.52866012 3.12921436 18.36441862 3.13144509 17.16489708 3.13374341 C11.0253324 3.11896414 5.08763886 2.80813396 -1 2 C-0.67 1.34 -0.34 0.68 0 0 Z " fill="#7DDCFE" transform="translate(843,247)"/>
<path d="M0 0 C1.66470372 -0.00230932 3.32940641 -0.00548899 4.99410701 -0.00945449 C9.53067419 -0.01774533 14.06715642 -0.01370353 18.60372376 -0.00748205 C23.51017959 -0.00293544 28.41662136 -0.00995194 33.32307434 -0.01544189 C42.91647597 -0.02431166 52.50984621 -0.02242538 62.10324904 -0.01661661 C69.8960931 -0.01209376 77.68892838 -0.01148991 85.48177338 -0.01366425 C87.14744171 -0.01412394 87.14744171 -0.01412394 88.8467599 -0.01459293 C91.10268396 -0.01523239 93.35860802 -0.01588082 95.61453208 -0.01653811 C116.7386369 -0.0222335 137.86272431 -0.0156943 158.98682627 -0.00493738 C177.12418111 0.00401225 195.26151036 0.00243295 213.39886475 -0.0067749 C234.46770643 -0.017466 255.53653294 -0.02169986 276.60537696 -0.01555037 C278.84917942 -0.01491327 281.09298189 -0.01428453 283.33678436 -0.01366425 C284.99277981 -0.01320142 284.99277981 -0.01320142 286.68222971 -0.01272924 C294.4745811 -0.01099992 302.26692287 -0.0139222 310.05927277 -0.01862335 C319.54174502 -0.02421863 329.02418413 -0.02274375 338.50665256 -0.01206186 C343.34740316 -0.00678913 348.18809841 -0.00477571 353.02884865 -0.01136017 C357.45341158 -0.01728787 361.87786747 -0.01409766 366.30242059 -0.00340506 C367.90902465 -0.00115763 369.51563763 -0.00233708 371.12223604 -0.00715664 C373.29389859 -0.01317538 375.4651869 -0.00706506 377.63682938 0.002285 C378.84662374 0.00260971 380.0564181 0.00293441 381.3028729 0.00326896 C384.10638428 0.25396729 384.10638428 0.25396729 386.10638428 2.25396729 C385.27084595 2.25494409 384.43530763 2.2559209 383.57444996 2.25692731 C333.97965455 2.31528451 284.38490268 2.38914545 234.79016101 2.48295357 C228.82631442 2.49422082 222.86246759 2.50535942 216.89862061 2.51641846 C215.71139845 2.51862214 214.5241763 2.52082582 213.30097771 2.52309629 C194.11417219 2.55840388 174.9273667 2.58330485 155.7405408 2.6043143 C136.03185759 2.62612855 116.32321629 2.65923206 96.61456877 2.70266885 C84.46749826 2.72908893 72.3204799 2.74685519 60.17338211 2.75331333 C51.82727762 2.75859685 43.48123859 2.7749124 35.13516926 2.79963294 C30.33038086 2.81354707 25.52570935 2.82285698 20.72089958 2.81897545 C-2.98258358 2.80383319 -26.01792113 3.06106728 -49.00689697 9.58209229 C-51.89361572 10.25396729 -51.89361572 10.25396729 -53.89361572 9.25396729 C-49.97404068 6.64091726 -46.11924619 5.86907008 -41.58111572 4.75396729 C-40.75804932 4.54127197 -39.93498291 4.32857666 -39.0869751 4.10943604 C-26.10541463 0.87644237 -13.31484388 -0.04067468 0 0 Z " fill="#39A6E9" transform="translate(853.8936157226563,244.74603271484375)"/>
<path d="M0 0 C0.66 0.33 1.32 0.66 2 1 C1.99861731 2.35034096 1.99861731 2.35034096 1.99720669 3.72796154 C1.9750847 25.67205358 1.95855594 47.6161437 1.94818783 69.56024456 C1.94304012 80.17240996 1.93602658 90.7845679 1.92456055 101.39672852 C1.91456701 110.65049123 1.90813548 119.90424854 1.90591151 129.1580165 C1.90461231 134.05396145 1.90157681 138.94989094 1.89426994 143.84583092 C1.88743594 148.4627412 1.88539793 153.07962979 1.88689232 157.69654465 C1.88661929 159.38265794 1.88465825 161.06877202 1.88079453 162.75488091 C1.86219446 171.29752883 1.98545751 179.70827057 2.87069035 188.21783161 C3.05159296 192.11005103 2.36535994 195.6532583 1.53515625 199.44140625 C1.02639816 201.87378982 0.76128366 204.2132778 0.5625 206.6875 C0.19094368 210.47737448 -0.86355733 213.58591027 -2.3125 217.08984375 C-3.16457183 219.24827668 -3.16457183 219.24827668 -3.5 222.6875 C-4.03230323 226.21400888 -5.02488607 228.07683139 -7 231 C-7.68096422 232.32608822 -8.35330586 233.65686601 -9 235 C-9.66 235 -10.32 235 -11 235 C-10.46276851 229.0970861 -9.18450349 224.14119134 -7.0625 218.625 C-2.71804404 207.29347497 -1.69133684 196.84803289 -1.62109375 184.7265625 C-1.60505006 183.17407394 -1.5881772 181.62159378 -1.57055664 180.06912231 C-1.52470901 175.81488372 -1.49073223 171.56062198 -1.45881271 167.30625916 C-1.42279274 162.7747444 -1.3758431 158.2433415 -1.33032227 153.71191406 C-1.24050388 144.57788523 -1.16172987 135.44378908 -1.08629704 126.30963135 C-1.01551083 117.76660914 -0.94031885 109.22363208 -0.86328125 100.68066406 C-0.85146285 99.36901464 -0.83964445 98.05736523 -0.82746792 96.70596886 C-0.80938562 94.69925031 -0.79130217 92.69253178 -0.77321142 90.68581331 C-0.50085073 60.45733022 -0.24597385 30.22870868 0 0 Z " fill="#1F8EDD" transform="translate(1344,342)"/>
<path d="M0 0 C0.74506227 -0.00155999 1.49012454 -0.00311998 2.25776446 -0.00472724 C4.75003906 -0.00871012 7.24225255 -0.00555796 9.73452759 -0.00241089 C11.52371252 -0.00376625 13.31289717 -0.00554694 15.1020813 -0.00772095 C19.96214846 -0.01228254 24.82219441 -0.01051006 29.68226194 -0.00734186 C34.77883683 -0.00480779 39.87540991 -0.00715909 44.97198486 -0.00872803 C53.54159877 -0.01054831 62.11120406 -0.00814883 70.68081665 -0.00338745 C80.55822901 0.00203754 90.43562067 0.00030481 100.31303251 -0.00521386 C108.81011454 -0.00976978 117.30719038 -0.01038292 125.80427325 -0.00777519 C130.87123174 -0.00622378 135.93818055 -0.00598694 141.0051384 -0.00931168 C145.78053491 -0.01222588 150.55590512 -0.01015026 155.33129883 -0.00441742 C157.07301414 -0.00310794 158.8147317 -0.00345264 160.55644608 -0.00568008 C170.92325234 -0.01770296 181.17845889 0.28529329 191.51431274 1.12698364 C191.51431274 1.78698364 191.51431274 2.44698364 191.51431274 3.12698364 C123.86431274 3.12698364 56.21431274 3.12698364 -13.48568726 3.12698364 C-13.15568726 2.46698364 -12.82568726 1.80698364 -12.48568726 1.12698364 C-8.38292662 -0.08165289 -4.24060032 -0.01368698 0 0 Z " fill="#7CDDFE" transform="translate(868.4856872558594,277.8730163574219)"/>
<path d="M0 0 C-0.33 0.66 -0.66 1.32 -1 2 C-3.04125977 2.41064453 -3.04125977 2.41064453 -5.69140625 2.6328125 C-6.63564453 2.71660156 -7.57988281 2.80039062 -8.55273438 2.88671875 C-9.54595703 2.96535156 -10.53917969 3.04398438 -11.5625 3.125 C-13.05813477 3.25455078 -13.05813477 3.25455078 -14.58398438 3.38671875 C-17.05539988 3.59956793 -19.52723225 3.80359321 -22 4 C-21.98667633 4.99700928 -21.97335266 5.99401855 -21.95962524 7.02124023 C-21.83776719 16.43693292 -21.74794315 25.85246473 -21.68912697 35.26876831 C-21.65787153 40.10936458 -21.61550525 44.94932209 -21.54736328 49.78955078 C-21.48196313 54.46451048 -21.44625045 59.1388575 -21.43073654 63.8142395 C-21.4196871 65.59402099 -21.3981095 67.37377057 -21.36561966 69.15328979 C-21.07055043 85.99095501 -21.07055043 85.99095501 -26.31747437 91.60742188 C-29.18710519 93.98253286 -31.42839602 95.80946534 -35 97 C-36.2375 97.7734375 -36.2375 97.7734375 -37.5 98.5625 C-40 100 -40 100 -43 100 C-43 99.34 -43 98.68 -43 98 C-41.27852222 96.62340232 -39.49622345 95.32227237 -37.6875 94.0625 C-31.46011193 89.70739854 -27.89160593 86.59978212 -26 79 C-25.57288526 75.16550399 -25.53550202 71.35964153 -25.5234375 67.50390625 C-25.50785797 66.39812729 -25.49227844 65.29234833 -25.47622681 64.15306091 C-25.42895296 60.62288231 -25.40112418 57.09289259 -25.375 53.5625 C-25.32580189 48.9595638 -25.26880194 44.35674069 -25.2109375 39.75390625 C-25.1981073 38.62369049 -25.1852771 37.49347473 -25.17205811 36.32901001 C-25.0202579 24.54307805 -24.5441168 12.77356175 -24 1 C-22.14445563 0.87629704 -20.28890938 0.75262209 -18.43334961 0.62915039 C-17.0186314 0.53464528 -15.60401241 0.43865174 -14.18945312 0.34179688 C-9.44959088 0.03615581 -4.74966717 -0.04278979 0 0 Z " fill="#2595E5" transform="translate(1243,636)"/>
<path d="M0 0 C0 0.99 0 1.98 0 3 C-0.69738281 3.26296875 -1.39476562 3.5259375 -2.11328125 3.796875 C-20.25736864 11.15898656 -20.25736864 11.15898656 -34 24 C-34.66 24 -35.32 24 -36 24 C-36 24.66 -36 25.32 -36 26 C-36.66 26 -37.32 26 -38 26 C-38 26.66 -38 27.32 -38 28 C-43.47619048 33 -43.47619048 33 -46 33 C-46.66 34.32 -47.32 35.64 -48 37 C-48.66 37 -49.32 37 -50 37 C-50.268125 37.56847656 -50.53625 38.13695312 -50.8125 38.72265625 C-52.46738717 41.8963379 -54.52093167 44.74883927 -56.5625 47.68359375 C-58.03300733 50.05318844 -59.04124796 52.38647882 -60 55 C-60.66 55 -61.32 55 -62 55 C-62.12375 55.804375 -62.2475 56.60875 -62.375 57.4375 C-62.684375 58.7059375 -62.684375 58.7059375 -63 60 C-63.99 60.495 -63.99 60.495 -65 61 C-64.23105855 44.39086466 -51.75349757 32.53893456 -40.09228516 21.80224609 C-30.05305448 13.15468473 -13.9159299 0 0 0 Z " fill="#78D8FD" transform="translate(803,256)"/>
<path d="M0 0 C1.7292144 0.00014351 1.7292144 0.00014351 3.49336243 0.00028992 C7.23917145 0.00400148 10.98471436 0.02292618 14.73046875 0.04296875 C17.31949778 0.04983588 19.90852778 0.05634307 22.49755859 0.0625 C45.31122548 0.13961632 68.11405537 0.5784329 90.91796875 1.23046875 C86.99432096 3.84623394 83.64578995 3.53030547 79.09130859 3.53344727 C77.73708298 3.54610626 77.73708298 3.54610626 76.35549927 3.559021 C73.36329634 3.5848607 70.3711924 3.59695893 67.37890625 3.609375 C65.29724346 3.62555148 63.21558824 3.64273164 61.13394165 3.66087341 C55.64324467 3.70662881 50.15253738 3.74138328 44.66174316 3.77307129 C35.89446476 3.82485469 27.12729953 3.89042184 18.36015701 3.96128654 C15.3042726 3.98400063 12.24840205 4.00035502 9.19247437 4.01600647 C7.30198014 4.02942741 5.41148729 4.04304341 3.52099609 4.05688477 C2.67909729 4.05949814 1.83719849 4.06211151 0.9697876 4.06480408 C-8.1338748 3.52298593 -8.1338748 3.52298593 -16.08203125 6.23046875 C-17.60131163 6.30226839 -19.12370607 6.31438882 -20.64453125 6.29296875 C-21.47082031 6.28394531 -22.29710937 6.27492188 -23.1484375 6.265625 C-23.78652344 6.25402344 -24.42460938 6.24242187 -25.08203125 6.23046875 C-24.75203125 5.57046875 -24.42203125 4.91046875 -24.08203125 4.23046875 C-23.42203125 4.23046875 -22.76203125 4.23046875 -22.08203125 4.23046875 C-22.08203125 3.57046875 -22.08203125 2.91046875 -22.08203125 2.23046875 C-14.64822934 0.41962052 -7.63301235 -0.05076392 0 0 Z " fill="#71D7FE" transform="translate(636.08203125,441.76953125)"/>
<path d="M0 0 C-5.08519458 3.39012972 -10.33332859 3.18965871 -16.30078125 3.39453125 C-17.93428149 3.46332687 -19.56774427 3.53301653 -21.20117188 3.60351562 C-23.75495902 3.710587 -26.30845882 3.81236345 -28.86303711 3.89868164 C-31.34327534 3.98475274 -33.82163975 4.09408064 -36.30078125 4.20703125 C-37.05313553 4.22699661 -37.80548981 4.24696198 -38.5806427 4.26753235 C-45.39260758 4.61105129 -50.40931693 7.04259501 -55.8125 11.125 C-62.15651398 19.46284694 -61.46993215 30.06545793 -61.51171875 40.0703125 C-61.528596 41.60303151 -61.54675026 43.13573693 -61.56611633 44.66842651 C-61.61329243 48.66971591 -61.64330992 52.67095021 -61.66955566 56.67242432 C-61.69952622 60.76870601 -61.74599914 64.86479842 -61.79101562 68.9609375 C-61.87667937 76.9738646 -61.94418716 84.98680959 -62 93 C-65.25299806 91.43351939 -67.91714728 89.62461834 -70.75 87.375 C-71.94882813 86.42753906 -71.94882813 86.42753906 -73.171875 85.4609375 C-73.77515625 84.97882813 -74.3784375 84.49671875 -75 84 C-73.12890625 83.3828125 -73.12890625 83.3828125 -71 83 C-68.9375 84.875 -68.9375 84.875 -67 87 C-66.01 87.33 -65.02 87.66 -64 88 C-64.00444122 87.22183426 -64.00888245 86.44366852 -64.01345825 85.641922 C-64.05357093 78.30013088 -64.08400265 70.95839308 -64.10362434 63.61652088 C-64.11405124 59.8422 -64.12819037 56.06796984 -64.15087891 52.29370117 C-64.17264644 48.64974262 -64.18457686 45.00587121 -64.18975449 41.36185265 C-64.19344323 39.97321896 -64.20064646 38.58458991 -64.21146011 37.19599342 C-64.22602615 35.24765316 -64.22681736 33.29922478 -64.22705078 31.35083008 C-64.231492 30.2427449 -64.23593323 29.13465973 -64.24050903 27.99299622 C-63.99419159 24.92771768 -63.24512842 22.78870986 -62 20 C-61.76575109 18.35765485 -61.55734447 16.71141499 -61.375 15.0625 C-60.60817832 11.16448981 -59.68430674 9.07259885 -56.625 6.5 C-46.85132011 0.35901529 -33.72690341 1.61375418 -22.5859375 1.24609375 C-18.09369892 1.08278922 -13.65640657 0.71566606 -9.19042969 0.20947266 C-6.11126122 -0.08499085 -3.09077185 -0.06719069 0 0 Z " fill="#2999E5" transform="translate(1240,600)"/>
<path d="M0 0 C0.33 0 0.66 0 1 0 C1.07019076 24.02684695 1.12303745 48.05367846 1.15543652 72.08060741 C1.17088217 83.23761111 1.19192759 94.39455096 1.22631836 105.55151367 C1.25629128 115.2799162 1.27559172 125.00827248 1.28226548 134.73671991 C1.28616439 139.88422742 1.29527916 145.03160264 1.31719017 150.17906761 C1.33768016 155.03240448 1.34380869 159.88555563 1.33932304 164.73893166 C1.34014268 166.51213213 1.34603331 168.28533936 1.35761642 170.0585022 C1.4594016 186.45591845 -0.86136757 200.95315066 -10 215 C-11.96185416 216.71140469 -13.96302383 218.37873325 -16 220 C-17.35099103 221.31543863 -18.69205669 222.64175118 -20 224 C-20 219.85668397 -17.76870725 217.83217332 -15 215 C-14.319375 214.566875 -13.63875 214.13375 -12.9375 213.6875 C-9.69299864 210.86164398 -8.55235957 206.9391124 -7 203 C-6.731875 202.36964844 -6.46375 201.73929688 -6.1875 201.08984375 C-1.20359803 188.86370923 -0.55429301 176.80523922 -0.56762695 163.81713867 C-0.55859209 162.02213372 -0.54826069 160.2271349 -0.53674316 158.43214417 C-0.50934947 153.59834073 -0.4999128 148.76465493 -0.49388909 143.93078399 C-0.48445918 138.86456064 -0.4582523 133.79842358 -0.43388367 128.73225403 C-0.39034139 119.15622666 -0.36171923 109.58021616 -0.33856028 100.00412017 C-0.31144257 89.09466547 -0.26753528 78.18529811 -0.22227156 67.27590597 C-0.12960118 44.85065144 -0.05784011 22.42536952 0 0 Z " fill="#2092E1" transform="translate(1301,354)"/>
<path d="M0 0 C0.33 0 0.66 0 1 0 C0.99777939 1.13925934 0.99555878 2.27851868 0.99327087 3.45230103 C0.97299166 14.1932165 0.9580048 24.93412808 0.94818783 35.67505836 C0.94297116 41.19695458 0.93589556 46.71883534 0.92456055 52.24072266 C0.9136885 57.57048062 0.90771399 62.90022371 0.90512276 68.22999191 C0.9032763 70.26252857 0.89967066 72.29506443 0.89426994 74.32759476 C0.88700226 77.17625939 0.88601148 80.02486273 0.88647461 82.87353516 C0.88287933 83.71223145 0.87928406 84.55092773 0.87557983 85.41503906 C0.88315255 89.72482839 1.13883794 93.75521191 2 98 C2.72059601 98.01030746 3.44119202 98.02061493 4.18362427 98.03123474 C11.03705046 98.12997688 17.89040952 98.23258648 24.74371529 98.33933926 C28.26547743 98.39406612 31.78724821 98.44739448 35.30908203 98.49731445 C39.37539996 98.55501777 43.4415952 98.61918563 47.5078125 98.68359375 C48.74798126 98.70030624 49.98815002 98.71701874 51.26589966 98.73423767 C59.54513905 98.87182553 67.74737979 99.32884634 76 100 C76 100.33 76 100.66 76 101 C50.59 101 25.18 101 -1 101 C-1.04010881 76.6628658 -1.04010881 76.6628658 -1.04882812 66.31054688 C-1.0548122 59.23916883 -1.06190095 52.16780369 -1.07543945 45.09643555 C-1.08628316 39.39711172 -1.09228 33.69780174 -1.09487724 27.9984684 C-1.0967288 25.82110692 -1.10034429 23.64374622 -1.10573006 21.46639061 C-1.11296012 18.42313356 -1.1139901 15.37993414 -1.11352539 12.33666992 C-1.11712067 11.43108337 -1.12071594 10.52549683 -1.12442017 9.59246826 C-1.1230455 8.76375717 -1.12167084 7.93504608 -1.12025452 7.08122253 C-1.12117631 6.36130221 -1.1220981 5.64138189 -1.12304783 4.89964581 C-1 3 -1 3 0 0 Z " fill="#2696E2" transform="translate(771,341)"/>
<path d="M0 0 C-3.06750205 3.06750205 -6.10224431 3.12284249 -10.30622864 3.14476013 C-11.58666801 3.15510788 -11.58666801 3.15510788 -12.89297485 3.16566467 C-14.28557022 3.16958473 -14.28557022 3.16958473 -15.70629883 3.17358398 C-17.18260521 3.1836145 -17.18260521 3.1836145 -18.68873596 3.19384766 C-20.8254606 3.20789165 -22.96220017 3.21978778 -25.09894753 3.22979546 C-28.48274278 3.24621854 -31.86642753 3.26945758 -35.25016785 3.29469299 C-44.8709054 3.36542947 -54.49168812 3.42555384 -64.11254883 3.47680664 C-69.99812556 3.50863868 -75.88357512 3.54992532 -81.76904869 3.59700203 C-84.01006466 3.61299676 -86.2511099 3.62532997 -88.49216652 3.63390923 C-91.63008117 3.64609441 -94.76769815 3.67025834 -97.90551758 3.69702148 C-99.28900391 3.6979052 -99.28900391 3.6979052 -100.70043945 3.69880676 C-107.3930127 3.77425238 -113.06310811 4.67534054 -119 8 C-119.99 7.34 -120.98 6.68 -122 6 C-119.4115468 2.83633497 -116.9193807 2.01870723 -113 1 C-109.53074311 0.69915346 -106.07261581 0.68890786 -102.59179688 0.68115234 C-101.0394912 0.66608391 -101.0394912 0.66608391 -99.45582581 0.65071106 C-96.04347264 0.61988601 -92.63119817 0.6028395 -89.21875 0.5859375 C-86.84272597 0.56721733 -84.46670852 0.54764329 -82.09069824 0.5272522 C-75.83937498 0.47592595 -69.58802998 0.43631676 -63.33660889 0.39910889 C-56.98086108 0.35916997 -50.62520518 0.30796569 -44.26953125 0.2578125 C-34.98245694 0.1860197 -25.69536991 0.11875891 -16.40820312 0.06005859 C-15.43867203 0.05384995 -14.46914093 0.0476413 -13.4702301 0.04124451 C-8.98007073 0.01368241 -4.49027168 -0.00717389 0 0 Z " fill="#1C8BDB" transform="translate(878,726)"/>
<path d="M0 0 C0.33 0 0.66 0 1 0 C1 3.3 1 6.6 1 10 C-32 10 -65 10 -99 10 C-99 9.34 -99 8.68 -99 8 C-88.14198319 7.84542603 -77.28389905 7.69725636 -66.42568684 7.5570364 C-61.38261984 7.4917152 -56.33960067 7.42427136 -51.29663086 7.35180664 C-46.42077047 7.28182412 -41.54486372 7.21763926 -36.66887474 7.15730476 C-34.81793686 7.13341522 -32.96702373 7.10751259 -31.11614418 7.07946587 C-21.00820402 6.92769184 -11.06829351 6.95344972 -1 8 C-0.67 5.36 -0.34 2.72 0 0 Z " fill="#299BE1" transform="translate(726,432)"/>
<path d="M0 0 C-6.54358845 4.08974278 -15.55295721 3.14160796 -22.9831543 3.12597656 C-24.59218376 3.12877876 -24.59218376 3.12877876 -26.23371887 3.13163757 C-28.55262195 3.13562622 -30.87152893 3.13771499 -33.19043541 3.13809967 C-38.13596855 3.14153661 -43.08137274 3.16292566 -48.02686024 3.18333054 C-57.22031727 3.22123081 -66.41363348 3.25261783 -75.60717773 3.25048828 C-82.0162257 3.24969834 -88.42479613 3.27318244 -94.83371925 3.3123703 C-97.26515363 3.32278534 -99.69664341 3.32438778 -102.128088 3.31671906 C-122.0644082 2.57972355 -122.0644082 2.57972355 -139.3223114 11.16925049 C-139.87594864 11.77339783 -140.42958588 12.37754517 -141 13 C-141.99 12.67 -142.98 12.34 -144 12 C-143.34 12 -142.68 12 -142 12 C-141.7525 11.401875 -141.505 10.80375 -141.25 10.1875 C-138.63650648 5.61388634 -134.84846263 4.5084106 -130 3 C-129.67 2.67 -129.34 2.34 -129 2 C-127.53584475 1.89657079 -126.06675657 1.86205154 -124.59896851 1.85523987 C-123.6484964 1.84834137 -122.69802429 1.84144287 -121.71875 1.83433533 C-120.6673584 1.83172195 -119.6159668 1.82910858 -118.53271484 1.82641602 C-117.43190582 1.819729 -116.3310968 1.81304199 -115.19692993 1.80615234 C-112.79659526 1.79206205 -110.39624687 1.78018082 -107.99589157 1.77020454 C-104.19648045 1.753844 -100.39717029 1.73060622 -96.59780884 1.70530701 C-85.7916551 1.63440876 -74.9854629 1.57444859 -64.17919922 1.52319336 C-57.57738327 1.49179648 -50.97567626 1.45008476 -44.37395096 1.40299797 C-41.85661494 1.38698774 -39.33925268 1.37466167 -36.82188034 1.36609077 C-33.29568733 1.35391687 -29.76976043 1.3297556 -26.24365234 1.30297852 C-24.68478302 1.3020948 -24.68478302 1.3020948 -23.09442139 1.30119324 C-14.94751337 1.21935014 -8.03828085 -1.41022471 0 0 Z " fill="#2A98E7" transform="translate(878,689)"/>
<path d="M0 0 C4.71224039 7.06836059 4.277547 14.31612816 4.22705078 22.54467773 C4.22734283 23.79415695 4.22763489 25.04363617 4.22793579 26.33097839 C4.22678512 29.7396423 4.21678762 33.14806088 4.20278788 36.55668139 C4.19024493 40.12543174 4.18910722 43.69418572 4.18673706 47.26295471 C4.18053273 54.01303622 4.16413616 60.76305257 4.14403808 67.51310545 C4.1216464 75.20114134 4.11067745 82.88918042 4.10064721 90.57724082 C4.07976895 106.38486489 4.04461344 122.19242402 4 138 C3.67 138 3.34 138 3 138 C2.99668985 137.36885631 2.99337971 136.73771261 2.98996925 136.08744335 C2.9087946 120.73948213 2.81672049 105.39163103 2.71247292 90.04381084 C2.66232345 82.62175755 2.61588086 75.19971543 2.578125 67.77758789 C2.5452126 61.30943787 2.50538565 54.84137399 2.45720994 48.37331897 C2.43193736 44.94764591 2.41015841 41.52203004 2.39665604 38.09628868 C2.38146371 34.27461922 2.35083596 30.45315946 2.31884766 26.6315918 C2.31668747 25.49223679 2.31452728 24.35288177 2.31230164 23.17900085 C2.30113815 22.13993591 2.28997467 21.10087097 2.2784729 20.03031921 C2.27294214 19.1260403 2.26741138 18.22176138 2.26171303 17.29008007 C2.1448657 14.72260491 2.1448657 14.72260491 0 12 C-0.44921875 9.84375 -0.44921875 9.84375 -0.6875 7.5 C-0.77386719 6.7265625 -0.86023438 5.953125 -0.94921875 5.15625 C-1 3 -1 3 0 0 Z " fill="#2D9CE9" transform="translate(915,512)"/>
<path d="M0 0 C-0.33 0.66 -0.66 1.32 -1 2 C-3.04125977 2.41064453 -3.04125977 2.41064453 -5.69140625 2.6328125 C-6.63564453 2.71660156 -7.57988281 2.80039062 -8.55273438 2.88671875 C-10.04256836 3.00466797 -10.04256836 3.00466797 -11.5625 3.125 C-13.05813477 3.25455078 -13.05813477 3.25455078 -14.58398438 3.38671875 C-17.05539988 3.59956793 -19.52723225 3.80359321 -22 4 C-21.99777939 4.57914154 -21.99555878 5.15828308 -21.99327087 5.75497437 C-21.97102084 11.82280862 -21.9560117 17.89063114 -21.94506836 23.95849609 C-21.94006244 26.21826651 -21.93325571 28.47803373 -21.92456055 30.73779297 C-21.91233026 33.99968255 -21.90673413 37.26152904 -21.90234375 40.5234375 C-21.89718246 41.52176605 -21.89202118 42.5200946 -21.88670349 43.54867554 C-21.88621496 49.75949904 -22.25577083 55.83362015 -23 62 C-23.33 62 -23.66 62 -24 62 C-24 41.87 -24 21.74 -24 1 C-8 0 -8 0 0 0 Z " fill="#1B8AD7" transform="translate(1243,636)"/>
<path d="M0 0 C21.12 0 42.24 0 64 0 C64 0.33 64 0.66 64 1 C58.40315912 1.14586623 52.80623968 1.28806642 47.20922852 1.42724609 C45.31564989 1.474805 43.42209374 1.52326941 41.52856445 1.57275391 C28.01585022 1.92504068 14.51721731 2.06237516 1 2 C1.0178656 2.66967804 1.0357312 3.33935608 1.05413818 4.02932739 C1.62470212 26.21379998 1.62470212 26.21379998 -3 36 C-3.66 36 -4.32 36 -5 36 C-5.103125 36.639375 -5.20625 37.27875 -5.3125 37.9375 C-5.539375 38.618125 -5.76625 39.29875 -6 40 C-7.485 40.495 -7.485 40.495 -9 41 C-7.10399899 36.22031374 -5.11298244 31.48252795 -3.12109375 26.7421875 C0.8275929 17.08372746 -0.68097959 14.30057141 0 0 Z " fill="#30A0E8" transform="translate(960,638)"/>
<path d="M0 0 C0.5534764 2.07553648 1 3.84365964 1 6 C-0.62339805 7.70884005 -2.29319053 9.37446717 -4 11 C-6.07362787 12.99793014 -6.07362787 12.99793014 -7.9375 15.4375 C-11.08 19.34181818 -11.08 19.34181818 -13 21 C-13.66 21 -14.32 21 -15 21 C-15 21.66 -15 22.32 -15 23 C-15.78375 23.2475 -16.5675 23.495 -17.375 23.75 C-20.43941457 25.20924503 -20.61725761 26.05014956 -22 29 C-24 30.3125 -24 30.3125 -26 31 C-26.66 30.67 -27.32 30.34 -28 30 C-27.15890937 25.19917528 -24.05557604 23.13499437 -20.4375 20.1875 C-19.15622922 19.11460815 -17.8749791 18.04169163 -16.59375 16.96875 C-15.3966307 15.97820222 -14.19879065 14.98852441 -13 14 C-7.78976469 9.69029919 -3.7120273 5.6840418 0 0 Z " fill="#1F90E3" transform="translate(1327,584)"/>
<path d="M0 0 C0.99 0.33 1.98 0.66 3 1 C2.7734375 2.83203125 2.7734375 2.83203125 2 5 C0.1015625 6.38671875 0.1015625 6.38671875 -2.375 7.6875 C-12.87087991 13.68514566 -20.40025001 20.88290474 -27 31 C-27.99 30.67 -28.98 30.34 -30 30 C-29 28 -29 28 -27 25 C-26.8453125 24.071875 -26.8453125 24.071875 -26.6875 23.125 C-25.62999578 19.85635058 -23.5649431 18.20704406 -21 16 C-18.6875 15.1875 -18.6875 15.1875 -17 15 C-17 14.34 -17 13.68 -17 13 C-16.195625 12.71125 -15.39125 12.4225 -14.5625 12.125 C-11.8673532 11.26737432 -11.8673532 11.26737432 -11 9 C-9.24398654 7.89818763 -7.42911499 6.96281442 -5.59375 6 C-3.82455659 5.08240231 -3.82455659 5.08240231 -3 3 C-2.01 3 -1.02 3 0 3 C0 2.01 0 1.02 0 0 Z " fill="#74D7FD" transform="translate(808,289)"/>
<path d="M0 0 C6.20873614 2.06957871 11.73235915 6.04953661 16 11 C16 11.66 16 12.32 16 13 C18.97 13.66 21.94 14.32 25 15 C25 15.66 25 16.32 25 17 C25.66 17 26.32 17 27 17 C27.2475 17.61875 27.495 18.2375 27.75 18.875 C29.20628639 21.35068687 30.37812506 21.95125002 33 23 C33 23.66 33 24.32 33 25 C33.99 25.33 34.98 25.66 36 26 C35.67 26.66 35.34 27.32 35 28 C30.86893824 26.5957362 28.0650375 24.62834326 24.75 21.8125 C21.36053509 18.96752744 17.96328033 16.17408206 14.4375 13.5 C9.39524126 9.60869162 4.56601484 5.44209377 0 1 C0 0.67 0 0.34 0 0 Z " fill="#1F8FDD" transform="translate(1075,610)"/>
<path d="M0 0 C0.99 0 1.98 0 3 0 C3 0.66 3 1.32 3 2 C4.010625 1.896875 5.02125 1.79375 6.0625 1.6875 C11.86618756 1.6458965 17.12800206 3.87610295 22.51171875 5.80859375 C25.36399434 6.78277522 28.03553175 7.50686666 31 8 C31 8.66 31 9.32 31 10 C31.804375 10.20625 32.60875 10.4125 33.4375 10.625 C38.110473 12.42860362 41.92616004 15.12115309 46 18 C45.34 18.66 44.68 19.32 44 20 C42.9584375 19.41992188 41.916875 18.83984375 40.84375 18.2421875 C27.46900382 10.9058222 14.35363958 4.68657404 -1 3 C-0.67 2.01 -0.34 1.02 0 0 Z " fill="#2897E4" transform="translate(877,442)"/>
<path d="M0 0 C3.56359866 -0.14545301 6.4892295 -0.1672739 9.8984375 0.94921875 C16.7194404 3.00215077 24.15218961 2.76434154 31.21679688 3.12304688 C32.38404297 3.19458984 33.55128906 3.26613281 34.75390625 3.33984375 C36.33667358 3.42286743 36.33667358 3.42286743 37.95141602 3.50756836 C41.41553705 4.06712086 43.95156112 5.29596573 47 7 C47 7.66 47 8.32 47 9 C46.44957031 8.87882813 45.89914062 8.75765625 45.33203125 8.6328125 C38.81810076 7.31992729 32.36142427 6.66340119 25.75 6.125 C16.78767979 5.37374434 8.57562984 3.71364016 0 1 C0 0.67 0 0.34 0 0 Z " fill="#2A99E3" transform="translate(617,687)"/>
<path d="M0 0 C4.14127943 0.55882325 6.89766508 2.97517547 10.0625 5.5 C10.90989746 6.1662439 10.90989746 6.1662439 11.77441406 6.84594727 C12.94293634 7.76778514 14.10877555 8.69303377 15.27197266 9.62158203 C16.92837669 10.9428673 18.5942191 12.25135951 20.26171875 13.55859375 C27.87244217 19.61732651 27.87244217 19.61732651 29 23 C24.51884905 21.59163827 22.20839787 19.36881776 19 16 C15.95983978 13.21318647 13.15883314 11.59317684 9.375 10.0625 C5.43336524 8.41524965 3.82535098 6.97282272 2 3 C1.34 2.67 0.68 2.34 0 2 C0 1.34 0 0.68 0 0 Z " fill="#1B8BDB" transform="translate(1134,708)"/>
<path d="M0 0 C12.1075217 2.09265807 21.55466639 10.19074981 29.05859375 19.57421875 C31.42025926 23.00061595 33.16415859 25.89427354 34 30 C33.01 29.67 32.02 29.34 31 29 C30.3125 26.9375 30.3125 26.9375 30 25 C29.34 25 28.68 25 28 25 C27.7525 24.278125 27.505 23.55625 27.25 22.8125 C24.741749 17.16893525 20.5468602 12.7734301 15 10 C15 9.34 15 8.68 15 8 C14.195625 7.773125 13.39125 7.54625 12.5625 7.3125 C8.08714261 5.66368412 4.11278682 3.39455588 0 1 C0 0.67 0 0.34 0 0 Z " fill="#2797E2" transform="translate(881,481)"/>
<path d="M0 0 C0.66 0.33 1.32 0.66 2 1 C1.32904297 1.70962891 1.32904297 1.70962891 0.64453125 2.43359375 C-3.79634512 7.29109818 -7.04460663 12.13766233 -10 18 C-10.44472656 18.85207031 -10.88945313 19.70414062 -11.34765625 20.58203125 C-13.60613308 24.97387977 -15.62132767 29.23731376 -17 34 C-17.33 34 -17.66 34 -18 34 C-18.3986014 26.02797203 -18.3986014 26.02797203 -15 22 C-13.86843665 19.36987979 -12.94683052 16.70523006 -12 14 C-11.34 14 -10.68 14 -10 14 C-9.690625 13.21625 -9.38125 12.4325 -9.0625 11.625 C-8 9 -8 9 -7 7 C-6.34 7 -5.68 7 -5 7 C-5.33 5.35 -5.66 3.7 -6 2 C-5.01 2 -4.02 2 -3 2 C-2.01 1.34 -1.02 0.68 0 0 Z " fill="#2B99E5" transform="translate(751,288)"/>
<path d="M0 0 C1.98 0 3.96 0 6 0 C6.33 0.99 6.66 1.98 7 3 C8.64034193 3.72904086 10.31301918 4.38655243 12 5 C12.845625 5.53625 13.69125 6.0725 14.5625 6.625 C17.11422287 8.32754746 17.11422287 8.32754746 21 8 C21 8.99 21 9.98 21 11 C21.66 11 22.32 11 23 11 C23 11.99 23 12.98 23 14 C24.32 14 25.64 14 27 14 C29.75 16.5 29.75 16.5 32 19 C31.67 19.99 31.34 20.98 31 22 C30.154375 21.21625 29.30875 20.4325 28.4375 19.625 C19.99141693 12.40024463 10.37873234 6.00582652 0 2 C0 1.34 0 0.68 0 0 Z " fill="#2899E4" transform="translate(1277,258)"/>
<path d="M0 0 C0.33 0 0.66 0 1 0 C0.07287635 7.7260304 -0.91018662 12.80137882 -7 18 C-7.99 18.33 -8.98 18.66 -10 19 C-11.2375 19.7734375 -11.2375 19.7734375 -12.5 20.5625 C-15 22 -15 22 -18 22 C-18 21.34 -18 20.68 -18 20 C-16.27852222 18.62340232 -14.49622345 17.32227237 -12.6875 16.0625 C-7.57434743 12.48663513 -4.24918263 10.11012418 -1.8125 4.3125 C-1.46832031 3.50425781 -1.12414063 2.69601562 -0.76953125 1.86328125 C-0.51558594 1.24839844 -0.26164062 0.63351562 0 0 Z " fill="#1B89DD" transform="translate(1218,714)"/>
<path d="M0 0 C1.875 0.125 1.875 0.125 4 1 C5.25 4.0625 5.25 4.0625 6 7 C7.32 7 8.64 7 10 7 C10.09539063 7.59941406 10.19078125 8.19882812 10.2890625 8.81640625 C11.62626686 12.92353392 15.45649074 14.81464965 19 17 C22.60878912 18.81386645 26.27064548 20.45067257 30 22 C30 22.99 30 23.98 30 25 C19.10752871 21.78873809 7.96178982 13.74484502 1.78125 4.09765625 C0.9375 2.4375 0.9375 2.4375 0 0 Z " fill="#2998E2" transform="translate(587,662)"/>
<path d="M0 0 C0.66 0 1.32 0 2 0 C2.268125 0.59425781 2.53625 1.18851563 2.8125 1.80078125 C8.03567997 12.84849415 15.11268838 21.66814536 24 30 C21 30 21 30 19 29 C19 28.34 19 27.68 19 27 C18.01 26.67 17.02 26.34 16 26 C16 25.34 16 24.68 16 24 C15.34 24 14.68 24 14 24 C13.67 23.34 13.34 22.68 13 22 C12.01 21.566875 12.01 21.566875 11 21.125 C9 20 9 20 8.375 18 C8.25125 17.34 8.1275 16.68 8 16 C7.34 15.34 6.68 14.68 6 14 C5.2575 12.4840625 5.2575 12.4840625 4.5 10.9375 C3.32219888 7.91393318 3.32219888 7.91393318 1 7 C0.59270772 4.67843403 0.25561323 2.3431213 0 0 Z " fill="#2799E3" transform="translate(547,674)"/>
<path d="M0 0 C13.365 0.495 13.365 0.495 27 1 C27 1.66 27 2.32 27 3 C23.51804525 4.74097738 19.5862701 4.22706266 15.75 4.25 C14.90308594 4.270625 14.05617188 4.29125 13.18359375 4.3125 C8.0017324 4.34473553 4.52839277 3.81174714 0 1 C0 0.67 0 0.34 0 0 Z " fill="#1989DD" transform="translate(1169,735)"/>
<path d="M0 0 C-0.3125 1.9375 -0.3125 1.9375 -1 4 C-1.99 4.33 -2.98 4.66 -4 5 C-4.33 5.99 -4.66 6.98 -5 8 C-5.99 8 -6.98 8 -8 8 C-8 8.66 -8 9.32 -8 10 C-9.8984375 11.5078125 -9.8984375 11.5078125 -12.375 13.125 C-13.59316406 13.93324219 -13.59316406 13.93324219 -14.8359375 14.7578125 C-17 16 -17 16 -19 16 C-18.65553012 13.08825458 -18.07347919 12.07084999 -15.92578125 10 C-15.06339844 9.34 -14.20101562 8.68 -13.3125 8 C-12.41144531 7.3090625 -11.51039063 6.618125 -10.58203125 5.90625 C-2.58196721 0 -2.58196721 0 0 0 Z " fill="#1F8FE0" transform="translate(736,749)"/>
<path d="M0 0 C-1.54107422 0.74443359 -1.54107422 0.74443359 -3.11328125 1.50390625 C-13.36781952 6.5102346 -23.12185694 11.74609981 -32 19 C-32.66 18.67 -33.32 18.34 -34 18 C-29.73930283 12.36979303 -25.17736739 9.25715735 -19 6 C-18.01 6 -17.02 6 -16 6 C-16 5.34 -16 4.68 -16 4 C-14.08959948 3.1319092 -12.17139263 2.28098217 -10.25 1.4375 C-9.18265625 0.96183594 -8.1153125 0.48617188 -7.015625 -0.00390625 C-4.01630163 -0.9946154 -2.86578759 -1.16161779 0 0 Z " fill="#2596E2" transform="translate(601,449)"/>
<path d="M0 0 C3.86933162 0.57323431 6.15222057 2.38953552 9 5 C9 5.66 9 6.32 9 7 C10.32 7.33 11.64 7.66 13 8 C13 8.66 13 9.32 13 10 C13.54269531 10.2475 14.08539062 10.495 14.64453125 10.75 C17.5170871 12.27440775 20.05662617 14.08919177 22.6875 16 C23.66074219 16.70125 24.63398437 17.4025 25.63671875 18.125 C28 20 28 20 29 22 C25.91666899 21.39706197 23.92703149 20.44516744 21.42578125 18.55859375 C20.76191406 18.06077393 20.09804687 17.5629541 19.4140625 17.05004883 C18.72054688 16.51790771 18.02703125 15.9857666 17.3125 15.4375 C16.60222656 14.89826904 15.89195313 14.35903809 15.16015625 13.8034668 C9.91289059 9.78483211 4.64873425 5.7133 0 1 C0 0.67 0 0.34 0 0 Z " fill="#2797E2" transform="translate(1112,640)"/>
<path d="M0 0 C2.60444348 -0.05394705 5.20776998 -0.09364469 7.8125 -0.125 C8.55048828 -0.14175781 9.28847656 -0.15851563 10.04882812 -0.17578125 C13.91246426 -0.21074628 15.70903668 -0.19397555 19 2 C17 4 17 4 13.3046875 4.1953125 C11.82799892 4.182009 10.35137642 4.15814835 8.875 4.125 C8.12089844 4.11597656 7.36679687 4.10695313 6.58984375 4.09765625 C4.72642746 4.0740687 2.86317407 4.03819719 1 4 C0.67 2.68 0.34 1.36 0 0 Z " fill="#2EA0E7" transform="translate(832,283)"/>
<path d="M0 0 C0.66 0.33 1.32 0.66 2 1 C2 1.99 2 2.98 2 4 C1.34 4 0.68 4 0 4 C0 4.66 0 5.32 0 6 C-0.66 6 -1.32 6 -2 6 C-2 7.32 -2 8.64 -2 10 C-2.99 10.495 -2.99 10.495 -4 11 C-5.13350534 13.01669827 -5.13350534 13.01669827 -6 15 C-6.66 15 -7.32 15 -8 15 C-8 15.66 -8 16.32 -8 17 C-8.66 17.33 -9.32 17.66 -10 18 C-10.68472665 19.88764903 -10.68472665 19.88764903 -11.125 22.0625 C-11.29257812 22.79597656 -11.46015625 23.52945312 -11.6328125 24.28515625 C-11.75398437 24.85105469 -11.87515625 25.41695313 -12 26 C-12.66 26 -13.32 26 -14 26 C-13.76991867 24.41364978 -13.51500488 22.83089116 -13.25 21.25 C-13.11078125 20.36828125 -12.9715625 19.4865625 -12.828125 18.578125 C-11.8205495 15.44133335 -10.38099663 14.24271734 -8 12 C-6.72545957 10.13436836 -5.49680603 8.23667617 -4.3125 6.3125 C-1.06944444 1.06944444 -1.06944444 1.06944444 0 0 Z " fill="#2C99E1" transform="translate(787,310)"/>
<path d="M0 0 C6.12420653 4.51617465 12.07433562 9.22753377 18 14 C19.87450023 15.5006245 21.74948323 17.0006462 23.625 18.5 C25.08333333 19.66666667 26.54166667 20.83333333 28 22 C23.33388045 22 20.82541889 20.78515456 17.4375 17.5625 C16.633125 16.716875 15.82875 15.87125 15 15 C14.236875 14.443125 13.47375 13.88625 12.6875 13.3125 C11.8521875 12.6628125 11.8521875 12.6628125 11 12 C11 11.34 11 10.68 11 10 C10.29875 9.79375 9.5975 9.5875 8.875 9.375 C5.19826641 7.6165622 2.52704921 5.19571859 0 2 C0 1.34 0 0.68 0 0 Z " fill="#2797E1" transform="translate(1073,658)"/>
<path d="M0 0 C1.32 0.33 2.64 0.66 4 1 C4 1.66 4 2.32 4 3 C3.01 3.495 3.01 3.495 2 4 C1.67 4.99 1.34 5.98 1 7 C-0.15374995 8.11981612 -1.30908546 9.23804816 -2.47265625 10.34765625 C-5.09985512 13.18986884 -7.17125584 16.42765592 -9.3515625 19.6171875 C-11.12222945 22.17668239 -13.00771393 24.60925672 -15 27 C-13.84654868 20.27153394 -11.99085248 16.73491133 -7 12 C-6.67 11.34 -6.34 10.68 -6 10 C-5.34 10 -4.68 10 -4 10 C-3.71125 9.4225 -3.4225 8.845 -3.125 8.25 C-2.39161932 6.78323864 -1.64228395 5.32431413 -0.875 3.875 C0.14096182 2.04279198 0.14096182 2.04279198 0 0 Z " fill="#2596E2" transform="translate(561,469)"/>
<path d="M0 0 C0.66 0.66 1.32 1.32 2 2 C0.02 2.99 0.02 2.99 -2 4 C-2 4.66 -2 5.32 -2 6 C-2.66 6 -3.32 6 -4 6 C-4.33 6.99 -4.66 7.98 -5 9 C-5.66 9 -6.32 9 -7 9 C-7.2475 9.639375 -7.495 10.27875 -7.75 10.9375 C-9 13 -9 13 -11.0625 13.625 C-11.701875 13.74875 -12.34125 13.8725 -13 14 C-13.33 14.66 -13.66 15.32 -14 16 C-14.66 16 -15.32 16 -16 16 C-12.78827616 8.84020587 -6.35223878 4.27803836 0 0 Z " fill="#208FDA" transform="translate(754,733)"/>
<path d="M0 0 C-3.44028901 2.66622398 -5.81679683 4.19681651 -10.1875 4.625 C-14.06678922 4.70465686 -14.06678922 4.70465686 -17 7 C-19.69921875 7.4140625 -19.69921875 7.4140625 -22.6875 7.625 C-23.68136719 7.69976563 -24.67523437 7.77453125 -25.69921875 7.8515625 C-26.45847656 7.90054688 -27.21773437 7.94953125 -28 8 C-28.33 7.34 -28.66 6.68 -29 6 C-27.83597656 5.74476563 -27.83597656 5.74476563 -26.6484375 5.484375 C-19.25589196 3.82590416 -12.04165313 1.89487905 -4.80078125 -0.328125 C-2 -1 -2 -1 0 0 Z " fill="#2E9EE6" transform="translate(906,719)"/>
<path d="M0 0 C0.95310059 0.01047363 1.90620117 0.02094727 2.88818359 0.03173828 C4.43505859 0.04140625 4.43505859 0.04140625 6.01318359 0.05126953 C7.63353516 0.07640625 7.63353516 0.07640625 9.28662109 0.10205078 C10.37458984 0.11107422 11.46255859 0.12009766 12.58349609 0.12939453 C15.27642261 0.15301669 17.96891365 0.18595522 20.66162109 0.22705078 C20.66162109 0.88705078 20.66162109 1.54705078 20.66162109 2.22705078 C22.97162109 2.55705078 25.28162109 2.88705078 27.66162109 3.22705078 C27.66162109 3.88705078 27.66162109 4.54705078 27.66162109 5.22705078 C26.42541016 4.90994141 25.18919922 4.59283203 23.91552734 4.26611328 C18.16367402 2.98792365 12.47255197 2.77992124 6.59912109 2.60205078 C5.54273438 2.56337891 4.48634766 2.52470703 3.39794922 2.48486328 C0.81933701 2.39151985 -1.75928498 2.30573826 -4.33837891 2.22705078 C-2.33837891 0.22705078 -2.33837891 0.22705078 0 0 Z " fill="#2596E1" transform="translate(1041.33837890625,600.77294921875)"/>
<path d="M0 0 C0.66 0.33 1.32 0.66 2 1 C-17.84341637 18 -17.84341637 18 -21 18 C-21 16 -21 16 -18.875 13.5 C-15.9166434 10.927516 -13.75780105 9.96129794 -10 9 C-10 8.34 -10 7.68 -10 7 C-8.35 6.34 -6.7 5.68 -5 5 C-5 4.34 -5 3.68 -5 3 C-4.01 3 -3.02 3 -2 3 C-2 2.34 -2 1.68 -2 1 C-1.34 0.67 -0.68 0.34 0 0 Z " fill="#2895E0" transform="translate(710,720)"/>
<path d="M0 0 C0.75732422 0.00966797 1.51464844 0.01933594 2.29492188 0.02929688 C3.08060547 0.05443359 3.86628906 0.07957031 4.67578125 0.10546875 C5.87170898 0.12577148 5.87170898 0.12577148 7.09179688 0.14648438 C9.05758092 0.18179786 11.02301707 0.23560428 12.98828125 0.29296875 C12.65828125 0.95296875 12.32828125 1.61296875 11.98828125 2.29296875 C8.22527751 3.54730333 4.71617216 3.39992297 0.80078125 3.35546875 C0.05119141 3.35095703 -0.69839844 3.34644531 -1.47070312 3.34179688 C-3.31774258 3.33003229 -5.16474088 3.3120974 -7.01171875 3.29296875 C-4.74810376 0.60821609 -3.50571314 -0.07907624 0 0 Z " fill="#73D8FD" transform="translate(839.01171875,279.70703125)"/>
<path d="M0 0 C-5.39090625 4.73746306 -10.88121897 7.13185597 -18 8 C-17.360625 7.731875 -16.72125 7.46375 -16.0625 7.1875 C-13.66868314 6.11332248 -13.66868314 6.11332248 -13 3 C-8.44293494 0.58743614 -5.23220388 -0.38284419 0 0 Z " fill="#34A0E6" transform="translate(828,286)"/>
<path d="M0 0 C0.33 1.32 0.66 2.64 1 4 C0.360625 4.268125 -0.27875 4.53625 -0.9375 4.8125 C-3.33131686 5.88667752 -3.33131686 5.88667752 -4 9 C-4.9590625 9.2165625 -4.9590625 9.2165625 -5.9375 9.4375 C-6.9584375 9.7159375 -6.9584375 9.7159375 -8 10 C-8.433125 10.928125 -8.433125 10.928125 -8.875 11.875 C-10.56177052 15.06112209 -12.68181821 15.80545456 -16 17 C-18.375 16.1875 -18.375 16.1875 -20 15 C-19.0925 14.690625 -18.185 14.38125 -17.25 14.0625 C-11.27106181 11.51591522 -5.87483132 7.24433263 -1 3 C-0.67 2.01 -0.34 1.02 0 0 Z " fill="#299AE6" transform="translate(716,762)"/>
<path d="M0 0 C1.32 0.33 2.64 0.66 4 1 C4 1.66 4 2.32 4 3 C4.66 3 5.32 3 6 3 C6 3.66 6 4.32 6 5 C6.71542969 5.2475 7.43085937 5.495 8.16796875 5.75 C11.31409706 7.13863595 13.63810963 8.84463946 16.3125 11 C17.19550781 11.70125 18.07851562 12.4025 18.98828125 13.125 C19.98408203 14.053125 19.98408203 14.053125 21 15 C21 15.66 21 16.32 21 17 C16.82502963 15.22119057 13.47094655 12.41359748 9.9375 9.625 C9.31294922 9.14289062 8.68839844 8.66078125 8.04492188 8.1640625 C4.89277193 5.68809414 2.20362557 3.40633696 0 0 Z " fill="#2998E4" transform="translate(1144,666)"/>
<path d="M0 0 C7.76837036 5.19310238 7.76837036 5.19310238 10 9 C10 9.66 10 10.32 10 11 C10.66 11 11.32 11 12 11 C13.33333333 13 14.66666667 15 16 17 C16.66 17 17.32 17 18 17 C18.33 18.65 18.66 20.3 19 22 C15.52053661 20.7573345 14.23968362 19.00062249 12.33984375 15.92578125 C9.19625721 11.40744841 4.97682 5.48841 0 3 C0 2.01 0 1.02 0 0 Z " fill="#2596E1" transform="translate(1311,280)"/>
<path d="M0 0 C0.66 0 1.32 0 2 0 C2.35191406 0.80824219 2.70382812 1.61648438 3.06640625 2.44921875 C6.16943654 9.16569945 8.49144332 13.35520826 15 17 C14.34 17.33 13.68 17.66 13 18 C5.22136818 14.18139892 5.22136818 14.18139892 3 10 C3 8.68 3 7.36 3 6 C2.34 6 1.68 6 1 6 C0.67 4.02 0.34 2.04 0 0 Z " fill="#2799DF" transform="translate(630,773)"/>
<path d="M0 0 C2 1 2 1 3 2.9375 C5.02920119 9.15192865 6.345351 15.43833107 6 22 C5.34 21.67 4.68 21.34 4 21 C4 19.02 4 17.04 4 15 C3.34 15 2.68 15 2 15 C1.66223316 13.2508503 1.32996329 11.50063855 1 9.75 C0.814375 8.77546875 0.62875 7.8009375 0.4375 6.796875 C0 4 0 4 0 0 Z " fill="#2798E4" transform="translate(1339,320)"/>
<path d="M0 0 C-0.33 0.66 -0.66 1.32 -1 2 C-3.13305664 2.41064453 -3.13305664 2.41064453 -5.91015625 2.6328125 C-6.89951172 2.71660156 -7.88886719 2.80039062 -8.90820312 2.88671875 C-9.94912109 2.96535156 -10.99003906 3.04398438 -12.0625 3.125 C-13.62967773 3.25455078 -13.62967773 3.25455078 -15.22851562 3.38671875 C-17.81844641 3.59958977 -20.4087755 3.80361379 -23 4 C-22.67 3.01 -22.34 2.02 -22 1 C-14.65623924 0.42240084 -7.36901413 -0.14738028 0 0 Z " fill="#2394DD" transform="translate(1243,636)"/>
<path d="M0 0 C0.66 0.33 1.32 0.66 2 1 C1.2884375 2.175625 1.2884375 2.175625 0.5625 3.375 C-0.33898023 4.88948678 -1.21179485 6.4235897 -2 8 C-2.66 8 -3.32 8 -4 8 C-4.33 8.99 -4.66 9.98 -5 11 C-6.98723268 11.70381157 -8.98777953 12.3711811 -11 13 C-11.33 13.66 -11.66 14.32 -12 15 C-11.67 13.68 -11.34 12.36 -11 11 C-10.34 11 -9.68 11 -9 11 C-8.34 9.68 -7.68 8.36 -7 7 C-6.34 7 -5.68 7 -5 7 C-4.731875 6.401875 -4.46375 5.80375 -4.1875 5.1875 C-3.01506533 3.02775192 -1.80630718 1.64209744 0 0 Z " fill="#54C3FC" transform="translate(1289,569)"/>
<path d="M0 0 C1.66066101 3.06861273 2.70177275 6.07564723 3.625 9.4375 C3.88539063 10.36433594 4.14578125 11.29117188 4.4140625 12.24609375 C4.98381204 14.92391659 5.10889863 17.27258425 5 20 C5.66 20.33 6.32 20.66 7 21 C6.34 21.66 5.68 22.32 5 23 C1.56800749 15.17995992 -0.87392795 8.60333515 0 0 Z " fill="#2B99E6" transform="translate(581,639)"/>
<path d="M0 0 C0.5534764 2.07553648 1 3.84365964 1 6 C-0.62339805 7.70884005 -2.29319053 9.37446717 -4 11 C-4.66 11.66 -5.32 12.32 -6 13 C-8.625 13.125 -8.625 13.125 -11 13 C-10.29875 12.34 -9.5975 11.68 -8.875 11 C-5.50583305 7.65014059 -2.77531275 3.84347436 0 0 Z " fill="#299AE5" transform="translate(1327,584)"/>
<path d="M0 0 C0.33 0.66 0.66 1.32 1 2 C1.66 2 2.32 2 3 2 C2.83984375 4.26171875 2.83984375 4.26171875 2 7 C-0.43359375 9.01953125 -0.43359375 9.01953125 -3.4375 10.8125 C-4.42621094 11.41707031 -5.41492187 12.02164063 -6.43359375 12.64453125 C-9 14 -9 14 -11 14 C-11 13.01 -11 12.02 -11 11 C-4.375 8.125 -4.375 8.125 -1 7 C-1.020625 6.030625 -1.04125 5.06125 -1.0625 4.0625 C-1 1 -1 1 0 0 Z " fill="#2594E3" transform="translate(1275,577)"/>
<path d="M0 0 C-0.33 0.99 -0.66 1.98 -1 3 C-1.74765625 3.12117188 -2.4953125 3.24234375 -3.265625 3.3671875 C-4.25046875 3.53476562 -5.2353125 3.70234375 -6.25 3.875 C-7.71179688 4.11863281 -7.71179688 4.11863281 -9.203125 4.3671875 C-11.7882756 4.95209588 -13.66115723 5.81058851 -16 7 C-16.99 7 -17.98 7 -19 7 C-19 6.34 -19 5.68 -19 5 C-12.66366518 2.2589296 -6.98497154 0 0 0 Z " fill="#76DDFE" transform="translate(831,283)"/>
<path d="M0 0 C0.33 0 0.66 0 1 0 C1.12953023 8.53049108 -1.72508777 14.36604925 -7 21 C-7.99 21.66 -8.98 22.32 -10 23 C-9.04207228 21.0714287 -8.07885771 19.14876937 -7.0703125 17.24609375 C-4.16398922 11.68564879 -2.04715043 5.92366932 0 0 Z " fill="#2695E3" transform="translate(916,648)"/>
<path d="M0 0 C0 0.99 0 1.98 0 3 C-4.0271824 5.20536179 -7.43545749 6.45660208 -12 7 C-11.4375 5.1875 -11.4375 5.1875 -10 3 C-6.49009536 1.21313946 -3.95875396 0 0 0 Z " fill="#1D8EDD" transform="translate(1290,618)"/>
<path d="M0 0 C0.66 0.33 1.32 0.66 2 1 C1.55269531 1.4846875 1.10539063 1.969375 0.64453125 2.46875 C-3.47777883 7.03932834 -6.9238704 11.66993213 -10 17 C-11 14 -11 14 -10.22265625 12.17578125 C-9.1484375 10.45052083 -8.07421875 8.72526042 -7 7 C-6.34 7 -5.68 7 -5 7 C-5.33 5.35 -5.66 3.7 -6 2 C-5.01 2 -4.02 2 -3 2 C-2.01 1.34 -1.02 0.68 0 0 Z " fill="#2596DD" transform="translate(751,288)"/>
<path d="M0 0 C0 0.66 0 1.32 0 2 C-0.99 2 -1.98 2 -3 2 C-3.268125 2.639375 -3.53625 3.27875 -3.8125 3.9375 C-5 6 -5 6 -8 7 C-8 7.66 -8 8.32 -8 9 C-8.99 8.67 -9.98 8.34 -11 8 C-11 7.01 -11 6.02 -11 5 C-9.609375 3.61328125 -9.609375 3.61328125 -7.75 2.3125 C-7.14671875 1.87550781 -6.5434375 1.43851563 -5.921875 0.98828125 C-4 0 -4 0 0 0 Z " fill="#2191DA" transform="translate(700,778)"/>
<path d="M0 0 C0.66 0 1.32 0 2 0 C2 0.66 2 1.32 2 2 C0.5390625 3.2890625 0.5390625 3.2890625 -1.375 4.625 C-2.31472656 5.29402344 -2.31472656 5.29402344 -3.2734375 5.9765625 C-5 7 -5 7 -7 7 C-7.33 7.99 -7.66 8.98 -8 10 C-10.5625 11.1875 -10.5625 11.1875 -13 12 C-12.80859375 10.1953125 -12.80859375 10.1953125 -12 8 C-9.78515625 6.3671875 -9.78515625 6.3671875 -7.0625 4.875 C-3.27343126 2.78335268 -3.27343126 2.78335268 0 0 Z " fill="#2695E2" transform="translate(725,708)"/>
<path d="M0 0 C6.26223021 2.69923716 9.94211018 5.52799707 14 11 C9.88451182 9.54747476 6.58540359 7.46994469 3 5 C2.34 4.67 1.68 4.34 1 4 C0.375 1.9375 0.375 1.9375 0 0 Z " fill="#1C8ADB" transform="translate(1120,696)"/>
<path d="M0 0 C0 0.66 0 1.32 0 2 C-1.71484375 3.65625 -1.71484375 3.65625 -3.9375 5.5 C-6.92045179 7.88926999 -6.92045179 7.88926999 -9 11 C-9.66 11 -10.32 11 -11 11 C-10.92763241 7.88819356 -10.74779369 5.743949 -8.48046875 3.48828125 C-3.73280802 0 -3.73280802 0 0 0 Z " fill="#1D8DDA" transform="translate(1190,605)"/>
<path d="M0 0 C1.890625 0.2734375 1.890625 0.2734375 4 1 C6.98681703 5.56938427 7.3310316 10.70349445 7 16 C6.34 16 5.68 16 5 16 C4.58427734 14.51886719 4.58427734 14.51886719 4.16015625 13.0078125 C3.79437568 11.71351203 3.42848451 10.41924281 3.0625 9.125 C2.88009766 8.47402344 2.69769531 7.82304688 2.50976562 7.15234375 C1.48107307 3.49203515 1.48107307 3.49203515 0 0 Z " fill="#2898E2" transform="translate(666,696)"/>
<path d="M0 0 C0.99 0.33 1.98 0.66 3 1 C-3.06574858 5.62212575 -8.56703846 9.1148286 -16 11 C-12.75910617 7.02253939 -8.79339905 5.26873487 -4.2421875 3.1484375 C-1.87731881 2.08198733 -1.87731881 2.08198733 0 0 Z " fill="#2896E2" transform="translate(898,677)"/>
<path d="M0 0 C0 0.99 0 1.98 0 3 C-1 4 -1 4 -3.22485352 4.11352539 C-4.18319092 4.10828857 -5.14152832 4.10305176 -6.12890625 4.09765625 C-7.68061523 4.09282227 -7.68061523 4.09282227 -9.26367188 4.08789062 C-10.35228516 4.07951172 -11.44089844 4.07113281 -12.5625 4.0625 C-14.2012207 4.05573242 -14.2012207 4.05573242 -15.87304688 4.04882812 C-18.58208495 4.03699826 -21.29101599 4.02051543 -24 4 C-24 3.67 -24 3.34 -24 3 C-22.77023437 2.95101562 -21.54046875 2.90203125 -20.2734375 2.8515625 C-18.64060434 2.77648971 -17.00779288 2.70094385 -15.375 2.625 C-14.56675781 2.5940625 -13.75851562 2.563125 -12.92578125 2.53125 C-8.28161686 2.3047054 -4.37306144 1.7407332 0 0 Z " fill="#30A2E8" transform="translate(678,790)"/>
<path d="M0 0 C0 0.66 0 1.32 0 2 C-5.93576017 7.53104925 -5.93576017 7.53104925 -10 8 C-9.875 6.25 -9.875 6.25 -9 4 C-3.88888889 0 -3.88888889 0 0 0 Z " fill="#1E90DE" transform="translate(929,704)"/>
<path d="M0 0 C0.66 0.33 1.32 0.66 2 1 C-1.44615385 5.8 -1.44615385 5.8 -4.25 6.8125 C-5.11625 6.9053125 -5.11625 6.9053125 -6 7 C-6 7.66 -6 8.32 -6 9 C-8.375 10.6875 -8.375 10.6875 -11 12 C-11.66 11.67 -12.32 11.34 -13 11 C-11.58510266 9.72719706 -10.16800334 8.4568417 -8.75 7.1875 C-7.96109375 6.47980469 -7.1721875 5.77210938 -6.359375 5.04296875 C-4.2983167 3.25831065 -2.20394477 1.60240938 0 0 Z " fill="#2C9ADF" transform="translate(801,298)"/>
<path d="M0 0 C0.33 0.99 0.66 1.98 1 3 C0.195625 3.61875 -0.60875 4.2375 -1.4375 4.875 C-4.03874519 6.74164041 -4.03874519 6.74164041 -5 9 C-6.65 9 -8.3 9 -10 9 C-7.12505529 5.01930733 -4.17882671 2.56428003 0 0 Z " fill="#2A99E5" transform="translate(604,486)"/>
<path d="M0 0 C0.99 0 1.98 0 3 0 C7.11308689 4.63523823 10.56191811 9.92809867 12 16 C11.34 16 10.68 16 10 16 C8.6328125 14.0234375 8.6328125 14.0234375 7.125 11.375 C4.86887131 7.48207206 2.54000657 3.7123173 0 0 Z " fill="#2595E0" transform="translate(939,477)"/>
<path d="M0 0 C4.95 1.65 9.9 3.3 15 5 C15 5.33 15 5.66 15 6 C10.17639811 6.19294408 6.50353262 5.75747614 2 4 C2 3.34 2 2.68 2 2 C1.34 2 0.68 2 0 2 C0 1.34 0 0.68 0 0 Z " fill="#2D9DE5" transform="translate(590,716)"/>
<path d="M0 0 C0.99 0 1.98 0 3 0 C2.40895235 4.84659077 1.02055843 8.60748167 -1 13 C-1.33 13 -1.66 13 -2 13 C-1.85915204 11.20793453 -1.71216299 9.41635083 -1.5625 7.625 C-1.48128906 6.62726563 -1.40007813 5.62953125 -1.31640625 4.6015625 C-1 2 -1 2 0 0 Z " fill="#2495E2" transform="translate(543,496)"/>
<path d="M0 0 C0.33 0 0.66 0 1 0 C1 3.63 1 7.26 1 11 C2.98 11.495 2.98 11.495 5 12 C5.33 11.34 5.66 10.68 6 10 C6 10.99 6 11.98 6 13 C3 15 3 15 0 15 C0 10.05 0 5.1 0 0 Z " fill="#2191DE" transform="translate(673,735)"/>
<path d="M0 0 C4 0 4 0 6 1.9375 C6.99 2.9584375 6.99 2.9584375 8 4 C10.1381966 4.7872678 10.1381966 4.7872678 12 5 C12 6.32 12 7.64 12 9 C8.98472262 7.59422879 6.4052059 5.93873852 3.75 3.9375 C3.04359375 3.41027344 2.3371875 2.88304687 1.609375 2.33984375 C1.07828125 1.89769531 0.5471875 1.45554687 0 1 C0 0.67 0 0.34 0 0 Z " fill="#2797DD" transform="translate(1165,683)"/>
<path d="M0 0 C4.97209562 1.76429199 9.43438061 4.3939166 14 7 C13.67 7.66 13.34 8.32 13 9 C11.38986415 8.26290216 9.78707609 7.50974143 8.1875 6.75 C7.29417969 6.33234375 6.40085937 5.9146875 5.48046875 5.484375 C2.89071669 3.93460211 1.61819166 2.51599234 0 0 Z " fill="#2799E3" transform="translate(575,708)"/>
<path d="M0 0 C0.66 0.66 1.32 1.32 2 2 C0.29171079 4.10633718 -0.52148416 4.93801608 -3.26171875 5.29296875 C-4.06222656 5.25816406 -4.86273437 5.22335937 -5.6875 5.1875 C-6.49574219 5.16042969 -7.30398438 5.13335938 -8.13671875 5.10546875 C-8.75160156 5.07066406 -9.36648438 5.03585937 -10 5 C-7.90217213 2.90217213 -6.6200793 2.3490604 -3.875 1.375 C-3.15054687 1.11460937 -2.42609375 0.85421875 -1.6796875 0.5859375 C-0.84824219 0.29589844 -0.84824219 0.29589844 0 0 Z " fill="#2B9CE7" transform="translate(1277,624)"/>
<path d="M0 0 C0.33 0 0.66 0 1 0 C1.36923077 4.55384615 1.36923077 4.55384615 -0.5 6.8125 C-0.995 7.204375 -1.49 7.59625 -2 8 C-1.125 2.25 -1.125 2.25 0 0 Z M-3 8 C-1.78613064 11.64160808 -2.3325305 12.33165469 -3.9375 15.6875 C-4.31777344 16.49574219 -4.69804688 17.30398438 -5.08984375 18.13671875 C-5.39019531 18.75160156 -5.69054687 19.36648438 -6 20 C-7 18 -7 18 -6.4765625 16.125 C-6.19554687 15.42375 -5.91453125 14.7225 -5.625 14 C-5.34914063 13.29875 -5.07328125 12.5975 -4.7890625 11.875 C-4.23722274 10.56369761 -3.6362454 9.27249081 -3 8 Z " fill="#56C0FA" transform="translate(737,312)"/>
<path d="M0 0 C5.19209404 -0.21192221 9.126739 0.4087311 14 2 C14 2.66 14 3.32 14 4 C9.03083364 3.48594831 4.70973649 2.76615118 0 1 C0 0.67 0 0.34 0 0 Z " fill="#309DE5" transform="translate(617,687)"/>
<path d="M0 0 C3.83663072 1.34929464 6.65172569 3.07751025 9.8125 5.625 C10.99779297 6.57246094 10.99779297 6.57246094 12.20703125 7.5390625 C12.79871094 8.02117187 13.39039063 8.50328125 14 9 C9.9563608 9 8.27982728 7.2958791 5 5 C4.05125 4.46375 3.1025 3.9275 2.125 3.375 C1.42375 2.92125 0.7225 2.4675 0 2 C0 1.34 0 0.68 0 0 Z " fill="#2693E2" transform="translate(1264,294)"/>
<path d="M0 0 C0 3.96018245 -1.18721244 6.5039097 -3 10 C-5.1875 10.9375 -5.1875 10.9375 -7 11 C-5.07848152 6.86873527 -2.95749791 3.46741134 0 0 Z " fill="#2E9CE6" transform="translate(593,495)"/>
<path d="M0 0 C0.99 0.33 1.98 0.66 3 1 C1.68 2.65 0.36 4.3 -1 6 C-3.97 5.505 -3.97 5.505 -7 5 C-2.25 1.125 -2.25 1.125 0 0 Z " fill="#1B8DDF" transform="translate(686,786)"/>
<path d="M0 0 C0.66 0.33 1.32 0.66 2 1 C1.67 1.99 1.34 2.98 1 4 C-2.5625 5.6875 -2.5625 5.6875 -6 7 C-6.33 5.68 -6.66 4.36 -7 3 C-4.69631264 1.93347808 -2.35981813 0.93578995 0 0 Z " fill="#5AC6FA" transform="translate(601,448)"/>
<path d="M0 0 C4.67105792 1.55701931 8.08705685 4.08447373 12 7 C11.01 7.66 10.02 8.32 9 9 C8.67 8.01 8.34 7.02 8 6 C6.16715557 4.87483915 6.16715557 4.87483915 4 4 C2.66666667 3.33333333 1.33333333 2.66666667 0 2 C0 1.34 0 0.68 0 0 Z " fill="#2697E4" transform="translate(1059,648)"/>
<path d="M0 0 C-1.93475671 0.53093324 -3.87293155 1.04942317 -5.8125 1.5625 C-7.43091797 1.99755859 -7.43091797 1.99755859 -9.08203125 2.44140625 C-12 3 -12 3 -15 2 C-12.54593984 -0.45406016 -11.4528512 -0.38381215 -8.0625 -0.6875 C-7.18722656 -0.77386719 -6.31195312 -0.86023438 -5.41015625 -0.94921875 C-3 -1 -3 -1 0 0 Z " fill="#2495E1" transform="translate(626,442)"/>
<path d="M0 0 C0.33 1.32 0.66 2.64 1 4 C0.34 4 -0.32 4 -1 4 C-1 4.99 -1 5.98 -1 7 C-2.98 7.33 -4.96 7.66 -7 8 C-6.02133662 6.85373678 -5.04205413 5.70800212 -4.0625 4.5625 C-3.51722656 3.92441406 -2.97195313 3.28632813 -2.41015625 2.62890625 C-1.63204305 1.73008851 -0.84063472 0.84063472 0 0 Z " fill="#6ED2FC" transform="translate(765,276)"/>
<path d="M0 0 C-4.95 2.475 -4.95 2.475 -10 5 C-10.33 4.34 -10.66 3.68 -11 3 C-4.5 -1.125 -4.5 -1.125 0 0 Z " fill="#2898E2" transform="translate(1264,592)"/>
<path d="M0 0 C0.763125 0.0825 1.52625 0.165 2.3125 0.25 C1.3225 1.735 1.3225 1.735 0.3125 3.25 C-0.3475 3.25 -1.0075 3.25 -1.6875 3.25 C-1.6875 3.91 -1.6875 4.57 -1.6875 5.25 C-3.0075 4.92 -4.3275 4.59 -5.6875 4.25 C-3.34903846 0.31153846 -3.34903846 0.31153846 0 0 Z " fill="#77DAFD" transform="translate(836.6875,247.75)"/>
<path d="M0 0 C0.33 0.99 0.66 1.98 1 3 C0.319375 3.61875 0.319375 3.61875 -0.375 4.25 C-2.05950374 6.06408095 -2.99265971 7.75285627 -4 10 C-4.99 9.34 -5.98 8.68 -7 8 C-4.69 5.36 -2.38 2.72 0 0 Z " fill="#299BE7" transform="translate(947,684)"/>
<path d="M0 0 C0 3 0 3 -1 5 C-3.5625 5.625 -3.5625 5.625 -6 6 C-6 5.34 -6 4.68 -6 4 C-6.66 3.67 -7.32 3.34 -8 3 C-5.36 2.01 -2.72 1.02 0 0 Z " fill="#2B9BE8" transform="translate(1296,614)"/>
<path d="M0 0 C-0.99 0.33 -1.98 0.66 -3 1 C-3 1.66 -3 2.32 -3 3 C-5.31 3 -7.62 3 -10 3 C-4.375 -1.3125 -4.375 -1.3125 0 0 Z " fill="#2796E3" transform="translate(618,482)"/>
<path d="M0 0 C0 3 0 3 -1.3125 4.38671875 C-2.875 5.59114583 -4.4375 6.79557292 -6 8 C-6 5 -6 5 -4.6875 3.61328125 C-3.125 2.40885417 -1.5625 1.20442708 0 0 Z " fill="#2795E2" transform="translate(687,738)"/>
<path d="M0 0 C1.31611677 0.95336021 2.62778961 1.91285774 3.9375 2.875 C4.66839844 3.40867187 5.39929687 3.94234375 6.15234375 4.4921875 C8 6 8 6 9 8 C5.56801397 6.76067171 2.69674368 5.49698489 0 3 C0 2.01 0 1.02 0 0 Z " fill="#2595DF" transform="translate(1110,688)"/>
<path d="M0 0 C-2 2 -2 2 -3.9453125 2.1953125 C-5.96354167 2.13020833 -7.98177083 2.06510417 -10 2 C-9.67 1.34 -9.34 0.68 -9 0 C-5.65506316 -0.99444068 -3.31044803 -1.10348268 0 0 Z " fill="#2AA0F5" transform="translate(851,285)"/>
<path d="M0 0 C0.66 0 1.32 0 2 0 C2.99 2.64 3.98 5.28 5 8 C4.01 8.495 4.01 8.495 3 9 C3 8.01 3 7.02 3 6 C2.34 6 1.68 6 1 6 C0.67 4.02 0.34 2.04 0 0 Z " fill="#2D9FE7" transform="translate(630,773)"/>
<path d="M0 0 C0.99 0.66 1.98 1.32 3 2 C2.34 3.65 1.68 5.3 1 7 C0.01 6.34 -0.98 5.68 -2 5 C-2 2 -2 2 0 0 Z " fill="#289AEA" transform="translate(936,696)"/>
<path d="M0 0 C0.33 0.66 0.66 1.32 1 2 C-0.61000397 5.13950774 -2.38499232 7.63404067 -5 10 C-5.66 9.67 -6.32 9.34 -7 9 C-5.71937515 7.2925002 -4.38232443 5.62626404 -3 4 C-2.34 4 -1.68 4 -1 4 C-0.67 2.68 -0.34 1.36 0 0 Z " fill="#58C5FB" transform="translate(563,472)"/>
<path d="M0 0 C2.97 0 5.94 0 9 0 C5.55549263 2.29633824 3.06187717 2.54016485 -1 3 C-0.67 2.01 -0.34 1.02 0 0 Z " fill="#76DBFE" transform="translate(806,254)"/>
<path d="M0 0 C0.99 0.33 1.98 0.66 3 1 C1.625 2.5 1.625 2.5 0 4 C-0.66 4 -1.32 4 -2 4 C-2 4.66 -2 5.32 -2 6 C-2.99 5.67 -3.98 5.34 -5 5 C-5 4.34 -5 3.68 -5 3 C-3.68 3 -2.36 3 -1 3 C-0.67 2.01 -0.34 1.02 0 0 Z " fill="#188BE3" transform="translate(694,781)"/>
<path d="M0 0 C-3.08888522 2.05925681 -3.70935927 2.2390374 -7.1875 2.125 C-9.0746875 2.063125 -9.0746875 2.063125 -11 2 C-7.00042393 -0.06874624 -4.43559483 -1.37656391 0 0 Z " fill="#2896E2" transform="translate(1255,634)"/>
<path d="M0 0 C3.24208567 0.35049575 4.61527704 0.56221181 6.8125 3.0625 C7.204375 3.701875 7.59625 4.34125 8 5 C7.67 5.66 7.34 6.32 7 7 C5.83040013 6.02433888 4.66438823 5.044375 3.5 4.0625 C2.8503125 3.51722656 2.200625 2.97195313 1.53125 2.41015625 C1.0259375 1.94480469 0.520625 1.47945312 0 1 C0 0.67 0 0.34 0 0 Z " fill="#5AC4F9" transform="translate(1132,704)"/>
<path d="M0 0 C0.66 0 1.32 0 2 0 C2 0.99 2 1.98 2 3 C1.01 3.495 1.01 3.495 0 4 C-0.33 4.99 -0.66 5.98 -1 7 C-1.66 7 -2.32 7 -3 7 C-2.25 2.25 -2.25 2.25 0 0 Z " fill="#71D8FE" transform="translate(776,322)"/>
<path d="M0 0 C3.25543229 0.34879632 4.01873107 1.02133261 6.25 3.5625 C6.8275 4.366875 7.405 5.17125 8 6 C6.68 5.67 5.36 5.34 4 5 C4 4.34 4 3.68 4 3 C2.68 2.34 1.36 1.68 0 1 C0 0.67 0 0.34 0 0 Z " fill="#2998E1" transform="translate(1279,306)"/>
<path d="M0 0 C0.99 0.33 1.98 0.66 3 1 C-0.465 3.97 -0.465 3.97 -4 7 C-2.92598892 4.08482708 -2.22189824 2.22189824 0 0 Z " fill="#2B94DD" transform="translate(758,280)"/>
<path d="M0 0 C0.66 0.33 1.32 0.66 2 1 C0.49336217 4.01327566 -2.03166411 4.61056618 -5 6 C-5.66 5.34 -6.32 4.68 -7 4 C-1.7265625 0.77734375 -1.7265625 0.77734375 0 0 Z " fill="#6DD2FB" transform="translate(791,259)"/>
</svg>
